<?xml version="1.0" encoding="utf-8"?>
<!-- Generator: Adobe Illustrator 21.1.0, SVG Export Plug-In . SVG Version: 6.00 Build 0)  -->
<svg version="1.1" xmlns="http://www.w3.org/2000/svg" xmlns:xlink="http://www.w3.org/1999/xlink" x="0px" y="0px"
	 viewBox="0 0 536.4 220.8" style="enable-background:new 0 0 536.4 220.8;" xml:space="preserve">
<style type="text/css">
	.st0{display:none;}
	.st1{display:inline;fill:#EDF6FC;}
	.st2{display:inline;fill:#5FB0E5;}
	.st3{display:inline;}
	.st4{fill:#D2E9F7;}
	.st5{fill:none;stroke:#0686D8;stroke-width:1.5;stroke-miterlimit:10;}
	.st6{fill:#FFFFFF;}
	.st7{fill:#5FB0E5;}
	.st8{fill:#9ECFEF;}
	.st9{opacity:0.3;fill:#0565A2;}
	.st10{fill:#0686D8;}
	.st11{fill:#DBEDF9;}
	.st12{fill:#E4F2FA;}
	.st13{fill:#EDF6FC;}
	.st14{fill:#F6FBFD;}
	.st15{fill:#B1D9F2;}
	.st16{fill:#C5E2F5;}
	.st17{fill:#D8ECF9;}
	.st18{fill:#ECF5FC;}
	.st19{fill:#7FC0EA;}
	.st20{fill:#9FD0EF;}
	.st21{fill:#BFDFF5;}
	.st22{fill:#DFEFFA;}
	.st23{opacity:0.3;}
	.st24{fill:#0565A2;}
	.st25{fill:#FFFFFE;}
	.st26{opacity:0.4;fill:#5FB0E5;}
	.st27{opacity:0.4;fill:#9ECFEF;}
	.st28{opacity:0.4;fill:#D2E9F7;}
	.st29{opacity:0.2;fill:#0565A2;}
	.st30{opacity:0.6;}
	.st31{font-family:'Montserrat-Bold';}
	.st32{font-size:12.7301px;}
</style>
<g id="Layer_2" class="st0">
	<path class="st1" d="M392.3,113.3L392.3,113.3c0,3.4,2.8,6.2,6.2,6.2h25.6c2.7,0,4.9,2.2,4.9,4.9v0c0,2.7-2.2,4.9-4.9,4.9h-9.3
		c-3.4,0-6.2,2.8-6.2,6.2v0.3c0,3.4,2.8,6.2,6.2,6.2h77.7c3.4,0,6.2-2.8,6.2-6.2v-0.3c0-3.4-2.8-6.2-6.2-6.2h-28.7
		c-2.7,0-4.9-2.2-4.9-4.9v0c0-2.7,2.2-4.9,4.9-4.9h9.2c3.4,0,6.2-2.8,6.2-6.2l0,0c0-3.4-2.8-6.2-6.2-6.2h-74.6
		C395.1,107.1,392.3,109.9,392.3,113.3z"/>
	<path class="st1" d="M224.9,70.5L224.9,70.5c0,3.4,2.8,6.2,6.2,6.2h25.6c2.7,0,4.9,2.2,4.9,4.9l0,0c0,2.7-2.2,4.9-4.9,4.9h-9.3
		c-3.4,0-6.2,2.8-6.2,6.2V93c0,3.4,2.8,6.2,6.2,6.2h77.7c3.4,0,6.2-2.8,6.2-6.2v-0.3c0-3.4-2.8-6.2-6.2-6.2h-28.7
		c-2.7,0-4.9-2.2-4.9-4.9l0,0c0-2.7,2.2-4.9,4.9-4.9h9.2c3.4,0,6.2-2.8,6.2-6.2l0,0c0-3.4-2.8-6.2-6.2-6.2H231
		C227.6,64.3,224.9,67.1,224.9,70.5z"/>
	<path class="st1" d="M23.9,159.3L23.9,159.3c0,3.4,2.8,6.2,6.2,6.2h25.6c2.7,0,4.9,2.2,4.9,4.9l0,0c0,2.7-2.2,4.9-4.9,4.9h-9.3
		c-3.4,0-6.2,2.8-6.2,6.2v0.3c0,3.4,2.8,6.2,6.2,6.2h77.7c3.4,0,6.2-2.8,6.2-6.2v-0.3c0-3.4-2.8-6.2-6.2-6.2H95.5
		c-2.7,0-4.9-2.2-4.9-4.9l0,0c0-2.7,2.2-4.9,4.9-4.9h9.2c3.4,0,6.2-2.8,6.2-6.2l0,0c0-3.4-2.8-6.2-6.2-6.2H30.1
		C26.7,153.1,23.9,155.9,23.9,159.3z"/>
	<path class="st1" d="M95.2,119.3L95.2,119.3c0,3.4,2.8,6.2,6.2,6.2H127c2.7,0,4.9,2.2,4.9,4.9l0,0c0,2.7-2.2,4.9-4.9,4.9h-9.3
		c-3.4,0-6.2,2.8-6.2,6.2v0.3c0,3.4,2.8,6.2,6.2,6.2h77.7c3.4,0,6.2-2.8,6.2-6.2v-0.3c0-3.4-2.8-6.2-6.2-6.2h-28.7
		c-2.7,0-4.9-2.2-4.9-4.9l0,0c0-2.7,2.2-4.9,4.9-4.9h9.2c3.4,0,6.2-2.8,6.2-6.2l0,0c0-3.4-2.8-6.2-6.2-6.2h-74.6
		C97.9,113.1,95.2,115.8,95.2,119.3z"/>
	<circle id="XMLID_91_" class="st2" cx="121.9" cy="96.8" r="2.1"/>
	<circle id="XMLID_88_" class="st2" cx="351.6" cy="49.3" r="1.2"/>
	<circle id="XMLID_86_" class="st2" cx="174" cy="36.1" r="1.2"/>
	<circle id="XMLID_34_" class="st2" cx="485.5" cy="103.7" r="1.6"/>
	<circle id="XMLID_85_" class="st2" cx="394" cy="38.3" r="2.2"/>
	<circle id="XMLID_83_" class="st2" cx="51.4" cy="135.3" r="1.9"/>
	<circle id="XMLID_71_" class="st2" cx="432.7" cy="61.3" r="2.4"/>
	<circle id="XMLID_70_" class="st2" cx="29.3" cy="184.1" r="1.7"/>
	<circle id="XMLID_33_" class="st2" cx="259.6" cy="33.7" r="2.3"/>
	<path id="XMLID_68_" class="st2" d="M85.3,138.2c-2.1,0.6-2.6,1-3.1,3.1c-0.6-2.1-1-2.6-3.1-3.1c2.1-0.6,2.6-1,3.1-3.1
		C82.7,137.1,83.2,137.6,85.3,138.2z"/>
	<path id="XMLID_66_" class="st2" d="M88.6,87c-1.6,0.4-1.9,0.8-2.3,2.3c-0.4-1.6-0.8-1.9-2.3-2.3c1.6-0.4,1.9-0.8,2.3-2.3
		C86.7,86.2,87,86.5,88.6,87z"/>
	<path id="XMLID_65_" class="st2" d="M221.7,53.3c-2.1,0.6-2.6,1-3.1,3.1c-0.6-2.1-1-2.6-3.1-3.1c2.1-0.6,2.6-1,3.1-3.1
		C219.1,52.3,219.6,52.7,221.7,53.3z"/>
	<path id="XMLID_47_" class="st2" d="M500.8,182.8c-2,0.5-2.4,0.9-2.9,2.9c-0.5-2-0.9-2.4-2.9-2.9c2-0.5,2.4-0.9,2.9-2.9
		C498.4,181.8,498.8,182.2,500.8,182.8z"/>
	<path id="XMLID_35_" class="st2" d="M300.2,38.3c-2,0.5-2.4,0.9-2.9,2.9c-0.5-2-0.9-2.4-2.9-2.9c2-0.5,2.4-0.9,2.9-2.9
		C297.8,37.3,298.2,37.8,300.2,38.3z"/>
	<path id="XMLID_46_" class="st2" d="M454.2,87.8c-2.6,0.7-3.1,1.2-3.8,3.8c-0.7-2.6-1.2-3.1-3.8-3.8c2.6-0.7,3.1-1.2,3.8-3.8
		C451.1,86.6,451.6,87.1,454.2,87.8z"/>
	<path id="XMLID_45_" class="st2" d="M345.8,69.9c-3.2,0.9-3.9,1.6-4.8,4.8c-0.9-3.2-1.6-3.9-4.8-4.8c3.2-0.9,3.9-1.6,4.8-4.8
		C341.8,68.4,342.5,69.1,345.8,69.9z"/>
	<path id="XMLID_43_" class="st2" d="M121,53.3c-2.7,0.7-3.3,1.3-4,4c-0.7-2.7-1.3-3.3-4-4c2.7-0.7,3.3-1.3,4-4
		C117.8,52,118.3,52.6,121,53.3z"/>
	<path class="st1" d="M506.3,168.5h-29c-2.8,0-5.1-2.3-5.1-5.1v-2.2c0-2.8,2.3-5.1,5.1-5.1h29c2.8,0,5.1,2.3,5.1,5.1v2.2
		C511.4,166.2,509.1,168.5,506.3,168.5z"/>
	<path class="st1" d="M71.6,125.1H35.7c-3.4,0-6.2-2.8-6.2-6.2l0,0c0-3.4,2.8-6.2,6.2-6.2h35.8c3.4,0,6.2,2.8,6.2,6.2l0,0
		C77.8,122.3,75,125.1,71.6,125.1z"/>
</g>
<g id="Layer_1" class="st0">
	<g class="st3">
		<g id="XMLID_378_">
			<path id="XMLID_391_" class="st4" d="M177.3,89.3v115.3c0,0.4-0.4,0.8-0.8,0.8h-10.3c-0.4,0-0.8-0.4-0.8-0.8V89.3
				c0-0.4,0.4-0.8,0.8-0.8h10.3C177,88.5,177.3,88.9,177.3,89.3z"/>
			<path id="XMLID_390_" class="st5" d="M177.3,89.3v115.3c0,0.4-0.4,0.8-0.8,0.8h-10.3c-0.4,0-0.8-0.4-0.8-0.8V89.3
				c0-0.4,0.4-0.8,0.8-0.8h10.3C177,88.5,177.3,88.9,177.3,89.3z"/>
			<line id="XMLID_389_" class="st5" x1="165.4" y1="195.8" x2="172.3" y2="195.8"/>
			<line id="XMLID_388_" class="st5" x1="165.4" y1="185.8" x2="172.3" y2="185.8"/>
			<line id="XMLID_387_" class="st5" x1="165.4" y1="175.8" x2="172.3" y2="175.8"/>
			<line id="XMLID_386_" class="st5" x1="165.4" y1="165.8" x2="172.3" y2="165.8"/>
			<line id="XMLID_385_" class="st5" x1="165.4" y1="155.8" x2="172.3" y2="155.8"/>
			<line id="XMLID_384_" class="st5" x1="165.4" y1="145.8" x2="172.3" y2="145.8"/>
			<line id="XMLID_383_" class="st5" x1="165.4" y1="135.8" x2="172.3" y2="135.8"/>
			<line id="XMLID_382_" class="st5" x1="165.4" y1="125.8" x2="172.3" y2="125.8"/>
			<line id="XMLID_381_" class="st5" x1="165.4" y1="116" x2="172.3" y2="116"/>
			<line id="XMLID_380_" class="st5" x1="165.4" y1="106.1" x2="172.3" y2="106.1"/>
			<line id="XMLID_379_" class="st5" x1="165.4" y1="96.3" x2="172.3" y2="96.3"/>
		</g>
		<g id="XMLID_373_">
			<path id="XMLID_377_" class="st6" d="M35.2,205.4h-5c-0.4,0-0.7-0.3-0.7-0.7v-71.7c0-0.1,0-0.2,0.1-0.3l2.5-5.4
				c0.2-0.5,1-0.5,1.2,0l2.5,5.4c0,0.1,0.1,0.2,0.1,0.3v71.7C35.9,205.1,35.6,205.4,35.2,205.4z"/>
			<rect id="XMLID_376_" x="29.6" y="135.2" class="st7" width="6.3" height="63.3"/>
			<path id="XMLID_375_" class="st5" d="M35.9,205.4h-6.3v-72.6l2.8-6.1c0.1-0.3,0.6-0.3,0.7,0l2.8,6.1V205.4z"/>
			<line id="XMLID_374_" class="st5" x1="29.3" y1="135.2" x2="35.9" y2="135.2"/>
		</g>
		<g id="XMLID_337_">
			<g id="XMLID_338_">
				<path id="XMLID_372_" class="st7" d="M253.8,71.9h-2.6c-0.6,0-1-0.4-1-1v-5.1c0-0.5,0.4-1,1-1h2.6c0.6,0,1,0.5,1,1v5.1
					C254.8,71.4,254.4,71.9,253.8,71.9z"/>
				<path id="XMLID_371_" class="st5" d="M253.8,71.9h-2.6c-0.6,0-1-0.4-1-1v-5.1c0-0.5,0.4-1,1-1h2.6c0.6,0,1,0.5,1,1v5.1
					C254.8,71.4,254.4,71.9,253.8,71.9z"/>
				<path id="XMLID_370_" class="st6" d="M268.2,35.9c0-8.6-6.9-15.5-15.5-15.5s-15.5,6.9-15.5,15.5c0,5.8,3.1,10.8,7.8,13.4v15.3
					l2.2,4.2h10.7l2.6-4.2V49.3C265,46.6,268.2,41.6,268.2,35.9z"/>
				<polygon id="XMLID_369_" class="st8" points="244.9,49.3 244.9,64.6 247.1,68.8 257.8,68.8 260.4,64.6 260.4,49.3 				"/>
				<polygon id="XMLID_368_" class="st7" points="260.4,64.6 257.8,68.8 247.1,68.8 244.9,64.6 				"/>
				<path id="XMLID_367_" class="st5" d="M240.8,25.9c-2.3,2.7-3.6,6.2-3.6,10c0,5.8,3.1,10.8,7.8,13.4v15.3l2.2,4.2h10.7l2.6-4.2
					V49.3c4.6-2.7,7.8-7.7,7.8-13.4c0-8.6-6.9-15.5-15.5-15.5c-2.1,0-4,0.4-5.8,1.1"/>
				<path id="XMLID_366_" class="st5" d="M244.9,22.4c-1.2,0.7-1.6,0.9-2.6,1.9"/>
				<line id="XMLID_365_" class="st5" x1="242.6" y1="54" x2="262.7" y2="54"/>
				<line id="XMLID_364_" class="st5" x1="242.6" y1="57.6" x2="262.7" y2="57.6"/>
				<line id="XMLID_363_" class="st5" x1="242.6" y1="61.1" x2="262.7" y2="61.1"/>
				<line id="XMLID_362_" class="st5" x1="242.6" y1="64.6" x2="262.7" y2="64.6"/>
				<g id="XMLID_354_">
					<path id="XMLID_361_" class="st8" d="M252.6,24.2c0,0,6.1,5.8,6.1,10.9s-6.1,10.9-6.1,10.9s-6.1-5.8-6.1-10.9
						S252.6,24.2,252.6,24.2z"/>
					<path id="XMLID_360_" class="st5" d="M252.6,24.2c0,0,6.1,5.8,6.1,10.9s-6.1,10.9-6.1,10.9s-6.1-5.8-6.1-10.9
						S252.6,24.2,252.6,24.2z"/>
					<line id="XMLID_359_" class="st5" x1="252.6" y1="53" x2="252.6" y2="24.2"/>
					<line id="XMLID_358_" class="st5" x1="252.6" y1="34.3" x2="248" y2="29.4"/>
					<line id="XMLID_357_" class="st5" x1="252.5" y1="40.9" x2="246.5" y2="34.3"/>
					<line id="XMLID_356_" class="st5" x1="252.5" y1="34.3" x2="257.1" y2="29.4"/>
					<line id="XMLID_355_" class="st5" x1="252.6" y1="40.9" x2="258.5" y2="34.3"/>
				</g>
				<line id="XMLID_353_" class="st5" x1="252.5" y1="14" x2="252.5" y2="18.4"/>
				<line id="XMLID_352_" class="st5" x1="260" y1="15.3" x2="258.6" y2="19.4"/>
				<line id="XMLID_351_" class="st5" x1="266.7" y1="19.1" x2="263.9" y2="22.4"/>
				<line id="XMLID_350_" class="st5" x1="271.6" y1="24.9" x2="267.9" y2="27.1"/>
				<line id="XMLID_349_" class="st5" x1="274.3" y1="32" x2="270" y2="32.8"/>
				<line id="XMLID_348_" class="st5" x1="274.3" y1="39.7" x2="270" y2="38.9"/>
				<line id="XMLID_347_" class="st5" x1="271.8" y1="46.8" x2="268" y2="44.7"/>
				<line id="XMLID_346_" class="st5" x1="266.9" y1="52.7" x2="264.1" y2="49.4"/>
				<line id="XMLID_345_" class="st5" x1="238.7" y1="53" x2="241.5" y2="49.7"/>
				<line id="XMLID_344_" class="st5" x1="233.7" y1="47.2" x2="237.5" y2="45"/>
				<line id="XMLID_343_" class="st5" x1="231" y1="40.1" x2="235.3" y2="39.3"/>
				<line id="XMLID_342_" class="st5" x1="230.9" y1="32.5" x2="235.2" y2="33.2"/>
				<line id="XMLID_341_" class="st5" x1="233.4" y1="25.3" x2="237.2" y2="27.4"/>
				<line id="XMLID_340_" class="st5" x1="238.3" y1="19.3" x2="241.1" y2="22.7"/>
				<line id="XMLID_339_" class="st5" x1="244.8" y1="15.4" x2="246.3" y2="19.5"/>
			</g>
		</g>
		<g>
			<path id="XMLID_336_" class="st6" d="M94.4,205.4h64c1,0,1.8-0.8,1.8-1.8v-95.2c0-1-0.8-1.8-1.8-1.8h-64c-1,0-1.8,0.8-1.8,1.8
				v95.2C92.5,204.5,93.3,205.4,94.4,205.4z"/>
			<rect id="XMLID_335_" x="140.8" y="106.4" class="st8" width="12.6" height="98.9"/>
			<rect id="XMLID_334_" x="130.9" y="106.4" class="st7" width="6.3" height="98.9"/>
			<path id="XMLID_333_" class="st5" d="M160.2,151.6v-39.8c0-3-2.4-5.3-5.3-5.3h-40.5"/>
			<path id="XMLID_332_" class="st5" d="M103,106.4h-5.1c-3,0-5.3,2.4-5.3,5.3v50.7"/>
			<line id="XMLID_331_" class="st5" x1="111.1" y1="106.4" x2="105.5" y2="106.4"/>
		</g>
		<path class="st9" d="M115.3,164.1H61.7c-1.5,0-2.8,1.3-2.8,2.8v16h0.9v20.6c0,1,0.8,1.9,1.9,1.9h53.6h0v0.9c1.5,0,2.8-1.3,2.8-2.8
			v-36.6C118.1,165.3,116.9,164.1,115.3,164.1z"/>
		<g>
			<path id="XMLID_294_" class="st6" d="M59,205.4h54.3c0.9,0,1.6-0.7,1.6-1.6v-37.2c0-0.9-0.7-1.6-1.6-1.6H59
				c-0.9,0-1.6,0.7-1.6,1.6v37.2C57.4,204.7,58.1,205.4,59,205.4z"/>
			<path id="XMLID_291_" class="st7" d="M57.4,165l27.5,19.3c0.7,0.5,1.7,0.5,2.4,0l27.5-19.3H57.4z"/>
			<path id="XMLID_290_" class="st5" d="M114.3,165.4l-27,19c-0.7,0.5-1.7,0.5-2.4,0l-26.6-18.7"/>
			<path id="XMLID_287_" class="st5" d="M112.9,205.4c1,0,1.9-0.8,1.9-1.9v-36.6c0-1-0.8-1.9-1.9-1.9H59.3c-1,0-1.9,0.8-1.9,1.9v16"
				/>
		</g>
		<g>
			<path id="XMLID_285_" class="st6" d="M76.7,204.2v-18c0-0.6-0.5-1.1-1.1-1.1H40.9c-0.6,0-1.1,0.5-1.1,1.1v18
				c0,0.6,0.5,1.1,1.1,1.1h34.7C76.2,205.4,76.7,204.9,76.7,204.2z"/>
			<rect id="XMLID_284_" x="39.8" y="189.4" class="st7" width="36.9" height="7.1"/>
			<path id="XMLID_283_" class="st5" d="M76.7,204.2v-18c0-0.6-0.5-1.1-1.1-1.1H40.9c-0.6,0-1.1,0.5-1.1,1.1v18
				c0,0.6,0.5,1.1,1.1,1.1h34.7C76.2,205.4,76.7,204.9,76.7,204.2z"/>
		</g>
		<g id="XMLID_183_">
			<path id="XMLID_279_" class="st6" d="M357.8,107.6L341,124.4v48.9c0,2.7,2.1,4.8,4.8,4.8h50.1c2.7,0,4.8-2.1,4.8-4.8v-60.9
				c0-2.7-2.1-4.8-4.8-4.8H357.8z"/>
			<polygon id="XMLID_278_" class="st7" points="357.8,124.4 357.8,107.6 341,124.4 			"/>
			<path id="XMLID_277_" class="st5" d="M341,124.4h15.1c0.9,0,1.7-0.8,1.7-1.7v-15.1"/>
			<path id="XMLID_205_" class="st5" d="M400.7,169.5v-57.1c0-2.7-2.1-4.8-4.8-4.8h-38.1L341,124.4v25.9"/>
			<g id="XMLID_184_">
				<rect id="XMLID_198_" x="368.1" y="143" class="st5" width="5.4" height="5.4"/>
				<rect id="XMLID_197_" x="350.9" y="127.8" class="st5" width="5.4" height="5.4"/>
				<path id="XMLID_196_" class="st5" d="M353.6,133.1L353.6,133.1c0,6.9,5.6,12.6,12.6,12.6h2"/>
				<line id="XMLID_195_" class="st5" x1="373.5" y1="145.7" x2="386.2" y2="145.7"/>
				<line id="XMLID_194_" class="st5" x1="350.8" y1="145.7" x2="367.8" y2="145.7"/>
				<circle id="XMLID_193_" class="st5" cx="387.4" cy="145.7" r="2.1"/>
				<circle id="XMLID_186_" class="st5" cx="349.6" cy="145.7" r="2.1"/>
			</g>
		</g>
		<g id="XMLID_125_">
			<path id="XMLID_182_" class="st7" d="M323.5,167H182.4V88.4c0-2.9,2.4-5.3,5.3-5.3h130.5c2.9,0,5.3,2.4,5.3,5.3V167z"/>
			<path id="XMLID_181_" class="st5" d="M182.4,150V89.8c0-3.8,3.1-6.8,6.8-6.8h12.4"/>
			<path id="XMLID_180_" class="st5" d="M211.7,83h105c3.8,0,6.8,3.1,6.8,6.8v59"/>
			<line id="XMLID_178_" class="st5" x1="204.3" y1="83" x2="209.6" y2="83"/>
			<rect id="XMLID_159_" x="190" y="91.2" class="st6" width="126" height="66.3"/>
			<rect id="XMLID_156_" x="196.3" y="154.4" class="st8" width="119.7" height="3.2"/>
			<rect id="XMLID_155_" x="292.5" y="91.2" class="st4" width="23.6" height="66.3"/>
			
				<rect id="XMLID_152_" x="290.2" y="91.2" transform="matrix(-1 -1.224647e-16 1.224647e-16 -1 582.6512 248.771)" class="st8" width="2.3" height="66.3"/>
			<rect id="XMLID_151_" x="292.5" y="139.4" class="st4" width="23.6" height="18.1"/>
			<rect id="XMLID_150_" x="292.5" y="137.7" class="st7" width="23.6" height="3.4"/>
			<rect id="XMLID_147_" x="292.5" y="98.5" class="st7" width="23.6" height="3.6"/>
			<rect id="XMLID_146_" x="292.5" y="118.2" class="st8" width="23.6" height="19.7"/>
			<rect id="XMLID_145_" x="292.5" y="118.2" class="st7" width="23.6" height="3.9"/>
			<rect id="XMLID_142_" x="231.7" y="179.7" class="st4" width="42.5" height="25.2"/>
			<rect id="XMLID_141_" x="231.7" y="179.7" class="st8" width="42.5" height="12.6"/>
			<rect id="XMLID_140_" x="231.7" y="179.7" class="st5" width="42.5" height="25.2"/>
			<path id="XMLID_138_" class="st6" d="M323.5,163.9H182.4v13.6c0,3,2.4,5.4,5.4,5.4h130.3c3,0,5.4-2.4,5.4-5.4V163.9z"/>
			<line id="XMLID_137_" class="st5" x1="210.7" y1="183" x2="308.6" y2="183"/>
			<line id="XMLID_136_" class="st5" x1="308.6" y1="163.9" x2="210.7" y2="163.9"/>
			<line id="XMLID_135_" class="st5" x1="223.4" y1="205.4" x2="283.1" y2="205.4"/>
			<rect id="XMLID_134_" x="190" y="91.2" class="st4" width="9.5" height="66.3"/>
			<rect id="XMLID_126_" x="190" y="91.2" class="st8" width="126" height="7.3"/>
			<rect x="191.9" y="102" class="st8" width="4.4" height="4.4"/>
			<rect x="192.6" y="93.1" class="st10" width="3.7" height="3.5"/>
			<rect x="202.3" y="93.1" class="st4" width="3.7" height="3.5"/>
			<rect x="207.5" y="93.1" class="st4" width="3.7" height="3.5"/>
			<rect x="216.3" y="93.1" class="st4" width="12.1" height="3.5"/>
			<rect x="230.8" y="93.1" class="st4" width="12.1" height="3.5"/>
			<rect x="252.6" y="93.1" class="st4" width="12.1" height="3.5"/>
			<rect x="267.2" y="93.1" class="st4" width="12.1" height="3.5"/>
			<rect x="284.1" y="93.1" class="st4" width="12.1" height="3.5"/>
			<rect x="191.9" y="109.9" class="st8" width="4.4" height="4.4"/>
			<rect x="191.9" y="117.7" class="st8" width="4.4" height="4.4"/>
			<rect x="191.9" y="125.5" class="st8" width="4.4" height="4.4"/>
			<rect x="191.9" y="133.3" class="st8" width="4.4" height="4.4"/>
			<rect x="216.3" y="107.9" class="st4" width="56.5" height="37.7"/>
			<path class="st7" d="M237.6,145.6c0.6,0,16.3-17.9,16.3-17.9l16.3,17.9H237.6z"/>
			<path class="st8" d="M216.3,145.6c0.7,0,19.2-21,19.2-21l19.2,21H216.3z"/>
			<circle class="st8" cx="245.8" cy="116.4" r="4.3"/>
		</g>
		<path class="st9" d="M211.4,183.9v-25.7c0-2.7-2.2-4.9-4.9-4.9h-24.2v10.7v3.1v9.4c0,3.6,2.9,6.6,6.6,6.6h21.7v0.9H211.4z"/>
		<g>
			<path id="XMLID_124_" class="st4" d="M204.9,205.3h-74.3c-1.1,0-2-0.9-2-2v-47.2c0-1.1,0.9-2,2-2h74.3c1.1,0,2,0.9,2,2v47.2
				C206.9,204.4,206,205.3,204.9,205.3z"/>
			<line id="XMLID_123_" class="st5" x1="150.9" y1="154.1" x2="154" y2="154.1"/>
			<path id="XMLID_121_" class="st5" d="M156.2,154.1h46.7c2.2,0,4,1.8,4,4v43.2c0,2.2-1.8,4-4,4h-70.2c-2.2,0-4-1.8-4-4v-43.2
				c0-2.2,1.8-4,4-4h16.4"/>
			<rect id="XMLID_120_" x="143.6" y="160.4" class="st7" width="56.4" height="38.7"/>
			<rect id="XMLID_119_" x="143.6" y="160.4" class="st5" width="56.4" height="38.7"/>
			<line id="XMLID_118_" class="st5" x1="143.6" y1="153.7" x2="143.6" y2="205.3"/>
			<line id="XMLID_117_" class="st5" x1="135.8" y1="161.2" x2="135.8" y2="166.8"/>
			<line id="XMLID_116_" class="st5" x1="135.8" y1="171.5" x2="135.8" y2="177.1"/>
			<line id="XMLID_115_" class="st5" x1="135.8" y1="181.9" x2="135.8" y2="187.5"/>
			<line id="XMLID_114_" class="st5" x1="135.8" y1="192.3" x2="135.8" y2="197.9"/>
			<polyline id="XMLID_113_" class="st5" points="150.3,171.5 150.3,165.8 155.3,165.8 			"/>
			<polyline id="XMLID_112_" class="st5" points="193.5,187.5 193.5,193.2 188.5,193.2 			"/>
			<path id="XMLID_111_" class="st5" d="M128.7,179.5h-4.3c-2.2,0-3.9,1.8-3.9,3.9v21.9"/>
		</g>
		<g id="XMLID_61_">
			
				<rect id="XMLID_110_" x="432.8" y="172.8" transform="matrix(-1.836970e-16 1 -1 -1.836970e-16 637.5383 -244.5578)" class="st6" width="16.5" height="47.3"/>
			
				<rect id="XMLID_109_" x="452.4" y="192.5" transform="matrix(-1.836970e-16 1 -1 -1.836970e-16 657.1913 -264.2108)" class="st4" width="16.5" height="8"/>
			
				<rect id="XMLID_108_" x="444.4" y="192.5" transform="matrix(-1.836970e-16 1 -1 -1.836970e-16 649.1956 -256.2151)" class="st11" width="16.5" height="8"/>
			
				<rect id="XMLID_107_" x="436.4" y="192.5" transform="matrix(-1.836970e-16 1 -1 -1.836970e-16 641.2 -248.2195)" class="st12" width="16.5" height="8"/>
			
				<rect id="XMLID_106_" x="428.5" y="192.5" transform="matrix(-1.836970e-16 1 -1 -1.836970e-16 633.2043 -240.2238)" class="st13" width="16.5" height="8"/>
			
				<rect id="XMLID_105_" x="420.5" y="192.5" transform="matrix(-1.836970e-16 1 -1 -1.836970e-16 625.2086 -232.2281)" class="st14" width="16.5" height="8"/>
			
				<rect id="XMLID_104_" x="432.8" y="172.8" transform="matrix(-1.836970e-16 1 -1 -1.836970e-16 637.5383 -244.5578)" class="st5" width="16.5" height="47.3"/>
			
				<rect id="XMLID_103_" x="425.2" y="156.6" transform="matrix(0.7071 0.7071 -0.7071 0.7071 254.4056 -253.7406)" class="st6" width="16.5" height="47.3"/>
			
				<rect id="XMLID_102_" x="439.1" y="162.3" transform="matrix(0.7071 0.7071 -0.7071 0.7071 248.6496 -267.6374)" class="st8" width="16.5" height="8"/>
			
				<rect id="XMLID_101_" x="433.5" y="168" transform="matrix(0.7071 0.7071 -0.7071 0.7071 250.9912 -261.9835)" class="st15" width="16.5" height="8"/>
			
				<rect id="XMLID_100_" x="427.8" y="173.6" transform="matrix(0.7071 0.7071 -0.7071 0.7071 253.3331 -256.3297)" class="st16" width="16.5" height="8"/>
			
				<rect id="XMLID_99_" x="422.2" y="179.3" transform="matrix(0.7071 0.7071 -0.7071 0.7071 255.675 -250.6759)" class="st17" width="16.5" height="8"/>
			
				<rect id="XMLID_98_" x="416.5" y="184.9" transform="matrix(0.7071 0.7071 -0.7071 0.7071 258.0169 -245.0221)" class="st18" width="16.5" height="8"/>
			
				<rect id="XMLID_97_" x="425.2" y="156.6" transform="matrix(0.7071 0.7071 -0.7071 0.7071 254.4056 -253.7406)" class="st5" width="16.5" height="47.3"/>
			<rect id="XMLID_96_" x="407.9" y="157.3" class="st6" width="16.5" height="47.3"/>
			<rect id="XMLID_95_" x="407.9" y="157.3" class="st7" width="16.5" height="8"/>
			<rect id="XMLID_94_" x="407.9" y="165.3" class="st19" width="16.5" height="8"/>
			<rect id="XMLID_93_" x="407.9" y="173.3" class="st20" width="16.5" height="8"/>
			<rect id="XMLID_92_" x="407.9" y="181.3" class="st21" width="16.5" height="8"/>
			<rect id="XMLID_90_" x="407.9" y="189.3" class="st22" width="16.5" height="8"/>
			<circle id="XMLID_84_" class="st5" cx="416.1" cy="200.8" r="1.2"/>
			<polyline id="XMLID_82_" class="st5" points="407.9,169.3 407.9,157.4 424.4,157.4 424.4,204.8 			"/>
			<line id="XMLID_81_" class="st5" x1="408.4" y1="165.2" x2="424.4" y2="165.2"/>
			<line id="XMLID_80_" class="st5" x1="408.4" y1="173.2" x2="424.4" y2="173.2"/>
			<line id="XMLID_79_" class="st5" x1="408.4" y1="181.2" x2="424.4" y2="181.2"/>
			<line id="XMLID_78_" class="st5" x1="408.4" y1="189.2" x2="424.4" y2="189.2"/>
			<line id="XMLID_77_" class="st5" x1="439" y1="163.7" x2="450.4" y2="175"/>
			<line id="XMLID_76_" class="st5" x1="433.1" y1="169" x2="444.4" y2="180.3"/>
			<line id="XMLID_75_" class="st5" x1="427.1" y1="174.2" x2="439.1" y2="186.3"/>
			<line id="XMLID_74_" class="st5" x1="424.7" y1="183.1" x2="433.5" y2="191.9"/>
			<line id="XMLID_73_" class="st5" x1="432.7" y1="192.8" x2="432.7" y2="204.8"/>
			<line id="XMLID_72_" class="st5" x1="440.7" y1="188.2" x2="440.7" y2="204.8"/>
			<line id="XMLID_67_" class="st5" x1="448.7" y1="188.2" x2="448.7" y2="204.8"/>
			<line id="XMLID_64_" class="st5" x1="456.7" y1="188.2" x2="456.7" y2="204.8"/>
			<line id="XMLID_63_" class="st5" x1="424.4" y1="194.1" x2="427.8" y2="197.6"/>
			<line id="XMLID_62_" class="st5" x1="408.4" y1="197.3" x2="424.4" y2="197.3"/>
		</g>
		<path class="st9" d="M323.5,176.4V167v-3.1v-11.8h-11.2c-2.3,0-4.2,1.9-4.2,4.2v27.6h0.3V183h8.4C320.6,183,323.5,180,323.5,176.4
			z"/>
		<path class="st9" d="M376,168.7h0.9v-12.4c0-2.3-1.9-4.2-4.2-4.2H341v21.1c0,2.7,2.1,4.8,4.8,4.8H376V168.7z"/>
		<g id="XMLID_52_">
			<path id="XMLID_60_" class="st6" d="M371,205.4h-56.9c-1.4,0-2.6-1.1-2.6-2.6v-47.2c0-1.4,1.1-2.6,2.6-2.6H371
				c1.4,0,2.6,1.1,2.6,2.6v47.2C373.6,204.2,372.4,205.4,371,205.4z"/>
			<polygon id="XMLID_58_" class="st8" points="373.6,188.5 359,175.1 347.4,184 331.2,170.4 311.6,185.3 311.6,193 373.6,193 			
				"/>
			<line id="XMLID_57_" class="st5" x1="311.6" y1="193" x2="350.7" y2="193"/>
			<polyline id="XMLID_56_" class="st5" points="311.6,185.3 331.2,170.4 347.4,184 350.4,181.7 			"/>
			<circle id="XMLID_55_" class="st7" cx="347" cy="163.4" r="5.4"/>
			<circle id="XMLID_54_" class="st5" cx="347" cy="163.4" r="5.4"/>
			<path id="XMLID_53_" class="st5" d="M314.8,205.4c-1.8,0-3.3-1.5-3.3-3.3v-45.8c0-1.8,1.5-3.3,3.3-3.3h55.5
				c1.8,0,3.3,1.5,3.3,3.3v12.4"/>
		</g>
		<g class="st23">
			<path class="st24" d="M354.8,171.4c-2.6,0-4.8,2.2-4.8,4.8v25.3c0,1.6,0.8,3,2,3.9h18.4c1.7,0,3.1-1.4,3.1-3.1V193v-4.5v-17.1
				H354.8z"/>
			<rect x="360.1" y="169.5" class="st24" width="8.7" height="1.8"/>
		</g>
		<path class="st9" d="M413.8,201.5v-25.3c0-2.6-2.2-4.8-4.8-4.8h-1.1v1.9v8v8v8v7.3h4.7C413.3,203.8,413.8,202.7,413.8,201.5z"/>
		<g id="XMLID_6_">
			<path id="XMLID_51_" class="st8" d="M406.3,172.3h-48.8c-2.3,0-4.1,2.2-4.1,4.9v23.3c0,2.7,1.8,4.9,4.1,4.9h48.8
				c2.3,0,4.1-2.2,4.1-4.9v-23.3C410.5,174.5,408.6,172.3,406.3,172.3z"/>
			<rect id="XMLID_50_" x="353.4" y="188.1" class="st4" width="57.1" height="11.5"/>
			<rect id="XMLID_49_" x="353.4" y="195.5" class="st8" width="57.1" height="2"/>
			<rect id="XMLID_48_" x="353.4" y="191" class="st8" width="57.1" height="2"/>
			<path id="XMLID_42_" class="st5" d="M407.2,205.4h-50.7c-1.8,0-3.2-1.4-3.2-3.2v-26.6c0-1.8,1.4-3.2,3.2-3.2h50.7
				c1.8,0,3.2,1.4,3.2,3.2v26.6C410.5,203.9,409,205.4,407.2,205.4z"/>
			<circle id="XMLID_41_" class="st4" cx="376.5" cy="188.8" r="13.8"/>
			<circle id="XMLID_40_" class="st5" cx="376.5" cy="188.8" r="10.9"/>
			<circle id="XMLID_39_" class="st6" cx="376.5" cy="188.8" r="7.9"/>
			<circle id="XMLID_38_" class="st4" cx="376.5" cy="188.8" r="5.5"/>
			<circle id="XMLID_37_" class="st8" cx="376.5" cy="188.8" r="3.2"/>
			<circle id="XMLID_36_" class="st7" cx="376.5" cy="188.8" r="2.1"/>
			<circle id="XMLID_15_" class="st5" cx="376.5" cy="188.8" r="13.8"/>
			
				<ellipse id="XMLID_14_" transform="matrix(0.8067 -0.591 0.591 0.8067 -35.5901 254.992)" class="st25" cx="372" cy="181.9" rx="3.7" ry="1.4"/>
			<circle id="XMLID_12_" class="st5" cx="361.3" cy="178" r="1.3"/>
			<circle id="XMLID_11_" class="st25" cx="388.1" cy="201.2" r="0.8"/>
			<rect id="XMLID_10_" x="394" y="176" class="st4" width="13" height="6.6"/>
			<polygon id="XMLID_9_" class="st25" points="399.1,176 394,181.1 394,182.6 397.3,182.6 404,176 			"/>
			<polygon id="XMLID_8_" class="st25" points="401.7,182.6 407,177.3 407,176 405.1,176 398.5,182.6 			"/>
			<line id="XMLID_7_" class="st5" x1="362.5" y1="170.4" x2="371.2" y2="170.4"/>
		</g>
		<g id="XMLID_2_">
			<path id="XMLID_5_" class="st7" d="M466.6,180.7c0-6.3,5.1-11.3,11.3-11.3c3.2,0,6,1.3,8.1,3.4c2.1-2.1,4.9-3.4,8.1-3.4
				c6.3,0,11.3,5.1,11.3,11.3c0,3.1-1.2,5.8-3.2,7.9l-16.2,16.1l-16.6-16.5c-0.2-0.2-0.7-0.8-0.7-0.8
				C467.4,185.5,466.6,183.2,466.6,180.7z"/>
			<path id="XMLID_4_" class="st6" d="M490.8,170.9c0.6-0.2,1.2-0.3,1.8-0.4c5.5,0.6,9.8,5.3,9.8,10.9c0,3-1.2,5.6-3.1,7.6l-13.9,15
				l-1.8-1.8l12.1-13.2c1.9-2,3.1-4.7,3.1-7.6C498.8,176.4,495.4,172.2,490.8,170.9z"/>
			<path id="XMLID_3_" class="st5" d="M466.6,180.7c0-6.3,5.1-11.3,11.3-11.3c3.2,0,6,1.3,8.1,3.4c2.1-2.1,4.9-3.4,8.1-3.4
				c6.3,0,11.3,5.1,11.3,11.3c0,3.1-1.2,5.8-3.2,7.9l-16.2,16.1l-16.6-16.5c-0.2-0.2-0.7-0.8-0.7-0.8
				C467.4,185.5,466.6,183.2,466.6,180.7z"/>
		</g>
		<line id="XMLID_1_" class="st5" x1="3" y1="205.4" x2="532.5" y2="205.4"/>
	</g>
</g>
<g id="Layer_3" class="st0">
	<path class="st1" d="M389.3,104.3L389.3,104.3c0,3.3,2.7,6,6,6H420c2.6,0,4.8,2.1,4.8,4.8v0c0,2.6-2.1,4.8-4.8,4.8H411
		c-3.3,0-6,2.7-6,6v0.3c0,3.3,2.7,6,6,6h74.9c3.3,0,6-2.7,6-6v-0.3c0-3.3-2.7-6-6-6h-27.6c-2.6,0-4.8-2.1-4.8-4.8v0
		c0-2.6,2.1-4.8,4.8-4.8h8.9c3.3,0,6-2.7,6-6l0,0c0-3.3-2.7-6-6-6h-71.9C392,98.3,389.3,101,389.3,104.3z"/>
	<path class="st1" d="M228,63L228,63c0,3.3,2.7,6,6,6h24.7c2.6,0,4.8,2.1,4.8,4.8l0,0c0,2.6-2.1,4.8-4.8,4.8h-8.9c-3.3,0-6,2.7-6,6
		v0.3c0,3.3,2.7,6,6,6h74.9c3.3,0,6-2.7,6-6v-0.3c0-3.3-2.7-6-6-6H297c-2.6,0-4.8-2.1-4.8-4.8l0,0c0-2.6,2.1-4.8,4.8-4.8h8.9
		c3.3,0,6-2.7,6-6l0,0c0-3.3-2.7-6-6-6H234C230.7,57.1,228,59.7,228,63z"/>
	<path class="st1" d="M34.4,148.5L34.4,148.5c0,3.3,2.7,6,6,6h24.7c2.6,0,4.8,2.1,4.8,4.8l0,0c0,2.6-2.1,4.8-4.8,4.8h-8.9
		c-3.3,0-6,2.7-6,6v0.3c0,3.3,2.7,6,6,6H131c3.3,0,6-2.7,6-6V170c0-3.3-2.7-6-6-6h-27.6c-2.6,0-4.8-2.1-4.8-4.8l0,0
		c0-2.6,2.1-4.8,4.8-4.8h8.9c3.3,0,6-2.7,6-6l0,0c0-3.3-2.7-6-6-6H40.4C37.1,142.6,34.4,145.3,34.4,148.5z"/>
	<path class="st1" d="M103.1,110L103.1,110c0,3.3,2.7,6,6,6h24.7c2.6,0,4.8,2.1,4.8,4.8l0,0c0,2.6-2.1,4.8-4.8,4.8h-8.9
		c-3.3,0-6,2.7-6,6v0.3c0,3.3,2.7,6,6,6h74.9c3.3,0,6-2.7,6-6v-0.3c0-3.3-2.7-6-6-6h-27.6c-2.6,0-4.8-2.1-4.8-4.8l0,0
		c0-2.6,2.1-4.8,4.8-4.8h8.9c3.3,0,6-2.7,6-6l0,0c0-3.3-2.7-6-6-6H109C105.8,104,103.1,106.7,103.1,110z"/>
	<circle id="XMLID_89_" class="st2" cx="128.9" cy="88.4" r="2.1"/>
	<circle id="XMLID_87_" class="st2" cx="350.1" cy="42.6" r="1.2"/>
	<circle id="XMLID_69_" class="st2" cx="179" cy="29.9" r="1.2"/>
	<circle id="XMLID_59_" class="st2" cx="479" cy="95.1" r="1.5"/>
	<circle id="XMLID_44_" class="st2" cx="390.9" cy="32" r="2.1"/>
	<circle id="XMLID_32_" class="st2" cx="60.9" cy="125.5" r="1.9"/>
	<circle id="XMLID_31_" class="st2" cx="428.2" cy="54.2" r="2.3"/>
	<circle id="XMLID_29_" class="st2" cx="39.7" cy="172.4" r="1.6"/>
	<circle id="XMLID_28_" class="st2" cx="261.5" cy="27.6" r="2.2"/>
	<path id="XMLID_27_" class="st2" d="M93.6,128.2c-2,0.5-2.5,1-3,3c-0.5-2-1-2.5-3-3c2-0.5,2.5-1,3-3
		C91.1,127.2,91.6,127.7,93.6,128.2z"/>
	<path id="XMLID_25_" class="st2" d="M96.8,78.9c-1.5,0.4-1.9,0.7-2.3,2.3c-0.4-1.5-0.7-1.9-2.3-2.3c1.5-0.4,1.9-0.7,2.3-2.3
		C94.9,78.1,95.2,78.5,96.8,78.9z"/>
	<path id="XMLID_24_" class="st2" d="M224.9,46.4c-2,0.5-2.5,1-3,3c-0.5-2-1-2.5-3-3c2-0.5,2.5-1,3-3
		C222.5,45.5,222.9,45.9,224.9,46.4z"/>
	<path id="XMLID_23_" class="st2" d="M493.8,171.2c-1.9,0.5-2.3,0.9-2.8,2.8c-0.5-1.9-0.9-2.3-2.8-2.8c1.9-0.5,2.3-0.9,2.8-2.8
		C491.5,170.3,491.9,170.7,493.8,171.2z"/>
	<path id="XMLID_22_" class="st2" d="M300.6,32c-1.9,0.5-2.3,0.9-2.8,2.8c-0.5-1.9-0.9-2.3-2.8-2.8c1.9-0.5,2.3-0.9,2.8-2.8
		C298.3,31.1,298.7,31.5,300.6,32z"/>
	<path id="XMLID_21_" class="st2" d="M448.9,79.7c-2.5,0.7-3,1.2-3.7,3.7c-0.7-2.5-1.2-3-3.7-3.7c2.5-0.7,3-1.2,3.7-3.7
		C445.9,78.5,446.4,79.1,448.9,79.7z"/>
	<path id="XMLID_20_" class="st2" d="M344.5,62.5c-3.1,0.8-3.8,1.5-4.6,4.6c-0.8-3.1-1.5-3.8-4.6-4.6c3.1-0.8,3.8-1.5,4.6-4.6
		C340.7,61,341.4,61.7,344.5,62.5z"/>
	<path id="XMLID_19_" class="st2" d="M128,46.4c-2.6,0.7-3.1,1.2-3.8,3.8c-0.7-2.6-1.2-3.1-3.8-3.8c2.6-0.7,3.1-1.2,3.8-3.8
		C124.8,45.2,125.4,45.8,128,46.4z"/>
	<path class="st1" d="M498.9,157.4h-27.6c-2.8,0-5.1-2.3-5.1-5.1v-1.7c0-2.8,2.3-5.1,5.1-5.1h27.6c2.8,0,5.1,2.3,5.1,5.1v1.7
		C504,155.1,501.7,157.4,498.9,157.4z"/>
	<path class="st1" d="M80.4,115.6H45.8c-3.3,0-6-2.7-6-6l0,0c0-3.3,2.7-6,6-6h34.5c3.3,0,6,2.7,6,6l0,0
		C86.3,112.9,83.7,115.6,80.4,115.6z"/>
	<g class="st3">
		<text transform="matrix(1 0 0 1 52.1589 -4)" class="st10" style="font-family:'NexaBold'; font-size:9px;">WEB DESIGN</text>
	</g>
	<g class="st3">
		<g id="XMLID_558_">
			<path id="XMLID_579_" class="st4" d="M446.6,112.4v89c0,0.4-0.4,0.8-0.8,0.8h-10.4c-0.4,0-0.8-0.4-0.8-0.8v-89
				c0-0.4,0.4-0.8,0.8-0.8h10.4C446.3,111.7,446.6,112,446.6,112.4z"/>
			<path id="XMLID_578_" class="st5" d="M446.6,112.4v89c0,0.4-0.4,0.8-0.8,0.8h-10.4c-0.4,0-0.8-0.4-0.8-0.8v-89
				c0-0.4,0.4-0.8,0.8-0.8h10.4C446.3,111.7,446.6,112,446.6,112.4z"/>
			<line id="XMLID_566_" class="st5" x1="434.6" y1="192.6" x2="441.6" y2="192.6"/>
			<line id="XMLID_565_" class="st5" x1="434.6" y1="182.6" x2="441.6" y2="182.6"/>
			<line id="XMLID_564_" class="st5" x1="434.6" y1="172.5" x2="441.6" y2="172.5"/>
			<line id="XMLID_563_" class="st5" x1="434.6" y1="162.4" x2="441.6" y2="162.4"/>
			<line id="XMLID_562_" class="st5" x1="434.6" y1="152.4" x2="441.6" y2="152.4"/>
			<line id="XMLID_561_" class="st5" x1="434.6" y1="142.3" x2="441.6" y2="142.3"/>
			<line id="XMLID_560_" class="st5" x1="434.6" y1="132.3" x2="441.6" y2="132.3"/>
			<line id="XMLID_559_" class="st5" x1="434.6" y1="122.2" x2="441.6" y2="122.2"/>
		</g>
		<g>
			<path id="XMLID_557_" class="st7" d="M112.2,201.4c0-16.3-13.2-29.6-29.6-29.6c-16.3,0-29.6,13.2-29.6,29.6H112.2z"/>
			<path id="XMLID_556_" class="st5" d="M91,173c-2.7-0.8-5.5-1.2-8.4-1.2c-16.3,0-29.6,13.2-29.6,29.6"/>
			<path id="XMLID_555_" class="st4" d="M107.6,201.4c0-13.8-11.2-25-25-25c-13.8,0-25,11.2-25,25H107.6z"/>
			<path id="XMLID_554_" class="st6" d="M96.2,201.4c0-7.5-6.1-13.6-13.6-13.6c-7.5,0-13.6,6.1-13.6,13.6H96.2z"/>
			<path id="XMLID_553_" class="st7" d="M85.7,201.4c0-1.7-1.4-3.1-3.1-3.1c-1.7,0-3.1,1.4-3.1,3.1H85.7z"/>
			<path id="XMLID_552_" class="st5" d="M90.6,177.6c-2.5-0.8-5.2-1.3-8-1.3c-13.8,0-25,11.2-25,25"/>
			<line id="XMLID_546_" class="st5" x1="82.6" y1="176" x2="82.5" y2="180.8"/>
			<line id="XMLID_545_" class="st5" x1="104.3" y1="188.9" x2="99.9" y2="191.3"/>
			<line id="XMLID_544_" class="st5" x1="60.9" y1="188.8" x2="65.3" y2="191.4"/>
			<line id="XMLID_542_" class="st5" x1="71.1" y1="179.4" x2="73.4" y2="183.4"/>
			<g id="XMLID_539_">
				<g id="XMLID_541_">
					<polygon class="st7" points="82.8,199.2 94,188.6 94.5,189.1 84.1,200.4 					"/>
				</g>
			</g>
			<g id="XMLID_535_">
				<line id="XMLID_538_" class="st5" x1="82.6" y1="166.3" x2="82.6" y2="171.8"/>
				<path id="XMLID_537_" class="st7" d="M87.7,168.7H77.4c-0.4,0-0.8-0.4-0.8-0.8v-4.3c0-0.4,0.4-0.8,0.8-0.8h10.4
					c0.4,0,0.8,0.4,0.8,0.8v4.3C88.5,168.3,88.2,168.7,87.7,168.7z"/>
				<path id="XMLID_536_" class="st5" d="M87.7,168.7H77.4c-0.4,0-0.8-0.4-0.8-0.8v-4.3c0-0.4,0.4-0.8,0.8-0.8h10.4
					c0.4,0,0.8,0.4,0.8,0.8v4.3C88.5,168.3,88.2,168.7,87.7,168.7z"/>
			</g>
			<g id="XMLID_530_">
				<line id="XMLID_533_" class="st5" x1="100.6" y1="172.1" x2="98.5" y2="175.7"/>
				<path id="XMLID_532_" class="st7" d="M103,175.5l-6.6-3.8c-0.4-0.2-0.5-0.7-0.3-1.1l1.5-2.5c0.2-0.4,0.7-0.5,1.1-0.3l6.6,3.8
					c0.4,0.2,0.5,0.7,0.3,1.1l-1.5,2.5C103.8,175.6,103.4,175.7,103,175.5z"/>
				<path id="XMLID_531_" class="st5" d="M103,175.5l-6.6-3.8c-0.4-0.2-0.5-0.7-0.3-1.1l1.5-2.5c0.2-0.4,0.7-0.5,1.1-0.3l6.6,3.8
					c0.4,0.2,0.5,0.7,0.3,1.1l-1.5,2.5C103.8,175.6,103.4,175.7,103,175.5z"/>
			</g>
			<g id="XMLID_526_">
				<line id="XMLID_529_" class="st5" x1="64.1" y1="172.1" x2="66.2" y2="175.7"/>
				<path id="XMLID_528_" class="st7" d="M61.8,175.5l6.6-3.8c0.4-0.2,0.5-0.7,0.3-1.1l-1.5-2.5c-0.2-0.4-0.7-0.5-1.1-0.3l-6.6,3.8
					c-0.4,0.2-0.5,0.7-0.3,1.1l1.5,2.5C60.9,175.6,61.4,175.7,61.8,175.5z"/>
				<path id="XMLID_527_" class="st5" d="M61.8,175.5l6.6-3.8c0.4-0.2,0.5-0.7,0.3-1.1l-1.5-2.5c-0.2-0.4-0.7-0.5-1.1-0.3l-6.6,3.8
					c-0.4,0.2-0.5,0.7-0.3,1.1l1.5,2.5C60.9,175.6,61.4,175.7,61.8,175.5z"/>
			</g>
		</g>
		<g id="XMLID_506_">
			<polygon id="XMLID_525_" class="st4" points="488.8,192.3 482.1,184.9 475.4,177.4 468.7,170 458.9,172.1 455.4,202.3 
				485.7,201.8 			"/>
			<polygon id="XMLID_524_" class="st8" points="465.6,179.5 468.7,170 459.1,172.5 			"/>
			<polygon id="XMLID_523_" class="st8" points="472.4,186.7 475.4,177.4 465.9,179.5 			"/>
			<polygon id="XMLID_522_" class="st8" points="479.1,194.5 481.8,185 472.6,187.4 			"/>
			<polygon id="XMLID_521_" class="st8" points="472.3,187 456.5,201.2 478.9,194.2 			"/>
			<polygon id="XMLID_520_" class="st7" points="459.2,172.4 459,172.6 455.9,201.2 465.3,179.2 			"/>
			<polygon id="XMLID_519_" class="st7" points="485.2,201.2 485.1,201.4 456.2,201.6 479.1,194.5 			"/>
			<polyline id="XMLID_518_" class="st5" points="483.5,186.4 475.4,177.4 468.7,170 458.9,172.1 455.4,202.3 485.7,201.8 
				488.8,192.3 486.9,190.1 			"/>
			<line id="XMLID_517_" class="st5" x1="486.2" y1="189.4" x2="484" y2="187"/>
			<line id="XMLID_516_" class="st5" x1="458.9" y1="172.1" x2="485.7" y2="201.8"/>
			<line id="XMLID_515_" class="st5" x1="455.4" y1="202.3" x2="465.6" y2="179.5"/>
			<line id="XMLID_514_" class="st5" x1="455.8" y1="201.9" x2="479.4" y2="194.1"/>
			<line id="XMLID_513_" class="st5" x1="472.3" y1="187" x2="455.8" y2="201.9"/>
			<line id="XMLID_512_" class="st5" x1="468.7" y1="170" x2="465.6" y2="179.5"/>
			<line id="XMLID_511_" class="st5" x1="475.4" y1="177.4" x2="472.3" y2="187"/>
			<line id="XMLID_510_" class="st5" x1="482.1" y1="184.9" x2="479" y2="194.4"/>
			<line id="XMLID_509_" class="st5" x1="488.8" y1="192.3" x2="479" y2="194.4"/>
			<line id="XMLID_508_" class="st5" x1="482.1" y1="184.9" x2="472.3" y2="187"/>
			<line id="XMLID_507_" class="st5" x1="475.4" y1="177.4" x2="465.6" y2="179.5"/>
		</g>
		<g id="XMLID_480_">
			<g id="XMLID_481_">
				<path id="XMLID_505_" class="st6" d="M427.3,201.8v-82.2c0-2.5-1.8-4.5-4-4.5h-58.9c-2.2,0-4,2-4,4.5v82.2L427.3,201.8z"/>
				<path id="XMLID_504_" class="st4" d="M360.4,125.5v-7c0-1.9,1.5-3.4,3.4-3.4h60.2c1.9,0,3.4,1.5,3.4,3.4v7H360.4z"/>
				<path id="XMLID_503_" class="st5" d="M365.3,115.1h58.6c1.9,0,3.4,1.5,3.4,3.4v83.8"/>
				<line id="XMLID_502_" class="st5" x1="364.8" y1="125.6" x2="427.3" y2="125.6"/>
				<line id="XMLID_501_" class="st5" x1="368.1" y1="120.9" x2="369.6" y2="120.9"/>
				<line id="XMLID_500_" class="st5" x1="372.6" y1="120.9" x2="374.2" y2="120.9"/>
				<line id="XMLID_499_" class="st5" x1="377.1" y1="120.9" x2="378.7" y2="120.9"/>
				<rect id="XMLID_498_" x="369.3" y="133.4" class="st8" width="49" height="19.3"/>
				<rect id="XMLID_497_" x="369.4" y="164.9" class="st8" width="14.9" height="19.3"/>
				<rect id="XMLID_489_" x="386.4" y="164.9" class="st4" width="14.9" height="19.3"/>
				<rect id="XMLID_488_" x="403.4" y="164.9" class="st7" width="14.9" height="19.3"/>
				<line id="XMLID_487_" class="st5" x1="383.4" y1="158.8" x2="404.2" y2="158.8"/>
				<path id="XMLID_485_" class="st7" d="M419.5,202v-1.5c0-1.5-1.2-2.7-2.7-2.7l-4.2,0c-0.5-2.2-1.4-4.2-2.5-6l3-3
					c1.1-1.1,1.1-2.8,0-3.8l-2.2-2.2c-1.1-1.1-2.8-1.1-3.8,0l-3,3c-1.8-1.2-3.9-2-6-2.5V179c0-1.5-1.2-2.7-2.7-2.7h-3.1
					c-1.5,0-2.7,1.2-2.7,2.7v4.2c-2.1,0.5-4.1,1.3-5.9,2.4l-2.9-3c-1.1-1.1-2.8-1.1-3.8,0l-2.2,2.2c-1.1,1-1.1,2.8,0,3.8l2.9,3
					c-1.2,1.8-2,3.8-2.5,6l-4.2,0c-1.5,0-2.7,1.2-2.7,2.7l0,1.7h17.1c0-4.7,3.8-8.6,8.6-8.6c4.7,0,8.6,3.8,8.6,8.6H419.5z"/>
				<path id="XMLID_482_" class="st5" d="M419.5,202v-1.5c0-1.5-1.2-2.7-2.7-2.7l-4.2,0c-0.5-2.2-1.4-4.2-2.5-6l3-3
					c1.1-1.1,1.1-2.8,0-3.8l-2.2-2.2c-1.1-1.1-2.8-1.1-3.8,0l-3,3c-1.8-1.2-3.9-2-6-2.5V179c0-1.5-1.2-2.7-2.7-2.7h-3.1
					c-1.5,0-2.7,1.2-2.7,2.7v4.2c-2.1,0.5-4.1,1.3-5.9,2.4l-2.9-3c-1.1-1.1-2.8-1.1-3.8,0l-2.2,2.2c-1.1,1-1.1,2.8,0,3.8l2.9,3
					c-1.2,1.8-2,3.8-2.5,6l-3,0 M385.3,202c0-4.7,3.8-8.6,8.6-8.6c4.7,0,8.6,3.8,8.6,8.6"/>
			</g>
		</g>
		<g>
			<path id="XMLID_479_" class="st7" d="M362.1,165.2h-138V89c0-3.2,2.6-5.8,5.8-5.8h126.3c3.2,0,5.8,2.6,5.8,5.8V165.2z"/>
			<path id="XMLID_478_" class="st5" d="M248.3,83.1h106.8c3.9,0,7.1,3.2,7.1,7.1v39.5"/>
			<line id="XMLID_477_" class="st5" x1="242.6" y1="83.1" x2="245.3" y2="83.1"/>
			<path id="XMLID_476_" class="st5" d="M224.1,109.6V90.2c0-3.9,3.2-7.1,7.1-7.1h8.8"/>
			<rect id="XMLID_475_" x="231.6" y="91.2" class="st6" width="123.2" height="64.8"/>
			<rect id="XMLID_474_" x="272.4" y="177.6" class="st4" width="41.6" height="24.6"/>
			<rect id="XMLID_473_" x="272.4" y="177.6" class="st8" width="41.6" height="12.3"/>
			<polyline id="XMLID_472_" class="st5" points="272.4,202.2 272.4,179.8 313.9,179.8 313.9,202.2 			"/>
			<path id="XMLID_470_" class="st6" d="M362.1,162.2h-138v16.6c0,1.1,0.9,2,2,2h134c1.1,0,2-0.9,2-2V162.2z"/>
			<line id="XMLID_469_" class="st5" x1="266.7" y1="180.8" x2="325.5" y2="180.8"/>
			<line id="XMLID_467_" class="st5" x1="325.5" y1="162.2" x2="266.7" y2="162.2"/>
			<rect id="XMLID_466_" x="240.3" y="95.7" class="st26" width="106.1" height="23.1"/>
			<rect id="XMLID_465_" x="240.3" y="122.4" class="st27" width="28.3" height="29.7"/>
			<rect id="XMLID_463_" x="279.3" y="122.3" class="st28" width="28.3" height="29.7"/>
			<rect id="XMLID_461_" x="318.2" y="122.2" class="st27" width="28.3" height="29.7"/>
			<line class="st5" x1="264.3" y1="202.2" x2="322.7" y2="202.2"/>
		</g>
		<path class="st9" d="M363.1,131.7h-33c-2.6,0-4.7,2.1-4.7,4.7v45.3h1.3v-0.9H361c1.3,0,2.3-1,2.3-2.3v-13.3v-3v-30.4
			C363.2,131.7,363.2,131.7,363.1,131.7z"/>
		<path class="st9" d="M370.8,202c1-0.9,1.7-2.1,1.7-3.6v-62c0-2.6-2.1-4.7-4.7-4.7h-8.5v70.1h7.7l0,0.2H370.8z"/>
		<g id="XMLID_449_">
			<path id="XMLID_457_" class="st4" d="M366,202.3h-34.1c-1.8,0-3.3-1.5-3.3-3.3v-63.1c0-1.8,1.5-3.3,3.3-3.3H366
				c1.8,0,3.3,1.5,3.3,3.3V199C369.2,200.8,367.8,202.3,366,202.3z"/>
			<path id="XMLID_456_" class="st5" d="M366,202.3h-34.1c-1.8,0-3.3-1.5-3.3-3.3v-63.1c0-1.8,1.5-3.3,3.3-3.3H366
				c1.8,0,3.3,1.5,3.3,3.3V199C369.2,200.8,367.8,202.3,366,202.3z"/>
			<rect id="XMLID_455_" x="332.3" y="142.8" class="st6" width="33.3" height="47.5"/>
			<line id="XMLID_454_" class="st5" x1="343.6" y1="139.2" x2="354.3" y2="139.2"/>
			<circle id="XMLID_453_" class="st5" cx="348.9" cy="195.8" r="2.9"/>
			<rect id="XMLID_452_" x="335" y="147" class="st26" width="27.8" height="12.8"/>
			<rect id="XMLID_451_" x="335" y="162.9" class="st27" width="12.2" height="24.6"/>
			<rect id="XMLID_450_" x="350.9" y="162.9" class="st28" width="12.2" height="24.6"/>
		</g>
		<g class="st23">
			<path class="st24" d="M91,173l0.3-0.8c-0.5-0.2-1.1-0.3-1.6-0.4v29.6h6.6h11.4h4.5C112.2,188,103.2,176.7,91,173z"/>
			<path class="st24" d="M96.1,172.5l2.5,1.4l-0.8,1.3l1.5,0.9l0.8-1.3l2.4,1.4c0.3,0.2,0.6,0.2,0.9,0.2c0.2,0,0.3,0,0.5-0.1
				c0.5-0.1,0.9-0.4,1.1-0.8l1.3-2.3c0.2-0.4,0.3-0.9,0.2-1.4c-0.1-0.5-0.4-0.9-0.8-1.1l-6.3-3.7c-0.9-0.5-2-0.2-2.5,0.7l-1.3,2.3
				C94.9,170.9,95.2,172,96.1,172.5z"/>
		</g>
		<g id="XMLID_393_">
			<g id="XMLID_394_">
				<path id="XMLID_446_" class="st6" d="M146.8,202.3v-60.5c0-2.3-1.4-4.1-3.1-4.1H97.2c-1.7,0-3.1,1.9-3.1,4.1v60.5L146.8,202.3z"
					/>
				<path id="XMLID_445_" class="st4" d="M94,145.8v-5.5c0-1.5,1.2-2.6,2.6-2.6h47.5c1.5,0,2.6,1.2,2.6,2.6v5.5H94z"/>
				<path id="XMLID_444_" class="st5" d="M94,202.1v-61.8c0-1.5,1.2-2.6,2.6-2.6h2.5h-1.5"/>
				<line id="XMLID_443_" class="st5" x1="103.9" y1="137.6" x2="140.5" y2="137.6"/>
				<line id="XMLID_425_" class="st5" x1="100.2" y1="137.6" x2="102.9" y2="137.6"/>
				<line id="XMLID_424_" class="st5" x1="94" y1="145.9" x2="140.5" y2="145.9"/>
				<line id="XMLID_417_" class="st5" x1="100.1" y1="142.2" x2="102.2" y2="142.2"/>
				<line id="XMLID_416_" class="st5" x1="105" y1="142.2" x2="107.1" y2="142.2"/>
				<line id="XMLID_415_" class="st5" x1="109.9" y1="142.2" x2="112" y2="142.2"/>
				<rect id="XMLID_413_" x="101.1" y="150.8" class="st4" width="38.7" height="51.4"/>
				<g id="XMLID_408_">
					<path id="XMLID_412_" class="st7" d="M100.4,189.1l-2.4-2.4c-0.3-0.3-0.3-0.7,0-1l21.2-21.2c0.3-0.3,0.7-0.3,1,0l2.4,2.4
						c0.3,0.3,0.3,0.7,0,1l-21.2,21.2C101.1,189.3,100.6,189.3,100.4,189.1z"/>
					<path id="XMLID_411_" class="st8" d="M98.6,187.3l-0.7-0.7c-0.3-0.3-0.3-0.7,0-1l21.2-21.2c0.3-0.3,0.7-0.3,1,0l0.7,0.7
						c0.3,0.3,0.3,0.7,0,1l-21.2,21.2C99.4,187.6,98.9,187.6,98.6,187.3z"/>
					<path id="XMLID_410_" class="st6" d="M122.5,166.8l-2.3-2.3c-0.3-0.3-0.8-0.3-1.1,0l-5.6,5.6l3.4,3.4l5.6-5.6
						C122.8,167.6,122.8,167.1,122.5,166.8z"/>
					<path id="XMLID_409_" class="st5" d="M100.4,189.1l-2.4-2.4c-0.3-0.3-0.3-0.7,0-1l21.2-21.2c0.3-0.3,0.7-0.3,1,0l2.4,2.4
						c0.3,0.3,0.3,0.7,0,1l-21.2,21.2C101.1,189.3,100.6,189.3,100.4,189.1z"/>
				</g>
				<line id="XMLID_407_" class="st5" x1="120.9" y1="154.7" x2="120.9" y2="160.2"/>
				<line id="XMLID_405_" class="st5" x1="126.9" y1="156.3" x2="124.2" y2="161"/>
				<line id="XMLID_403_" class="st5" x1="131.2" y1="160.6" x2="126.5" y2="163.4"/>
				<line id="XMLID_402_" class="st5" x1="132.8" y1="166.6" x2="127.4" y2="166.6"/>
				<line id="XMLID_400_" class="st5" x1="131.2" y1="172.5" x2="126.5" y2="169.8"/>
				<line id="XMLID_399_" class="st5" x1="126.9" y1="176.9" x2="124.2" y2="172.2"/>
				<line id="XMLID_398_" class="st5" x1="120.9" y1="178.5" x2="120.9" y2="173"/>
				<line id="XMLID_397_" class="st5" x1="109.1" y1="166.6" x2="114.5" y2="166.6"/>
				<line id="XMLID_396_" class="st5" x1="110.6" y1="160.7" x2="115.4" y2="163.4"/>
				<line id="XMLID_395_" class="st5" x1="115" y1="156.3" x2="117.7" y2="161"/>
			</g>
		</g>
		<g>
			<path class="st9" d="M226.5,180.8h40.2v0.9h1.7v-65.6c0-2.1-1.7-3.8-3.8-3.8h-11.4v0.9h-3.4v-0.9h-8.1v0.9h-5.2v-0.9h-12.4v49.9
				v3v13.3C224.1,179.8,225.2,180.8,226.5,180.8z"/>
			<path class="st29" d="M270.3,201.3h-6v1.7h2.1C267.9,202.9,269.2,202.3,270.3,201.3z"/>
		</g>
		<path class="st9" d="M146.8,145.8v-4v-1.5c0-1.5-1.2-2.6-2.6-2.6h-0.5h-0.2v54.1h-5.8l1,6c0.3,2,1.5,3.6,3.1,4.6l5,0V145.8z"/>
		<g>
			<path id="XMLID_392_" class="st7" d="M263,197.6H147.7c-0.6,0-1-0.4-1-1v-82.4c0-0.6,0.4-1,1-1H263c0.6,0,1,0.4,1,1v82.4
				C264,197.1,263.6,197.6,263,197.6z"/>
			<line id="XMLID_18_" class="st5" x1="238.2" y1="113.2" x2="246.3" y2="113.2"/>
			<path id="XMLID_17_" class="st5" d="M249.7,113.2h11.4c1.6,0,2.9,1.3,2.9,2.9v78.5c0,1.6-1.3,2.9-2.9,2.9H149.6
				c-1.6,0-2.9-1.3-2.9-2.9v-78.5c0-1.6,1.3-2.9,2.9-2.9H233"/>
			<rect id="XMLID_16_" x="152.4" y="119.8" class="st6" width="105.3" height="68.5"/>
			<path id="XMLID_13_" class="st4" d="M262,202.3H147.4c-2.8,0-5.1-2-5.5-4.7l-0.8-5h53.1l2,2.9h14.7l2.2-2.9H269l-0.7,4.3
				C267.8,200,265.1,202.3,262,202.3z"/>
			<path id="XMLID_293_" class="st5" d="M262,202.3H147.4c-2.8,0-5.1-2-5.5-4.7l-0.8-5h53.1l2,2.9h14.7l2.2-2.9H269l-0.7,4.3
				C267.8,200,265.1,202.3,262,202.3z"/>
			<g id="XMLID_172_" class="st30">
				<rect id="XMLID_288_" x="167.7" y="127.5" class="st10" width="11.3" height="1.5"/>
				<rect id="XMLID_282_" x="173.4" y="132.5" class="st7" width="7.8" height="1.5"/>
				<rect id="XMLID_281_" x="198.3" y="132.5" class="st10" width="54.1" height="1.5"/>
				
					<rect id="XMLID_280_" x="186.5" y="132.5" transform="matrix(-1 -1.224647e-16 1.224647e-16 -1 381.688 266.4789)" class="st10" width="8.7" height="1.5"/>
				<rect id="XMLID_226_" x="176" y="136.7" class="st8" width="15.5" height="1.5"/>
				<rect id="XMLID_225_" x="182.3" y="142.6" class="st7" width="19.6" height="1.5"/>
				<rect id="XMLID_224_" x="167.7" y="148.2" class="st10" width="21.4" height="1.5"/>
				
					<rect id="XMLID_223_" x="191.5" y="148.2" transform="matrix(-1 -1.224647e-16 1.224647e-16 -1 398.4577 297.9454)" class="st8" width="15.5" height="1.5"/>
				<rect id="XMLID_222_" x="173.4" y="153.8" class="st7" width="28.8" height="1.5"/>
				
					<rect id="XMLID_221_" x="213.9" y="153.8" transform="matrix(-1 -1.224647e-16 1.224647e-16 -1 446.8707 309.1224)" class="st10" width="19.1" height="1.5"/>
				<rect id="XMLID_220_" x="203.3" y="153.8" class="st10" width="9" height="1.5"/>
				<rect id="XMLID_219_" x="182.9" y="159.4" class="st10" width="25.2" height="1.5"/>
				
					<rect id="XMLID_212_" x="176" y="159.4" transform="matrix(-1 -1.224647e-16 1.224647e-16 -1 357.3038 320.2995)" class="st7" width="5.3" height="1.5"/>
				<rect id="XMLID_211_" x="167.7" y="163.5" class="st10" width="17.2" height="1.5"/>
				<rect id="XMLID_210_" x="186.2" y="163.5" class="st7" width="5.9" height="1.5"/>
				<rect id="XMLID_209_" x="193.8" y="163.5" class="st8" width="28.2" height="1.5"/>
				
					<rect id="XMLID_208_" x="224.1" y="163.5" transform="matrix(-1 -1.224647e-16 1.224647e-16 -1 473.6798 328.5088)" class="st10" width="25.4" height="1.5"/>
				<rect id="XMLID_207_" x="173.4" y="169.1" class="st10" width="8.9" height="1.5"/>
				
					<rect id="XMLID_206_" x="184.9" y="169.1" transform="matrix(-1 -1.224647e-16 1.224647e-16 -1 390.9552 339.6858)" class="st10" width="21.1" height="1.5"/>
				<rect id="XMLID_204_" x="178.2" y="174.7" class="st10" width="17.2" height="1.5"/>
				<rect id="XMLID_202_" x="198.9" y="174.7" class="st7" width="17.2" height="1.5"/>
				<rect id="XMLID_201_" x="218.8" y="174.7" class="st10" width="16.2" height="1.5"/>
				
					<rect id="XMLID_200_" x="246" y="142.6" transform="matrix(-1 -1.224647e-16 1.224647e-16 -1 496.8221 286.7684)" class="st10" width="4.8" height="1.5"/>
				<rect id="XMLID_199_" x="203.6" y="142.6" class="st10" width="40.2" height="1.5"/>
				<rect id="XMLID_192_" x="182.3" y="127.5" class="st10" width="45.7" height="1.5"/>
				<rect id="XMLID_191_" x="160.1" y="125.3" class="st10" width="2.4" height="2.4"/>
				<rect id="XMLID_190_" x="160.1" y="131.5" class="st10" width="2.4" height="2.4"/>
				<rect id="XMLID_188_" x="160.1" y="137.8" class="st10" width="2.4" height="2.4"/>
				<rect id="XMLID_187_" x="160.1" y="144" class="st10" width="2.4" height="2.4"/>
				<rect id="XMLID_185_" x="160.1" y="150.3" class="st10" width="2.4" height="2.4"/>
				<rect id="XMLID_179_" x="160.1" y="156.5" class="st10" width="2.4" height="2.4"/>
				<rect id="XMLID_177_" x="160.1" y="162.8" class="st10" width="2.4" height="2.4"/>
				<rect id="XMLID_176_" x="160.1" y="169" class="st10" width="2.4" height="2.4"/>
				<rect id="XMLID_175_" x="160.1" y="175.3" class="st10" width="2.4" height="2.4"/>
				<rect id="XMLID_173_" x="160.1" y="181.5" class="st10" width="2.4" height="2.4"/>
			</g>
		</g>
		<g id="XMLID_160_">
			<path id="XMLID_171_" class="st4" d="M211.1,68.3h-0.3c-1.3-4.4-5.3-7.6-10.1-7.6c-2.1,0-4,0.6-5.7,1.7
				c-1.1-6.9-7-12.1-14.2-12.1c-6.4,0-11.9,4.2-13.7,10.1c-0.8-0.2-1.7-0.3-2.6-0.3c-4.9,0-9,3.6-9.7,8.3h-1.6c-4,0-7.4,3.3-7.4,7.4
				v0.5c0,4,3.3,7.4,7.4,7.4h57.7c4,0,7.4-3.3,7.4-7.4v-0.5C218.5,71.6,215.2,68.3,211.1,68.3z"/>
			<path id="XMLID_170_" class="st6" d="M204.4,70.1h-0.3c-1.1-3.8-4.7-6.7-8.9-6.7c-1.8,0-3.5,0.5-5,1.5
				c-0.9-6.1-6.2-10.7-12.5-10.7c-5.7,0-10.5,3.7-12.1,8.9c-0.7-0.2-1.5-0.3-2.3-0.3c-4.3,0-7.9,3.2-8.6,7.3h-1.4
				c-3.6,0-6.5,2.9-6.5,6.5v0.5c0,3.6,2.9,6.5,6.5,6.5h50.9c3.6,0,6.5-2.9,6.5-6.5v-0.5C210.8,73,207.9,70.1,204.4,70.1z"/>
			<path id="XMLID_169_" class="st5" d="M190.3,61.2c-2.1-3.3-5.8-5.4-10-5.4c-2.2,0-4.3,0.6-6.1,1.7"/>
			<path id="XMLID_168_" class="st5" d="M202.3,83.5h8.8c4,0,7.4-3.3,7.4-7.4v-0.5c0-4-3.3-7.4-7.4-7.4h-0.3
				c-1.3-4.4-5.3-7.6-10.1-7.6c-2.1,0-4,0.6-5.7,1.7c-1.1-6.9-7-12.1-14.2-12.1c-4.4,0-8.3,2-11,5.1c-0.6,0.7-1.1,1.4-1.5,2.2
				c-0.5,0.9-0.9,1.8-1.2,2.7c-0.8-0.2-1.7-0.3-2.6-0.3c-4.9,0-9,3.6-9.7,8.3h-1.6c-4,0-7.4,3.3-7.4,7.4v0.5c0,4,3.3,7.4,7.4,7.4
				h8.4"/>
			<path id="XMLID_167_" class="st5" d="M164.9,59.9c2.8,0,5.1,2.3,5.1,5.1"/>
			<g id="XMLID_165_">
				<g id="XMLID_166_">
					<g>
						<path class="st5" d="M199.9,88.9c0,2.3-0.5,4.6-1.3,6.6c-0.9,2-2.1,3.9-3.6,5.4c-1.5,1.5-3.4,2.8-5.4,3.6
							c-2,0.9-4.3,1.3-6.6,1.3c-1.8,0-3.5-0.3-5.1-0.8"/>
						<g>
							<polygon class="st10" points="181.2,103.8 178.2,105.2 179.6,108.3 177.7,107.6 176.3,104.6 179.3,103.1 							"/>
						</g>
					</g>
				</g>
			</g>
			<g id="XMLID_163_">
				<g id="XMLID_164_">
					<g>
						<path class="st5" d="M167.2,95.5c-0.9-2-1.3-4.3-1.3-6.6c0-2.3,0.5-4.6,1.3-6.6c0.9-2,2.1-3.9,3.6-5.4
							c1.5-1.5,3.4-2.8,5.4-3.6c2-0.9,4.3-1.3,6.6-1.3c2.3,0,4.6,0.5,6.6,1.3c1.4,0.6,2.7,1.4,3.9,2.3"/>
						<g>
							<polygon class="st10" points="188.8,75.5 193,75.3 192.7,71.1 194.6,72.7 194.9,76.9 190.7,77.2 							"/>
						</g>
					</g>
				</g>
			</g>
			<circle id="XMLID_162_" class="st8" cx="182.3" cy="88.9" r="9.2"/>
			<circle id="XMLID_161_" class="st5" cx="182.3" cy="88.9" r="9.2"/>
		</g>
		<g id="XMLID_26_">
			<g id="XMLID_30_">
				<path id="XMLID_158_" class="st6" d="M378.5,73.9v22h2.8v3.7v7c0,0.4,0.5,0.6,0.7,0.3l9.2-11H419v-22H378.5z"/>
				<path id="XMLID_153_" class="st5" d="M378.5,89.4v6.5h2.8v3.7v7c0,0.4,0.5,0.6,0.7,0.3l9.2-11H419v-22h-10.4"/>
				<line id="XMLID_148_" class="st5" x1="406.4" y1="78.9" x2="414" y2="78.9"/>
				<line id="XMLID_144_" class="st5" x1="403.1" y1="84.7" x2="414" y2="84.7"/>
				<line id="XMLID_143_" class="st5" x1="396.7" y1="90.6" x2="414" y2="90.6"/>
				<path id="XMLID_139_" class="st8" d="M371.4,88.4l9.4-1.7c2.2,1,4.7,1.6,7.3,1.6c9.9,0,17.9-8,17.9-17.9c0-9.9-8-17.9-17.9-17.9
					c-9.9,0-17.9,8-17.9,17.9c0,3.5,1,6.7,2.7,9.5L371.4,88.4z"/>
				<path id="XMLID_133_" class="st5" d="M371.4,88.4l9.4-1.7c2.2,1,4.7,1.6,7.3,1.6c9.9,0,17.9-8,17.9-17.9c0-9.9-8-17.9-17.9-17.9
					c-9.9,0-17.9,8-17.9,17.9c0,3.5,1,6.7,2.7,9.5L371.4,88.4z"/>
				<ellipse id="XMLID_132_" class="st6" cx="388.1" cy="70.4" rx="13.5" ry="13.8"/>
				<circle id="XMLID_131_" class="st8" cx="396.7" cy="70.9" r="2.2"/>
				<circle id="XMLID_130_" class="st8" cx="387.8" cy="70.9" r="2.2"/>
				<circle id="XMLID_129_" class="st8" cx="378.8" cy="70.9" r="2.2"/>
				<circle id="XMLID_128_" class="st5" cx="396.7" cy="70.9" r="2.2"/>
				<circle id="XMLID_127_" class="st5" cx="387.8" cy="70.9" r="2.2"/>
				<circle id="XMLID_122_" class="st5" cx="378.8" cy="70.9" r="2.2"/>
			</g>
		</g>
		<line id="XMLID_174_" class="st5" x1="15.5" y1="202.3" x2="525.5" y2="202.3"/>
	</g>
</g>
<g id="Layer_4">
	<path class="st13" d="M285.2,112.1h-27.3c-5.2,0-9.4-4.2-9.4-9.4v-3c0-5.2,4.2-9.4,9.4-9.4h27.3c5.2,0,9.4,4.2,9.4,9.4v3
		C294.6,107.9,290.4,112.1,285.2,112.1z"/>
	<path class="st13" d="M285.2,148.7h-27.3c-5.2,0-9.4-4.2-9.4-9.4v-3c0-5.2,4.2-9.4,9.4-9.4h27.3c5.2,0,9.4,4.2,9.4,9.4v3
		C294.6,144.5,290.4,148.7,285.2,148.7z"/>
	<path class="st13" d="M95.7,48.7h335.6c7.2,0,13,5.8,13,13l0,0c0,5.8-4.7,10.5-10.6,10.5h-25.3c-3.5,0-6.4,2.9-6.4,6.4V82
		c0,3.5,2.9,6.4,6.4,6.4h62.2c5.8,0,10.6,4.7,10.6,10.6l0,0c0,5.8-4.7,10.5-10.5,10.6L373,110c-3.5,0-6.4,2.9-6.4,6.4v1.6
		c0,3.6,2.9,6.4,6.4,6.4l57.6-0.4c5.9,0,10.6,4.7,10.6,10.6l0,2.5c0,5.8-4.7,10.5-10.6,10.5h-76.5c-3.5,0-6.4,2.9-6.4,6.4v6.1
		c0,3.5,2.8,6.4,6.3,6.4L483,168c9.1,0.1,16.4,7.5,16.4,16.6v0c0,9.2-7.4,16.6-16.6,16.6H63.5c-11,0-19.9-8.9-19.9-19.9l0,0
		c0-11,9-19.9,20-19.9l43.1,0.2c3.5,0,6.4-2.9,6.4-6.4v-3c0-3.5-2.9-6.4-6.4-6.4H75.5c-5.8,0-10.6-4.7-10.6-10.6v-0.8
		c0-5.8,4.7-10.6,10.6-10.6h89.7c3.5,0,6.4-2.9,6.4-6.4l0,0c0-3.5-2.9-6.4-6.4-6.4h-60.9c-5.8,0-10.6-4.7-10.6-10.6v-2.2
		c0-5.8,4.7-10.6,10.6-10.6h69c3.5,0,6.4-2.9,6.4-6.4v-5.3c0-3.5-2.9-6.4-6.4-6.4H95.7c-5.8,0-10.6-4.7-10.6-10.6v0
		C85.2,53.4,89.9,48.7,95.7,48.7z"/>
	<path id="XMLID_421_" class="st7" d="M276.1,48.7c-3.1,0.8-3.8,1.5-4.6,4.6c-0.8-3.1-1.5-3.8-4.6-4.6c3.1-0.8,3.8-1.5,4.6-4.6
		C272.3,47.2,273,47.9,276.1,48.7z"/>
	<circle id="XMLID_584_" class="st7" cx="271.5" cy="53.3" r="1.2"/>
	<circle id="XMLID_420_" class="st7" cx="271.5" cy="44.1" r="1.2"/>
	<circle id="XMLID_419_" class="st7" cx="271.5" cy="81.1" r="1.2"/>
	<circle id="XMLID_418_" class="st7" cx="271.5" cy="115.7" r="1.2"/>
	<circle id="XMLID_414_" class="st7" cx="271.5" cy="131.8" r="1.2"/>
	<circle id="XMLID_406_" class="st7" cx="271.5" cy="57.1" r="2.3"/>
	<circle id="XMLID_404_" class="st7" cx="271.5" cy="148.7" r="1.6"/>
	<circle id="XMLID_401_" class="st7" cx="271.5" cy="61.7" r="1.9"/>
	<path id="XMLID_330_" class="st7" d="M274.5,77.6c-2,0.5-2.4,1-3,3c-0.5-2-1-2.4-3-3c2-0.5,2.4-1,3-3
		C272,76.6,272.5,77.1,274.5,77.6z"/>
	<path id="XMLID_329_" class="st7" d="M273.8,77.6c-1.5,0.4-1.8,0.7-2.2,2.2c-0.4-1.5-0.7-1.8-2.2-2.2c1.5-0.4,1.8-0.7,2.2-2.2
		C271.9,76.9,272.2,77.2,273.8,77.6z"/>
	<path id="XMLID_325_" class="st7" d="M273.8,37.6c-1.5,0.4-1.8,0.7-2.2,2.2c-0.4-1.5-0.7-1.8-2.2-2.2c1.5-0.4,1.8-0.7,2.2-2.2
		C271.9,36.8,272.2,37.2,273.8,37.6z"/>
	<path id="XMLID_324_" class="st7" d="M274.6,52.6c-2.1,0.5-2.5,1-3,3c-0.5-2.1-1-2.5-3-3c2.1-0.5,2.5-1,3-3
		C272.1,51.6,272.5,52,274.6,52.6z"/>
	<path id="XMLID_323_" class="st7" d="M275.2,119.3c-2.5,0.7-3,1.2-3.7,3.7c-0.7-2.5-1.2-3-3.7-3.7c2.5-0.7,3-1.2,3.7-3.7
		C272.2,118.1,272.7,118.7,275.2,119.3z"/>
	<path id="XMLID_322_" class="st7" d="M275.2,82.2c-2.5,0.7-3,1.2-3.7,3.7c-0.7-2.5-1.2-3-3.7-3.7c2.5-0.7,3-1.2,3.7-3.7
		C272.2,81,272.7,81.5,275.2,82.2z"/>
	<path id="XMLID_321_" class="st7" d="M275.3,132.7c-2.6,0.7-3.1,1.2-3.8,3.8c-0.7-2.6-1.2-3.1-3.8-3.8c2.6-0.7,3.1-1.2,3.8-3.8
		C272.2,131.4,272.7,132,275.3,132.7z"/>
	<g>
		<g id="XMLID_310_">
			<path id="XMLID_320_" class="st7" d="M328.1,166.5H205.9c-1.2,0-2.3-1-2.3-2.3V95.3c0-2.3,1.9-4.2,4.2-4.2h118.3
				c2.3,0,4.2,1.9,4.2,4.2v68.9C330.4,165.5,329.3,166.5,328.1,166.5z"/>
			<path id="XMLID_319_" class="st5" d="M317.2,91.1h8.3c2.7,0,4.9,2.2,4.9,4.9v31.8"/>
			<path id="XMLID_318_" class="st5" d="M216.5,91.1h-8.3c-2.7,0-4.9,2.2-4.9,4.9v34.2"/>
			<rect id="XMLID_317_" x="210.5" y="98.5" class="st6" width="113.1" height="59.5"/>
			<rect id="XMLID_316_" x="247.9" y="177.9" class="st4" width="38.2" height="22.6"/>
			<rect id="XMLID_315_" x="247.9" y="177.9" class="st8" width="38.2" height="11.3"/>
			<rect id="XMLID_314_" x="247.9" y="177.9" class="st5" width="38.2" height="22.6"/>
			<path id="XMLID_313_" class="st6" d="M330.4,163.7H203.6v9.9c0,4,3.2,7.2,7.2,7.2h112.4c4,0,7.2-3.2,7.2-7.2V163.7z"/>
			<path id="XMLID_312_" class="st5" d="M308.3,163.7H203.6v8.8c0,4.6,3.7,8.3,8.3,8.3h96.1"/>
			<line id="XMLID_311_" class="st5" x1="240.5" y1="200.9" x2="294" y2="200.9"/>
		</g>
		<polygon class="st9" points="315.7,91.1 219.4,91.1 222.9,157.7 312.2,157.7 		"/>
		<g id="XMLID_295_">
			<g id="XMLID_296_">
				<path id="XMLID_309_" class="st6" d="M312.2,157.7V60.1c0-2.9-2.4-5.3-5.3-5.3h-78.7c-2.9,0-5.3,2.4-5.3,5.3v97.6L312.2,157.7z"
					/>
				<path id="XMLID_308_" class="st4" d="M222.9,68.6v-9.3c0-2.5,2-4.5,4.5-4.5h80.4c2.5,0,4.5,2,4.5,4.5v9.3H222.9z"/>
				<path id="XMLID_307_" class="st5" d="M222.9,157.4V59.3c0-2.5,2-4.5,4.5-4.5h9.4h2.5"/>
				<path id="XMLID_306_" class="st5" d="M254.8,54.8h53c2.5,0,4.5,2,4.5,4.5v91.1"/>
				<line id="XMLID_305_" class="st5" x1="243.6" y1="54.8" x2="249.7" y2="54.8"/>
				<line id="XMLID_304_" class="st5" x1="222.9" y1="68.9" x2="312.2" y2="68.9"/>
				<line id="XMLID_303_" class="st5" x1="233.2" y1="62.5" x2="235.6" y2="62.5"/>
				<line id="XMLID_302_" class="st5" x1="240.3" y1="62.5" x2="242.7" y2="62.5"/>
				<line id="XMLID_301_" class="st5" x1="247.4" y1="62.5" x2="249.8" y2="62.5"/>
				<rect id="XMLID_300_" x="229.9" y="128.3" class="st8" width="19.9" height="25.8"/>
				<rect id="XMLID_299_" x="257.6" y="128.3" class="st4" width="19.9" height="25.8"/>
				<rect id="XMLID_298_" x="285.6" y="128.3" class="st7" width="19.9" height="25.8"/>
				<line id="XMLID_297_" class="st5" x1="253.7" y1="123.6" x2="281.5" y2="123.6"/>
				<rect x="229.9" y="77" class="st4" width="75.6" height="42.3"/>
				<polygon class="st7" points="305.5,91.3 302.2,91.3 297.4,94.5 291.4,94.5 286.8,94.5 283.5,99.1 277.5,103.4 265.7,103.6 
					262.5,101.1 256.5,104.1 244.8,104.1 233.2,114.7 229.9,114.7 229.9,119.3 305.5,119.3 				"/>
				<polyline class="st5" points="229.9,114.7 233.2,114.7 244.8,104.1 256.5,104.1 262.5,101.1 265.7,103.6 277.5,103.4 
					283.5,99.1 286.8,94.5 291.4,94.5 297.4,94.5 302.2,91.3 305.5,91.3 				"/>
			</g>
		</g>
		<g id="XMLID_494_">
			<g id="XMLID_269_">
				<line id="XMLID_292_" class="st5" x1="389" y1="91.2" x2="393.4" y2="95.7"/>
				<path id="XMLID_276_" class="st4" d="M368.1,70.4c-5.9,5.9-5.9,15.5,0,21.4c5.9,5.9,15.5,5.9,21.4,0c5.9-5.9,5.9-15.5,0-21.4
					C383.6,64.5,374,64.5,368.1,70.4z M386.9,89.2c-4.5,4.5-11.8,4.5-16.2,0c-4.5-4.5-4.5-11.8,0-16.2c4.5-4.5,11.8-4.5,16.2,0
					C391.4,77.5,391.4,84.7,386.9,89.2z"/>
				
					<ellipse id="XMLID_275_" transform="matrix(0.7071 -0.7071 0.7071 0.7071 53.6107 291.6263)" class="st5" cx="378.8" cy="81.1" rx="15.1" ry="15.1"/>
				<path id="XMLID_274_" class="st5" d="M371,75.3c4.1-4.1,10.6-4.1,14.7,0"/>
				
					<rect id="XMLID_273_" x="396.2" y="91.4" transform="matrix(0.7071 -0.7071 0.7071 0.7071 45.1872 311.9631)" class="st8" width="6" height="20"/>
				<path id="XMLID_272_" class="st5" d="M401.1,99.2l-6.9-6.9l-4.2,4.2l13.1,13.1c0.6,0.6,1.6,0.6,2.2,0l2.1-2.1
					c0.6-0.6,0.6-1.6,0-2.2l-0.9-0.9l-1.1-1.1"/>
				<line id="XMLID_271_" class="st5" x1="404.4" y1="102.5" x2="402.2" y2="100.3"/>
				<line id="XMLID_270_" class="st5" x1="392.9" y1="99.6" x2="397.3" y2="95.2"/>
			</g>
			<line id="XMLID_268_" class="st5" x1="354.1" y1="70.6" x2="363.5" y2="70.6"/>
			<line id="XMLID_267_" class="st5" x1="354.1" y1="75.8" x2="361.6" y2="75.8"/>
			<line id="XMLID_266_" class="st5" x1="342.8" y1="81" x2="361.6" y2="81"/>
			<line id="XMLID_265_" class="st5" x1="342.6" y1="86.2" x2="361.6" y2="86.2"/>
			<line id="XMLID_264_" class="st5" x1="342.6" y1="91.4" x2="363.5" y2="91.4"/>
			<line id="XMLID_496_" class="st5" x1="342.6" y1="96.6" x2="370.1" y2="96.6"/>
			<text id="XMLID_495_" transform="matrix(1 0 0 1 343.8182 77.2197)" class="st10 st31 st32">A</text>
		</g>
		<g class="st23">
			<path class="st24" d="M239.2,134.9c0-1.7-1.4-3.1-3.1-3.1h-32.5v31h-0.9v9.7c0,5.1,4.1,9.2,9.2,9.2h27.3V134.9z"/>
			<path class="st24" d="M240.9,200.1h-0.4v0.4C240.6,200.3,240.8,200.2,240.9,200.1z"/>
		</g>
		<g id="XMLID_782_">
			<g id="XMLID_783_">
				<path id="XMLID_802_" class="st7" d="M235,197.3h-87.9c-0.6,0-1-0.4-1-1v-62.7c0-0.6,0.4-1,1-1H235c0.6,0,1,0.4,1,1v62.7
					C236,196.9,235.6,197.3,235,197.3z"/>
				<line id="XMLID_801_" class="st5" x1="156.5" y1="132.7" x2="161.5" y2="132.7"/>
				<path id="XMLID_800_" class="st5" d="M164,132.7h69.9c1.2,0,2.2,1,2.2,2.2v60.2c0,1.2-1,2.2-2.2,2.2h-85.5c-1.2,0-2.2-1-2.2-2.2
					v-60.2c0-1.2,1-2.2,2.2-2.2h5.4"/>
				<rect id="XMLID_799_" x="150.5" y="137.8" class="st6" width="80.7" height="52.5"/>
				<path id="XMLID_798_" class="st6" d="M234.5,200.9h-87.8c-2.1,0-3.9-1.5-4.2-3.6l-0.6-3.8h40.7l1.6,2.2h11.2l1.7-2.2h42.9
					l-0.5,3.3C238.9,199.2,236.9,200.9,234.5,200.9z"/>
				<path id="XMLID_797_" class="st5" d="M234.5,200.9h-87.8c-2.1,0-3.9-1.5-4.2-3.6l-0.6-3.8h40.7l1.6,2.2h11.2l1.7-2.2h42.9
					l-0.5,3.3C238.9,199.2,236.9,200.9,234.5,200.9z"/>
				<g id="XMLID_784_">
					<polygon id="XMLID_796_" class="st7" points="209,146.5 197.2,146.5 185.4,146.5 173.6,146.5 167.7,156.7 191.3,183.6 
						214.9,156.7 					"/>
					<polygon id="XMLID_795_" class="st5" points="209,146.5 197.2,146.5 185.4,146.5 173.6,146.5 167.7,156.7 191.3,183.6 
						214.9,156.7 					"/>
					<line id="XMLID_794_" class="st5" x1="167.7" y1="156.7" x2="214.9" y2="156.7"/>
					<line id="XMLID_793_" class="st5" x1="191.3" y1="183.6" x2="179.5" y2="156.7"/>
					<line id="XMLID_792_" class="st5" x1="191.3" y1="182.9" x2="203.1" y2="156.1"/>
					<line id="XMLID_791_" class="st5" x1="191.3" y1="156.7" x2="191.3" y2="182.9"/>
					<line id="XMLID_790_" class="st5" x1="173.6" y1="146.5" x2="179.5" y2="156.7"/>
					<line id="XMLID_789_" class="st5" x1="185.4" y1="146.5" x2="191.3" y2="156.7"/>
					<line id="XMLID_788_" class="st5" x1="197.2" y1="146.5" x2="203.1" y2="156.7"/>
					<line id="XMLID_787_" class="st5" x1="209" y1="146.5" x2="203.1" y2="156.7"/>
					<line id="XMLID_786_" class="st5" x1="197.2" y1="146.5" x2="191.3" y2="156.7"/>
					<line id="XMLID_785_" class="st5" x1="185.4" y1="146.5" x2="179.5" y2="156.7"/>
				</g>
			</g>
		</g>
		<g class="st23">
			<path class="st24" d="M319.5,152.3h-0.3h-1.1h-0.3h-10.3H306l-4.2,8.7h5.8v20.7h0.5v-0.9H322c4.6,0,8.3-3.7,8.3-8.3v-8.6v-0.1
				v-11.4H319.5z"/>
			<path class="st24" d="M325.9,138.2l2.8,2.8c-1.1,1.8-1.8,3.7-2.4,5.7l-3.9,0c-1,0-2,0.4-2.7,1.1c-0.7,0.7-1.1,1.7-1.1,2.7l0,1.8
				l0.9,0h0l0.9,0l0,0h10.2v-23.1c-0.8,0.1-1.5,0.5-2,1.1l-2.5,2.4c-0.7,0.7-1.1,1.7-1.1,2.7C324.7,136.5,325.1,137.4,325.9,138.2z"
				/>
		</g>
		<g id="XMLID_250_">
			<path id="XMLID_262_" class="st6" d="M378.5,152.3v-1.7c0-1.6-1.3-3-3-3l-4.6,0c-0.5-2.4-1.5-4.7-2.8-6.7l3.3-3.3
				c1.2-1.2,1.2-3.1,0-4.2L369,131c-1.2-1.2-3.1-1.2-4.2,0l-3.3,3.3c-2-1.3-4.3-2.2-6.7-2.8v-4.6c0-1.7-1.3-3-3-3h-3.5
				c-1.7,0-3,1.3-3,3v4.6c-2.4,0.5-4.6,1.5-6.6,2.7l-3.3-3.3c-1.2-1.2-3.1-1.2-4.2,0l-2.5,2.4c-1.2,1.2-1.2,3.1,0,4.2l3.3,3.3
				c-1.3,2-2.2,4.3-2.8,6.7l-4.6,0c-1.7,0-3,1.3-3,3l0,1.8h19c0-5.2,4.3-9.5,9.5-9.5c5.2,0,9.5,4.2,9.5,9.5H378.5z"/>
			<path id="XMLID_259_" class="st5" d="M378.5,152.3v-1.7c0-1.6-1.3-3-3-3l-4.6,0c-0.5-2.4-1.5-4.7-2.8-6.7l3.3-3.3
				c1.2-1.2,1.2-3.1,0-4.2L369,131c-1.2-1.2-3.1-1.2-4.2,0l-3.3,3.3c-2-1.3-4.3-2.2-6.7-2.8v-4.6c0-1.7-1.3-3-3-3h-3.5
				c-1.7,0-3,1.3-3,3v4.6c-2.4,0.5-4.6,1.5-6.6,2.7l-3.3-3.3c-1.2-1.2-3.1-1.2-4.2,0l-2.5,2.4c-1.2,1.2-1.2,3.1,0,4.2l3.3,3.3
				c-1.3,2-2.2,4.3-2.8,6.7l-4.6,0c-1.7,0-3,1.3-3,3l0,1.8 M340.6,152.3c0-5.2,4.3-9.5,9.5-9.5c5.2,0,9.5,4.2,9.5,9.5"/>
			
				<rect id="XMLID_258_" x="310.7" y="153.2" transform="matrix(-1 -1.224647e-16 1.224647e-16 -1 631.734 354.1216)" class="st7" width="10.3" height="47.7"/>
			<path id="XMLID_257_" class="st5" d="M312.6,200.9h8.4v-47.7h-10.3v45.9C310.7,200.1,311.6,200.9,312.6,200.9z"/>
			<polygon id="XMLID_256_" class="st4" points="305.5,160.1 315.8,160.1 319.1,153.2 308.8,153.2 			"/>
			<polygon id="XMLID_255_" class="st5" points="305.5,160.1 315.8,160.1 319.1,153.2 308.8,153.2 			"/>
			<rect id="XMLID_254_" x="321" y="153.2" class="st8" width="61.9" height="47.7"/>
			<path id="XMLID_253_" class="st5" d="M382.9,192.6v4.2c0,2.2-1.8,4.1-4.1,4.1H321v-47.7h61.9v22.7"/>
			<polygon id="XMLID_252_" class="st4" points="388.2,160.1 326.2,160.1 322.9,153.2 384.9,153.2 			"/>
			<polygon id="XMLID_251_" class="st5" points="388.2,160.1 326.2,160.1 322.9,153.2 384.9,153.2 			"/>
		</g>
		<g>
			<g id="XMLID_608_">
				<path id="XMLID_621_" class="st6" d="M96.2,167.8v-6.2H98c0.7,0,1.2-0.6,1.2-1.2v-2.8c0-0.7-0.6-1.2-1.2-1.2H84.4
					c-0.7,0-1.2,0.6-1.2,1.2v2.8c0,0.7,0.6,1.2,1.2,1.2h1.8v6.2c-7.6,2.3-12.9,9.8-11.8,18.3c0.9,7.7,7.2,13.8,14.8,14.7
					c10.2,1.1,18.9-6.8,18.9-16.8C108.2,176.4,103.1,169.9,96.2,167.8z"/>
				<circle id="XMLID_620_" class="st4" cx="91.1" cy="184.1" r="13.6"/>
				<g id="XMLID_612_">
					<circle id="XMLID_619_" class="st5" cx="91.1" cy="184.1" r="10.9"/>
					<path id="XMLID_618_" class="st5" d="M94.9,173.9c1.6,2.7,2.7,6.2,2.7,10.2c0,4-1,7.6-2.7,10.2"/>
					<path id="XMLID_617_" class="st5" d="M87.6,173.9c-1.6,2.7-2.7,6.2-2.7,10.2c0,4,1,7.6,2.7,10.2"/>
					<line id="XMLID_616_" class="st5" x1="91.1" y1="173.2" x2="91.1" y2="195"/>
					<line id="XMLID_615_" class="st5" x1="80.2" y1="184.1" x2="102" y2="184.1"/>
					<line id="XMLID_614_" class="st5" x1="81.9" y1="178.9" x2="100.7" y2="178.9"/>
					<line id="XMLID_613_" class="st5" x1="81.5" y1="189.3" x2="100.5" y2="189.3"/>
				</g>
				<line id="XMLID_611_" class="st5" x1="92.2" y1="161.7" x2="96.3" y2="161.7"/>
				<path id="XMLID_610_" class="st5" d="M106.1,192c0.2-0.4,0.4-0.8,0.6-1.3"/>
				<path id="XMLID_609_" class="st5" d="M107.7,188c0.3-1.3,0.5-2.6,0.5-4c0-7.6-5-14.1-11.9-16.2v-6.2H98c0.7,0,1.2-0.6,1.2-1.2
					v-2.8c0-0.7-0.6-1.2-1.2-1.2H84.4c-0.7,0-1.2,0.6-1.2,1.2v2.8c0,0.7,0.6,1.2,1.2,1.2h1.8v6.2c-7.6,2.3-12.9,9.8-11.8,18.3
					c0.9,7.7,7.2,13.8,14.8,14.7c6.3,0.7,12.1-2.1,15.5-6.7"/>
			</g>
			<path class="st5" d="M91.2,154.3v-0.9c0-2.8-2.2-5-5-5h-1.7c-1.4,0-2.5-1.1-2.5-2.5l0,0c0-1.4,1.1-2.5,2.5-2.5h19.3
				c1.4,0,2.5-1.1,2.5-2.5v-0.5c0-1.4-1.1-2.5-2.5-2.5H92.4"/>
			<line class="st5" x1="77.5" y1="138.1" x2="90.5" y2="138.1"/>
			<line class="st5" x1="84.8" y1="134.5" x2="97.8" y2="134.5"/>
		</g>
		<g>
			<g id="XMLID_248_">
				<path id="XMLID_249_" class="st7" d="M48.4,187.8c-0.1-0.6-0.1-0.9-0.1-1.3c0-0.1,0-0.2,0-0.4c0-2,0.4-4,1.2-5.9
					c0.8-1.8,1.8-3.4,3.2-4.8c0.1-0.1,0.2-0.2,0.2-0.2c0.3-0.3,0.4-0.4,0.8-0.7l2.5,3.2c-0.2,0.2-0.2,0.2-0.3,0.3
					c-0.1,0.1-0.2,0.2-0.3,0.3c-1,1-1.8,2.2-2.4,3.5c-0.6,1.4-0.9,2.8-0.9,4.3c0,0.2,0,0.4,0,0.5c0,0.2,0,0.2,0,0.5L48.4,187.8z"/>
			</g>
			<g id="XMLID_246_">
				<path id="XMLID_247_" class="st4" d="M63.4,201.2c-2,0-4-0.4-5.9-1.2c-1.8-0.8-3.4-1.8-4.8-3.2c-1.4-1.4-2.5-3-3.2-4.8
					c-0.2-0.5-0.4-1-0.6-1.6l3.9-1.2c0.1,0.4,0.3,0.8,0.4,1.2c0.6,1.3,1.3,2.5,2.4,3.5c1,1,2.2,1.8,3.5,2.4c2.7,1.1,5.9,1.1,8.6,0
					c1.3-0.6,2.5-1.3,3.5-2.4c1-1,1.8-2.2,2.4-3.5l3.8,1.6c-0.8,1.8-1.8,3.4-3.2,4.8c-1.4,1.4-3,2.5-4.8,3.2
					C67.4,200.8,65.4,201.2,63.4,201.2z"/>
			</g>
			<g id="XMLID_244_">
				<path id="XMLID_245_" class="st8" d="M78.1,189.2l-4-0.8c0.2-0.7,0.2-1.5,0.2-2.3c0-1.5-0.3-2.9-0.9-4.3
					c-0.6-1.3-1.3-2.5-2.4-3.5c-1-1-2.2-1.8-3.5-2.4c-2.7-1.1-5.9-1.1-8.6,0c-0.2,0.1-0.3,0.1-0.4,0.2c-0.2,0.1-0.2,0.1-0.4,0.2
					l-2.1-3.5c0.5-0.3,0.7-0.4,1-0.5c0.1,0,0.2-0.1,0.3-0.1c3.7-1.6,8-1.6,11.7,0c1.8,0.8,3.4,1.8,4.8,3.2c1.4,1.4,2.5,3,3.2,4.8
					c0.8,1.9,1.2,3.8,1.2,5.9C78.5,187.2,78.4,188.2,78.1,189.2z"/>
			</g>
			<g id="XMLID_242_">
				<path id="XMLID_243_" class="st5" d="M48.9,187.7c-0.3,0-0.5-0.2-0.5-0.4c0-0.3,0-0.5,0-0.8c0-0.1,0-0.2,0-0.4
					c0-2.9,0.8-5.7,2.4-8.2c0.6-0.9,1.3-1.8,2.1-2.5c0.1-0.1,0.1-0.1,0.2-0.2c0.2-0.2,0.3-0.3,0.4-0.4c0.2-0.2,0.5-0.1,0.7,0.1
					l1.9,2.5c0.1,0.2,0.1,0.5,0,0.6c-0.1,0.1-0.3,0.3-0.3,0.3c-1,1-1.8,2.2-2.4,3.5c-0.6,1.4-0.9,2.8-0.9,4.3c0,0.2,0,0.4,0,0.5
					c0,0.2,0,0.2,0,0.5L48.9,187.7z"/>
			</g>
			<g id="XMLID_240_">
				<path id="XMLID_241_" class="st5" d="M63.4,201.2c-2,0-4-0.4-5.9-1.2c-1.8-0.8-3.4-1.8-4.8-3.2c-1.4-1.4-2.5-3-3.2-4.8
					c-0.2-0.4-0.3-0.8-0.4-1.2c-0.1-0.2,0.1-0.5,0.3-0.5l3.1-0.9c0.2-0.1,0.4,0.1,0.5,0.3c0.1,0.3,0.2,0.5,0.3,0.8
					c0.6,1.3,1.3,2.5,2.4,3.5c1.5,1.5,3.4,2.5,5.5,3c1.5,0.3,3,0.3,4.5,0c2.1-0.5,4-1.5,5.5-3c0.9-0.9,1.6-2,2.2-3.1
					c0.1-0.2,0.3-0.3,0.6-0.2l2.9,1.2c0.2,0.1,0.3,0.4,0.2,0.6c-0.7,1.6-1.8,3.1-3,4.4c-1.4,1.4-3,2.5-4.8,3.2
					C67.4,200.8,65.4,201.2,63.4,201.2z"/>
			</g>
			<g id="XMLID_237_">
				<path id="XMLID_239_" class="st5" d="M69.3,172.2c1.8,0.8,3.4,1.8,4.8,3.2c1.4,1.4,2.5,3,3.2,4.8c0.8,1.9,1.2,3.8,1.2,5.9
					c0,0.9-0.1,1.8-0.2,2.7c0,0.2-0.3,0.4-0.5,0.3l-3.1-0.7c-0.2,0-0.4-0.3-0.3-0.5c0.1-0.6,0.2-1.2,0.2-1.9c0-1.5-0.3-2.9-0.9-4.3
					c-0.6-1.3-1.3-2.5-2.4-3.5c-1-1-2.2-1.8-3.5-2.4c-2.7-1.1-5.9-1.1-8.6,0c-0.1,0-0.3,0.1-0.5,0.2c-0.2,0.1-0.4,0-0.5-0.2
					l-1.7-2.8c-0.1-0.2-0.1-0.5,0.2-0.6c0.2-0.1,0.4-0.2,0.6-0.3c0.1,0,0.1,0,0.2-0.1c1.8-0.7,3.8-1.2,5.7-1.2"/>
				<path id="XMLID_238_" class="st5" d="M66,171.3c0.6,0.1,1.2,0.3,1.8,0.5"/>
			</g>
			<rect id="XMLID_236_" x="56.3" y="185.7" class="st4" width="3.1" height="6.1"/>
			<rect id="XMLID_235_" x="61.5" y="183.3" class="st4" width="3.1" height="8.5"/>
			<rect id="XMLID_234_" x="66.8" y="179.8" class="st4" width="3.1" height="12"/>
			<rect id="XMLID_233_" x="56.3" y="185.7" class="st5" width="3.1" height="6.1"/>
			<rect id="XMLID_232_" x="61.5" y="183.3" class="st5" width="3.1" height="8.5"/>
			<rect id="XMLID_231_" x="66.8" y="179.8" class="st5" width="3.1" height="12"/>
		</g>
		<g id="XMLID_710_">
			<path id="XMLID_732_" class="st6" d="M187.9,105h-40.1c-1.1,0-2-0.9-2-2V75c0-1.1,0.9-2,2-2h40.1c1.1,0,2,0.9,2,2V103
				C190,104.1,189.1,105,187.9,105z"/>
			<path id="XMLID_731_" class="st4" d="M145.9,79.8v-4.6c0-1.2,1-2.2,2.2-2.2h39.7c1.2,0,2.2,1,2.2,2.2v4.6H145.9z"/>
			<path id="XMLID_730_" class="st5" d="M145.9,82.2v-7c0-1.2,1-2.2,2.2-2.2h4.6h18.7"/>
			<path id="XMLID_729_" class="st5" d="M180.2,73h7.6c1.2,0,2.2,1,2.2,2.2v27.5c0,1.2-1,2.2-2.2,2.2h-39.7c-1.2,0-2.2-1-2.2-2.2
				v-3.7"/>
			<line id="XMLID_728_" class="st5" x1="174.9" y1="73" x2="178.8" y2="73"/>
			<line id="XMLID_727_" class="st5" x1="145.9" y1="79.9" x2="190" y2="79.9"/>
			<line id="XMLID_726_" class="st5" x1="150.9" y1="76.8" x2="152.7" y2="76.8"/>
			<line id="XMLID_725_" class="st5" x1="155" y1="76.8" x2="156.8" y2="76.8"/>
			<line id="XMLID_724_" class="st5" x1="159.1" y1="76.8" x2="160.9" y2="76.8"/>
			<path id="XMLID_719_" class="st4" d="M146.7,97.6h-1.2c-1.3,0-2.4-1.1-2.4-2.4v-8.8c0-1.3,1.1-2.4,2.4-2.4h1.2
				c1.3,0,2.4,1.1,2.4,2.4v8.8C149.1,96.5,148,97.6,146.7,97.6z"/>
			<path id="XMLID_718_" class="st5" d="M146.7,97.6h-1.2c-1.3,0-2.4-1.1-2.4-2.4v-8.8c0-1.3,1.1-2.4,2.4-2.4h1.2
				c1.3,0,2.4,1.1,2.4,2.4v8.8C149.1,96.5,148,97.6,146.7,97.6z"/>
			<path id="XMLID_717_" class="st5" d="M141,93.1H140c-1,0-1.9-0.9-1.9-1.9v-0.9c0-1,0.9-1.9,1.9-1.9h0.9c1,0,1.9,0.9,1.9,1.9v0.9
				C142.9,92.3,142,93.1,141,93.1z"/>
			<line id="XMLID_716_" class="st5" x1="149.1" y1="90.8" x2="171.9" y2="90.8"/>
			<line id="XMLID_230_" class="st5" x1="169" y1="90.7" x2="169" y2="95.6"/>
			<line id="XMLID_712_" class="st5" x1="165" y1="90.7" x2="165" y2="94.1"/>
			<line id="XMLID_711_" class="st5" x1="146" y1="87.4" x2="146" y2="93.6"/>
		</g>
		<path class="st9" d="M150.6,200.9h0.9h1.7h0.9h0.9c0-4.8-1.5-9.3-4-13.1h2.5v0.9h1.1c2,0,3.6-1.6,3.6-3.6v-32.2
			c0-2-1.6-3.6-3.6-3.6h-8.2v0.9h-1.1v42.5h-4.4l0.8,4.8c0.2,1.5,1.1,2.7,2.3,3.5h5.9H150.6z"/>
		<g id="XMLID_628_">
			<path id="XMLID_667_" class="st6" d="M153,187.9h-48c-1.1,0-2-0.9-2-2v-33.7c0-1.1,0.9-2,2-2h48c1.1,0,2,0.9,2,2v33.7
				C155,187,154.1,187.9,153,187.9z"/>
			<path id="XMLID_666_" class="st4" d="M103,158.2v-5.4c0-1.4,1.2-2.6,2.6-2.6h46.8c1.4,0,2.6,1.2,2.6,2.6v5.4H103z"/>
			<line id="XMLID_665_" class="st5" x1="103" y1="158.3" x2="155" y2="158.3"/>
			<line id="XMLID_664_" class="st5" x1="108.9" y1="154.6" x2="111" y2="154.6"/>
			<line id="XMLID_663_" class="st5" x1="113.8" y1="154.6" x2="115.8" y2="154.6"/>
			<line id="XMLID_662_" class="st5" x1="118.6" y1="154.6" x2="120.7" y2="154.6"/>
			<path id="XMLID_660_" class="st5" d="M144,150.2h8.2c1.5,0,2.8,1.2,2.8,2.8v32.2c0,1.5-1.2,2.8-2.8,2.8h-1.1"/>
			<line id="XMLID_659_" class="st5" x1="134.3" y1="150.2" x2="140.8" y2="150.2"/>
			<path id="XMLID_658_" class="st5" d="M106.5,187.9h-0.8c-1.5,0-2.8-1.2-2.8-2.8v-32.2c0-1.5,1.2-2.8,2.8-2.8H133"/>
			<path id="XMLID_657_" class="st7" d="M151.7,200.9c0-12.5-10.2-22.7-22.7-22.7c-12.5,0-22.7,10.2-22.7,22.7H151.7z"/>
			<path id="XMLID_656_" class="st5" d="M151.7,200.9c0-12.5-10.2-22.7-22.7-22.7c-12.5,0-22.7,10.2-22.7,22.7"/>
			<path id="XMLID_652_" class="st4" d="M148.2,200.9c0-10.6-8.6-19.2-19.2-19.2c-10.6,0-19.2,8.6-19.2,19.2H148.2z"/>
			<path id="XMLID_651_" class="st6" d="M139.5,200.9c0-5.8-4.7-10.5-10.5-10.5c-5.8,0-10.5,4.7-10.5,10.5H139.5z"/>
			<path id="XMLID_650_" class="st7" d="M131.4,200.9c0-1.3-1.1-2.4-2.4-2.4c-1.3,0-2.4,1.1-2.4,2.4H131.4z"/>
			<path id="XMLID_649_" class="st5" d="M148.2,200.9c0-10.6-8.6-19.2-19.2-19.2c-10.6,0-19.2,8.6-19.2,19.2"/>
			<line id="XMLID_648_" class="st5" x1="129" y1="181.4" x2="129" y2="185.1"/>
			<line id="XMLID_647_" class="st5" x1="137.9" y1="184.1" x2="136" y2="187.1"/>
			<line id="XMLID_646_" class="st5" x1="145.7" y1="191.3" x2="142.3" y2="193.2"/>
			<line id="XMLID_645_" class="st5" x1="112.4" y1="191.3" x2="115.7" y2="193.3"/>
			<line id="XMLID_644_" class="st5" x1="120.2" y1="184.1" x2="122" y2="187.2"/>
			<g id="XMLID_641_">
				<g id="XMLID_229_">
					<polygon class="st7" points="129.1,199.1 137.8,191.1 138.2,191.6 130.3,200.3 					"/>
				</g>
			</g>
			<g id="XMLID_637_">
				<line id="XMLID_640_" class="st5" x1="129" y1="174" x2="129" y2="178.2"/>
				<path id="XMLID_639_" class="st7" d="M132.8,175.8h-7.6c-0.4,0-0.8-0.4-0.8-0.8v-2.9c0-0.4,0.4-0.8,0.8-0.8h7.6
					c0.4,0,0.8,0.4,0.8,0.8v2.9C133.6,175.5,133.2,175.8,132.8,175.8z"/>
				<path id="XMLID_638_" class="st5" d="M132.8,175.8h-7.6c-0.4,0-0.8-0.4-0.8-0.8v-2.9c0-0.4,0.4-0.8,0.8-0.8h7.6
					c0.4,0,0.8,0.4,0.8,0.8v2.9C133.6,175.5,133.2,175.8,132.8,175.8z"/>
			</g>
			<g id="XMLID_633_">
				<line id="XMLID_636_" class="st5" x1="142.9" y1="178.5" x2="141.2" y2="181.3"/>
				<path id="XMLID_635_" class="st7" d="M144.5,181l-4.7-2.7c-0.4-0.2-0.5-0.7-0.3-1.1l0.9-1.6c0.2-0.4,0.7-0.5,1.1-0.3l4.7,2.7
					c0.4,0.2,0.5,0.7,0.3,1.1l-0.9,1.6C145.4,181.1,144.9,181.2,144.5,181z"/>
				<path id="XMLID_634_" class="st5" d="M144.5,181l-4.7-2.7c-0.4-0.2-0.5-0.7-0.3-1.1l0.9-1.6c0.2-0.4,0.7-0.5,1.1-0.3l4.7,2.7
					c0.4,0.2,0.5,0.7,0.3,1.1l-0.9,1.6C145.4,181.1,144.9,181.2,144.5,181z"/>
			</g>
			<g id="XMLID_629_">
				<line id="XMLID_632_" class="st5" x1="114.9" y1="178.5" x2="116.5" y2="181.3"/>
				<path id="XMLID_631_" class="st7" d="M113.2,181l4.7-2.7c0.4-0.2,0.5-0.7,0.3-1.1l-0.9-1.6c-0.2-0.4-0.7-0.5-1.1-0.3l-4.7,2.7
					c-0.4,0.2-0.5,0.7-0.3,1.1l0.9,1.6C112.3,181.1,112.8,181.2,113.2,181z"/>
				<path id="XMLID_630_" class="st5" d="M113.2,181l4.7-2.7c0.4-0.2,0.5-0.7,0.3-1.1l-0.9-1.6c-0.2-0.4-0.7-0.5-1.1-0.3l-4.7,2.7
					c-0.4,0.2-0.5,0.7-0.3,1.1l0.9,1.6C112.3,181.1,112.8,181.2,113.2,181z"/>
			</g>
		</g>
		<g id="XMLID_326_">
			<g id="XMLID_327_">
				<path id="XMLID_228_" class="st6" d="M402.3,200.9h56.6V134c0-1.2-1-2.2-2.2-2.2h-52.1c-1.2,0-2.2,1-2.2,2.2V200.9z"/>
				<path id="XMLID_227_" class="st5" d="M414.3,131.8h-7.1c-2.7,0-4.9,2.2-4.9,4.9v54.2"/>
				<line id="XMLID_218_" class="st5" x1="427.2" y1="131.8" x2="419" y2="131.8"/>
				<path id="XMLID_217_" class="st5" d="M458.8,190.9v-54.2c0-2.7-2.2-4.9-4.9-4.9h-24.6"/>
				<rect id="XMLID_216_" x="406.9" y="142.2" class="st4" width="47.2" height="58.8"/>
				<line id="XMLID_215_" class="st5" x1="424.5" y1="138" x2="436.6" y2="138"/>
				<path id="XMLID_213_" class="st7" d="M462,200.9v-1.9c0-1.8-1.5-3.3-3.3-3.3l-5.1,0c-0.6-2.7-1.7-5.1-3.1-7.4l3.6-3.6
					c1.3-1.3,1.3-3.4,0-4.7l-2.7-2.7c-1.3-1.3-3.4-1.3-4.7,0l-3.6,3.6c-2.2-1.4-4.7-2.5-7.4-3.1v-5.1c0-1.8-1.5-3.3-3.3-3.3h-3.8
					c-1.8,0-3.3,1.5-3.3,3.3v5.1c-2.6,0.6-5.1,1.6-7.3,3l-3.6-3.6c-1.3-1.3-3.4-1.3-4.7,0l-2.7,2.7c-1.3,1.3-1.3,3.4,0,4.7l3.6,3.6
					c-1.4,2.2-2.5,4.7-3.1,7.4l-5.1,0c-1.8,0-3.3,1.5-3.3,3.3l0,2h21c0-5.8,4.7-10.5,10.5-10.5c5.8,0,10.5,4.7,10.5,10.5H462z"/>
				<path id="XMLID_328_" class="st5" d="M462,200.9v-1.9c0-1.8-1.5-3.3-3.3-3.3l-5.1,0c-0.6-2.7-1.7-5.1-3.1-7.4l3.6-3.6
					c1.3-1.3,1.3-3.4,0-4.7l-2.7-2.7c-1.3-1.3-3.4-1.3-4.7,0l-3.6,3.6c-2.2-1.4-4.7-2.5-7.4-3.1v-5.1c0-1.8-1.5-3.3-3.3-3.3h-3.8
					c-1.8,0-3.3,1.5-3.3,3.3v5.1c-2.6,0.6-5.1,1.6-7.3,3l-3.6-3.6c-1.3-1.3-3.4-1.3-4.7,0l-2.7,2.7c-1.3,1.3-1.3,3.4,0,4.7l3.6,3.6
					c-1.4,2.2-2.5,4.7-3.1,7.4l-5.1,0c-1.8,0-3.3,1.5-3.3,3.3l0,2 M420.1,200.9c0-5.8,4.7-10.5,10.5-10.5c5.8,0,10.5,4.7,10.5,10.5"
					/>
			</g>
		</g>
		<path class="st9" d="M382.9,200.9v-1.3c0.5-0.8,0.9-1.8,0.9-2.8v-4.2h-0.9v-16.7h0.9v-11.6h-2.2v-0.9h-1.8v0.9h-4.1v-0.9H369
			c-1.9,0-3.4,1.5-3.4,3.4v31.5c0,1.9,1.5,3.4,3.4,3.4h9.9c1,0,2-0.3,2.8-0.9H382.9z"/>
		<path class="st9" d="M422.5,198.4v-31.5c0-1.9-1.5-3.4-3.4-3.4h-17.7v27.4h0.9v3.8c-1.1,0-2,0.4-2.8,1.2c-0.8,0.8-1.2,1.8-1.2,3
			l0,2l1.7,0l0,0h2.3h4.7h12.2h0.9h0.9h0.4C422,200.3,422.5,199.4,422.5,198.4z"/>
		<g id="XMLID_808_">
			<path id="XMLID_827_" class="st6" d="M417.3,200.9h-46.5c-1.1,0-2-0.9-2-2v-32.5c0-1.1,0.9-2,2-2h46.5c1.1,0,2,0.9,2,2v32.5
				C419.3,200,418.4,200.9,417.3,200.9z"/>
			<path id="XMLID_826_" class="st4" d="M368.8,172.1v-5.3c0-1.4,1.1-2.5,2.5-2.5h45.4c1.4,0,2.5,1.1,2.5,2.5v5.3H368.8z"/>
			<path id="XMLID_825_" class="st5" d="M386.8,164.3h30c1.4,0,2.5,1.1,2.5,2.5v31.5c0,1.4-1.1,2.5-2.5,2.5h-45.4
				c-1.4,0-2.5-1.1-2.5-2.5v-31.5c0-1.4,1.1-2.5,2.5-2.5h5.3h1.4"/>
			<line id="XMLID_824_" class="st5" x1="382.1" y1="164.3" x2="383.9" y2="164.3"/>
			<line id="XMLID_823_" class="st5" x1="368.8" y1="172.3" x2="419.3" y2="172.3"/>
			<line id="XMLID_822_" class="st5" x1="374.6" y1="168.7" x2="376.6" y2="168.7"/>
			<line id="XMLID_821_" class="st5" x1="379.3" y1="168.7" x2="381.3" y2="168.7"/>
			<line id="XMLID_820_" class="st5" x1="383.9" y1="168.7" x2="386" y2="168.7"/>
			<path id="XMLID_814_" class="st4" d="M410.1,196.2H378c-0.9,0-1.6-0.7-1.6-1.6v-16.9c0-0.9,0.7-1.6,1.6-1.6h32.1
				c0.9,0,1.6,0.7,1.6,1.6v16.9C411.7,195.5,411,196.2,410.1,196.2z"/>
			<path id="XMLID_813_" class="st5" d="M410.1,196.2H378c-0.9,0-1.6-0.7-1.6-1.6v-16.9c0-0.9,0.7-1.6,1.6-1.6h32.1
				c0.9,0,1.6,0.7,1.6,1.6v16.9C411.7,195.5,411,196.2,410.1,196.2z"/>
			<path id="XMLID_812_" class="st7" d="M397.1,184.7l-5.6,3.3c-0.4,0.2-0.8-0.1-0.8-0.5V181c0-0.4,0.4-0.7,0.8-0.5l5.6,3.3
				C397.5,184,397.5,184.5,397.1,184.7z"/>
			<path id="XMLID_811_" class="st5" d="M397.1,184.7l-5.6,3.3c-0.4,0.2-0.8-0.1-0.8-0.5V181c0-0.4,0.4-0.7,0.8-0.5l5.6,3.3
				C397.5,184,397.5,184.5,397.1,184.7z"/>
			<line id="XMLID_810_" class="st5" x1="380.3" y1="191.8" x2="407.4" y2="191.8"/>
			<line id="XMLID_809_" class="st5" x1="386.3" y1="194" x2="386.3" y2="189.7"/>
		</g>
		<line id="XMLID_157_" class="st5" x1="17.5" y1="200.9" x2="525.5" y2="200.9"/>
		<g>
			<g id="XMLID_606_">
				<path id="XMLID_607_" class="st7" d="M464.6,178.4h4.1v-8.2c0-4.1,3.4-7.5,7.5-7.5c4.1,0,7.5,3.4,7.5,7.5v8.2h4.1v-8.2
					c0-6.4-5.2-11.5-11.5-11.5c-6.4,0-11.5,5.2-11.5,11.5V178.4z"/>
			</g>
			<g id="XMLID_604_">
				<path id="XMLID_605_" class="st5" d="M464.6,178.4h4.1v-8.2c0-4.1,3.4-7.5,7.5-7.5c4.1,0,7.5,3.4,7.5,7.5v8.2h4.1v-8.2
					c0-6.4-5.2-11.5-11.5-11.5c-6.4,0-11.5,5.2-11.5,11.5V178.4z"/>
			</g>
			<circle id="XMLID_597_" class="st6" cx="476.2" cy="186" r="14.9"/>
			<circle id="XMLID_596_" class="st8" cx="476.2" cy="186" r="8.5"/>
			<circle id="XMLID_595_" class="st7" cx="476.2" cy="186" r="3.5"/>
			<circle id="XMLID_594_" class="st10" cx="476.2" cy="186" r="1.3"/>
			<circle id="XMLID_593_" class="st5" cx="476.2" cy="186" r="3.5"/>
			<path id="XMLID_592_" class="st5" d="M464.6,195.4c2.7,3.4,6.9,5.5,11.6,5.5c8.2,0,14.9-6.7,14.9-14.9c0-8.2-6.7-14.9-14.9-14.9
				c-8.2,0-14.9,6.7-14.9,14.9c0,1.6,0.3,3.2,0.7,4.6"/>
			<path id="XMLID_591_" class="st5" d="M463.1,193.1c0.2,0.3,0.4,0.7,0.6,1"/>
			<line id="XMLID_590_" class="st5" x1="476.1" y1="179.4" x2="476.1" y2="181.3"/>
			<line id="XMLID_589_" class="st5" x1="472.8" y1="180.3" x2="473.8" y2="182"/>
			<line id="XMLID_588_" class="st5" x1="470.5" y1="182.8" x2="472.1" y2="183.7"/>
			<line id="XMLID_587_" class="st5" x1="469.6" y1="186.1" x2="471.5" y2="186.1"/>
			<line id="XMLID_586_" class="st5" x1="470.5" y1="189.4" x2="472.2" y2="188.4"/>
			<line id="XMLID_585_" class="st5" x1="472.9" y1="191.8" x2="473.9" y2="190.1"/>
			<line id="XMLID_154_" class="st5" x1="476.2" y1="192.6" x2="476.2" y2="190.7"/>
			<line id="XMLID_583_" class="st5" x1="479.5" y1="191.7" x2="478.6" y2="190"/>
			<line id="XMLID_582_" class="st5" x1="481.9" y1="189.3" x2="480.3" y2="188.3"/>
			<line id="XMLID_581_" class="st5" x1="482.8" y1="186" x2="480.9" y2="186"/>
			<line id="XMLID_580_" class="st5" x1="481.9" y1="182.7" x2="480.2" y2="183.6"/>
			<line id="XMLID_149_" class="st5" x1="479.5" y1="180.3" x2="478.5" y2="181.9"/>
		</g>
	</g>
</g>
</svg>
