<?xml version="1.0" encoding="utf-8"?>
<!-- Generator: Adobe Illustrator 21.1.0, SVG Export Plug-In . SVG Version: 6.00 Build 0)  -->
<svg version="1.1" xmlns="http://www.w3.org/2000/svg" xmlns:xlink="http://www.w3.org/1999/xlink" x="0px" y="0px"
	 viewBox="0 0 536.4 220.8" style="enable-background:new 0 0 536.4 220.8;" xml:space="preserve">
<style type="text/css">
	.st0{fill:#EDF6FC;}
	.st1{fill:#5FB0E5;}
	.st2{fill:#D2E9F7;}
	.st3{fill:none;stroke:#0686D8;stroke-width:1.5;stroke-miterlimit:10;}
	.st4{fill:#FFFFFF;}
	.st5{fill:#9ECFEF;}
	.st6{opacity:0.3;fill:#0565A2;}
	.st7{fill:#0686D8;}
	.st8{fill:#DBEDF9;}
	.st9{fill:#E4F2FA;}
	.st10{fill:#F6FBFD;}
	.st11{fill:#B1D9F2;}
	.st12{fill:#C5E2F5;}
	.st13{fill:#D8ECF9;}
	.st14{fill:#ECF5FC;}
	.st15{fill:#7FC0EA;}
	.st16{fill:#9FD0EF;}
	.st17{fill:#BFDFF5;}
	.st18{fill:#DFEFFA;}
	.st19{opacity:0.3;}
	.st20{fill:#0565A2;}
	.st21{fill:#FFFFFE;}
</style>
<g id="Layer_2">
	<path class="st0" d="M392.3,113.3L392.3,113.3c0,3.4,2.8,6.2,6.2,6.2h25.6c2.7,0,4.9,2.2,4.9,4.9v0c0,2.7-2.2,4.9-4.9,4.9h-9.3
		c-3.4,0-6.2,2.8-6.2,6.2v0.3c0,3.4,2.8,6.2,6.2,6.2h77.7c3.4,0,6.2-2.8,6.2-6.2v-0.3c0-3.4-2.8-6.2-6.2-6.2h-28.7
		c-2.7,0-4.9-2.2-4.9-4.9v0c0-2.7,2.2-4.9,4.9-4.9h9.2c3.4,0,6.2-2.8,6.2-6.2l0,0c0-3.4-2.8-6.2-6.2-6.2h-74.6
		C395.1,107.1,392.3,109.9,392.3,113.3z"/>
	<path class="st0" d="M224.9,70.5L224.9,70.5c0,3.4,2.8,6.2,6.2,6.2h25.6c2.7,0,4.9,2.2,4.9,4.9l0,0c0,2.7-2.2,4.9-4.9,4.9h-9.3
		c-3.4,0-6.2,2.8-6.2,6.2V93c0,3.4,2.8,6.2,6.2,6.2h77.7c3.4,0,6.2-2.8,6.2-6.2v-0.3c0-3.4-2.8-6.2-6.2-6.2h-28.7
		c-2.7,0-4.9-2.2-4.9-4.9l0,0c0-2.7,2.2-4.9,4.9-4.9h9.2c3.4,0,6.2-2.8,6.2-6.2l0,0c0-3.4-2.8-6.2-6.2-6.2H231
		C227.6,64.3,224.9,67.1,224.9,70.5z"/>
	<path class="st0" d="M23.9,159.3L23.9,159.3c0,3.4,2.8,6.2,6.2,6.2h25.6c2.7,0,4.9,2.2,4.9,4.9l0,0c0,2.7-2.2,4.9-4.9,4.9h-9.3
		c-3.4,0-6.2,2.8-6.2,6.2v0.3c0,3.4,2.8,6.2,6.2,6.2h77.7c3.4,0,6.2-2.8,6.2-6.2v-0.3c0-3.4-2.8-6.2-6.2-6.2H95.5
		c-2.7,0-4.9-2.2-4.9-4.9l0,0c0-2.7,2.2-4.9,4.9-4.9h9.2c3.4,0,6.2-2.8,6.2-6.2l0,0c0-3.4-2.8-6.2-6.2-6.2H30.1
		C26.7,153.1,23.9,155.9,23.9,159.3z"/>
	<path class="st0" d="M95.2,119.3L95.2,119.3c0,3.4,2.8,6.2,6.2,6.2H127c2.7,0,4.9,2.2,4.9,4.9l0,0c0,2.7-2.2,4.9-4.9,4.9h-9.3
		c-3.4,0-6.2,2.8-6.2,6.2v0.3c0,3.4,2.8,6.2,6.2,6.2h77.7c3.4,0,6.2-2.8,6.2-6.2v-0.3c0-3.4-2.8-6.2-6.2-6.2h-28.7
		c-2.7,0-4.9-2.2-4.9-4.9l0,0c0-2.7,2.2-4.9,4.9-4.9h9.2c3.4,0,6.2-2.8,6.2-6.2l0,0c0-3.4-2.8-6.2-6.2-6.2h-74.6
		C97.9,113.1,95.2,115.8,95.2,119.3z"/>
	<circle id="XMLID_91_" class="st1" cx="121.9" cy="96.8" r="2.1"/>
	<circle id="XMLID_88_" class="st1" cx="351.6" cy="49.3" r="1.2"/>
	<circle id="XMLID_86_" class="st1" cx="174" cy="36.1" r="1.2"/>
	<circle id="XMLID_34_" class="st1" cx="485.5" cy="103.7" r="1.6"/>
	<circle id="XMLID_85_" class="st1" cx="394" cy="38.3" r="2.2"/>
	<circle id="XMLID_83_" class="st1" cx="51.4" cy="135.3" r="1.9"/>
	<circle id="XMLID_71_" class="st1" cx="432.7" cy="61.3" r="2.4"/>
	<circle id="XMLID_70_" class="st1" cx="29.3" cy="184.1" r="1.7"/>
	<circle id="XMLID_33_" class="st1" cx="259.6" cy="33.7" r="2.3"/>
	<path id="XMLID_68_" class="st1" d="M85.3,138.2c-2.1,0.6-2.6,1-3.1,3.1c-0.6-2.1-1-2.6-3.1-3.1c2.1-0.6,2.6-1,3.1-3.1
		C82.7,137.1,83.2,137.6,85.3,138.2z"/>
	<path id="XMLID_66_" class="st1" d="M88.6,87c-1.6,0.4-1.9,0.8-2.3,2.3c-0.4-1.6-0.8-1.9-2.3-2.3c1.6-0.4,1.9-0.8,2.3-2.3
		C86.7,86.2,87,86.5,88.6,87z"/>
	<path id="XMLID_65_" class="st1" d="M221.7,53.3c-2.1,0.6-2.6,1-3.1,3.1c-0.6-2.1-1-2.6-3.1-3.1c2.1-0.6,2.6-1,3.1-3.1
		C219.1,52.3,219.6,52.7,221.7,53.3z"/>
	<path id="XMLID_47_" class="st1" d="M500.8,182.8c-2,0.5-2.4,0.9-2.9,2.9c-0.5-2-0.9-2.4-2.9-2.9c2-0.5,2.4-0.9,2.9-2.9
		C498.4,181.8,498.8,182.2,500.8,182.8z"/>
	<path id="XMLID_35_" class="st1" d="M300.2,38.3c-2,0.5-2.4,0.9-2.9,2.9c-0.5-2-0.9-2.4-2.9-2.9c2-0.5,2.4-0.9,2.9-2.9
		C297.8,37.3,298.2,37.8,300.2,38.3z"/>
	<path id="XMLID_46_" class="st1" d="M454.2,87.8c-2.6,0.7-3.1,1.2-3.8,3.8c-0.7-2.6-1.2-3.1-3.8-3.8c2.6-0.7,3.1-1.2,3.8-3.8
		C451.1,86.6,451.6,87.1,454.2,87.8z"/>
	<path id="XMLID_45_" class="st1" d="M345.8,69.9c-3.2,0.9-3.9,1.6-4.8,4.8c-0.9-3.2-1.6-3.9-4.8-4.8c3.2-0.9,3.9-1.6,4.8-4.8
		C341.8,68.4,342.5,69.1,345.8,69.9z"/>
	<path id="XMLID_43_" class="st1" d="M121,53.3c-2.7,0.7-3.3,1.3-4,4c-0.7-2.7-1.3-3.3-4-4c2.7-0.7,3.3-1.3,4-4
		C117.8,52,118.3,52.6,121,53.3z"/>
	<path class="st0" d="M506.3,168.5h-29c-2.8,0-5.1-2.3-5.1-5.1v-2.2c0-2.8,2.3-5.1,5.1-5.1h29c2.8,0,5.1,2.3,5.1,5.1v2.2
		C511.4,166.2,509.1,168.5,506.3,168.5z"/>
	<path class="st0" d="M71.6,125.1H35.7c-3.4,0-6.2-2.8-6.2-6.2l0,0c0-3.4,2.8-6.2,6.2-6.2h35.8c3.4,0,6.2,2.8,6.2,6.2l0,0
		C77.8,122.3,75,125.1,71.6,125.1z"/>
</g>
<g id="Layer_1">
	<g>
		<g id="XMLID_378_">
			<path id="XMLID_391_" class="st2" d="M177.3,89.3v115.3c0,0.4-0.4,0.8-0.8,0.8h-10.3c-0.4,0-0.8-0.4-0.8-0.8V89.3
				c0-0.4,0.4-0.8,0.8-0.8h10.3C177,88.5,177.3,88.9,177.3,89.3z"/>
			<path id="XMLID_390_" class="st3" d="M177.3,89.3v115.3c0,0.4-0.4,0.8-0.8,0.8h-10.3c-0.4,0-0.8-0.4-0.8-0.8V89.3
				c0-0.4,0.4-0.8,0.8-0.8h10.3C177,88.5,177.3,88.9,177.3,89.3z"/>
			<line id="XMLID_389_" class="st3" x1="165.4" y1="195.8" x2="172.3" y2="195.8"/>
			<line id="XMLID_388_" class="st3" x1="165.4" y1="185.8" x2="172.3" y2="185.8"/>
			<line id="XMLID_387_" class="st3" x1="165.4" y1="175.8" x2="172.3" y2="175.8"/>
			<line id="XMLID_386_" class="st3" x1="165.4" y1="165.8" x2="172.3" y2="165.8"/>
			<line id="XMLID_385_" class="st3" x1="165.4" y1="155.8" x2="172.3" y2="155.8"/>
			<line id="XMLID_384_" class="st3" x1="165.4" y1="145.8" x2="172.3" y2="145.8"/>
			<line id="XMLID_383_" class="st3" x1="165.4" y1="135.8" x2="172.3" y2="135.8"/>
			<line id="XMLID_382_" class="st3" x1="165.4" y1="125.8" x2="172.3" y2="125.8"/>
			<line id="XMLID_381_" class="st3" x1="165.4" y1="116" x2="172.3" y2="116"/>
			<line id="XMLID_380_" class="st3" x1="165.4" y1="106.1" x2="172.3" y2="106.1"/>
			<line id="XMLID_379_" class="st3" x1="165.4" y1="96.3" x2="172.3" y2="96.3"/>
		</g>
		<g id="XMLID_373_">
			<path id="XMLID_377_" class="st4" d="M35.2,205.4h-5c-0.4,0-0.7-0.3-0.7-0.7v-71.7c0-0.1,0-0.2,0.1-0.3l2.5-5.4
				c0.2-0.5,1-0.5,1.2,0l2.5,5.4c0,0.1,0.1,0.2,0.1,0.3v71.7C35.9,205.1,35.6,205.4,35.2,205.4z"/>
			<rect id="XMLID_376_" x="29.6" y="135.2" class="st1" width="6.3" height="63.3"/>
			<path id="XMLID_375_" class="st3" d="M35.9,205.4h-6.3v-72.6l2.8-6.1c0.1-0.3,0.6-0.3,0.7,0l2.8,6.1V205.4z"/>
			<line id="XMLID_374_" class="st3" x1="29.3" y1="135.2" x2="35.9" y2="135.2"/>
		</g>
		<g id="XMLID_337_">
			<g id="XMLID_338_">
				<path id="XMLID_372_" class="st1" d="M253.8,71.9h-2.6c-0.6,0-1-0.4-1-1v-5.1c0-0.5,0.4-1,1-1h2.6c0.6,0,1,0.5,1,1v5.1
					C254.8,71.4,254.4,71.9,253.8,71.9z"/>
				<path id="XMLID_371_" class="st3" d="M253.8,71.9h-2.6c-0.6,0-1-0.4-1-1v-5.1c0-0.5,0.4-1,1-1h2.6c0.6,0,1,0.5,1,1v5.1
					C254.8,71.4,254.4,71.9,253.8,71.9z"/>
				<path id="XMLID_370_" class="st4" d="M268.2,35.9c0-8.6-6.9-15.5-15.5-15.5s-15.5,6.9-15.5,15.5c0,5.8,3.1,10.8,7.8,13.4v15.3
					l2.2,4.2h10.7l2.6-4.2V49.3C265,46.6,268.2,41.6,268.2,35.9z"/>
				<polygon id="XMLID_369_" class="st5" points="244.9,49.3 244.9,64.6 247.1,68.8 257.8,68.8 260.4,64.6 260.4,49.3 				"/>
				<polygon id="XMLID_368_" class="st1" points="260.4,64.6 257.8,68.8 247.1,68.8 244.9,64.6 				"/>
				<path id="XMLID_367_" class="st3" d="M240.8,25.9c-2.3,2.7-3.6,6.2-3.6,10c0,5.8,3.1,10.8,7.8,13.4v15.3l2.2,4.2h10.7l2.6-4.2
					V49.3c4.6-2.7,7.8-7.7,7.8-13.4c0-8.6-6.9-15.5-15.5-15.5c-2.1,0-4,0.4-5.8,1.1"/>
				<path id="XMLID_366_" class="st3" d="M244.9,22.4c-1.2,0.7-1.6,0.9-2.6,1.9"/>
				<line id="XMLID_365_" class="st3" x1="242.6" y1="54" x2="262.7" y2="54"/>
				<line id="XMLID_364_" class="st3" x1="242.6" y1="57.6" x2="262.7" y2="57.6"/>
				<line id="XMLID_363_" class="st3" x1="242.6" y1="61.1" x2="262.7" y2="61.1"/>
				<line id="XMLID_362_" class="st3" x1="242.6" y1="64.6" x2="262.7" y2="64.6"/>
				<g id="XMLID_354_">
					<path id="XMLID_361_" class="st5" d="M252.6,24.2c0,0,6.1,5.8,6.1,10.9s-6.1,10.9-6.1,10.9s-6.1-5.8-6.1-10.9
						S252.6,24.2,252.6,24.2z"/>
					<path id="XMLID_360_" class="st3" d="M252.6,24.2c0,0,6.1,5.8,6.1,10.9s-6.1,10.9-6.1,10.9s-6.1-5.8-6.1-10.9
						S252.6,24.2,252.6,24.2z"/>
					<line id="XMLID_359_" class="st3" x1="252.6" y1="53" x2="252.6" y2="24.2"/>
					<line id="XMLID_358_" class="st3" x1="252.6" y1="34.3" x2="248" y2="29.4"/>
					<line id="XMLID_357_" class="st3" x1="252.5" y1="40.9" x2="246.5" y2="34.3"/>
					<line id="XMLID_356_" class="st3" x1="252.5" y1="34.3" x2="257.1" y2="29.4"/>
					<line id="XMLID_355_" class="st3" x1="252.6" y1="40.9" x2="258.5" y2="34.3"/>
				</g>
				<line id="XMLID_353_" class="st3" x1="252.5" y1="14" x2="252.5" y2="18.4"/>
				<line id="XMLID_352_" class="st3" x1="260" y1="15.3" x2="258.6" y2="19.4"/>
				<line id="XMLID_351_" class="st3" x1="266.7" y1="19.1" x2="263.9" y2="22.4"/>
				<line id="XMLID_350_" class="st3" x1="271.6" y1="24.9" x2="267.9" y2="27.1"/>
				<line id="XMLID_349_" class="st3" x1="274.3" y1="32" x2="270" y2="32.8"/>
				<line id="XMLID_348_" class="st3" x1="274.3" y1="39.7" x2="270" y2="38.9"/>
				<line id="XMLID_347_" class="st3" x1="271.8" y1="46.8" x2="268" y2="44.7"/>
				<line id="XMLID_346_" class="st3" x1="266.9" y1="52.7" x2="264.1" y2="49.4"/>
				<line id="XMLID_345_" class="st3" x1="238.7" y1="53" x2="241.5" y2="49.7"/>
				<line id="XMLID_344_" class="st3" x1="233.7" y1="47.2" x2="237.5" y2="45"/>
				<line id="XMLID_343_" class="st3" x1="231" y1="40.1" x2="235.3" y2="39.3"/>
				<line id="XMLID_342_" class="st3" x1="230.9" y1="32.5" x2="235.2" y2="33.2"/>
				<line id="XMLID_341_" class="st3" x1="233.4" y1="25.3" x2="237.2" y2="27.4"/>
				<line id="XMLID_340_" class="st3" x1="238.3" y1="19.3" x2="241.1" y2="22.7"/>
				<line id="XMLID_339_" class="st3" x1="244.8" y1="15.4" x2="246.3" y2="19.5"/>
			</g>
		</g>
		<g>
			<path id="XMLID_336_" class="st4" d="M94.4,205.4h64c1,0,1.8-0.8,1.8-1.8v-95.2c0-1-0.8-1.8-1.8-1.8h-64c-1,0-1.8,0.8-1.8,1.8
				v95.2C92.5,204.5,93.3,205.4,94.4,205.4z"/>
			<rect id="XMLID_335_" x="140.8" y="106.4" class="st5" width="12.6" height="98.9"/>
			<rect id="XMLID_334_" x="130.9" y="106.4" class="st1" width="6.3" height="98.9"/>
			<path id="XMLID_333_" class="st3" d="M160.2,151.6v-39.8c0-3-2.4-5.3-5.3-5.3h-40.5"/>
			<path id="XMLID_332_" class="st3" d="M103,106.4h-5.1c-3,0-5.3,2.4-5.3,5.3v50.7"/>
			<line id="XMLID_331_" class="st3" x1="111.1" y1="106.4" x2="105.5" y2="106.4"/>
		</g>
		<path class="st6" d="M115.3,164.1H61.7c-1.5,0-2.8,1.3-2.8,2.8v16h0.9v20.6c0,1,0.8,1.9,1.9,1.9h53.6h0v0.9c1.5,0,2.8-1.3,2.8-2.8
			v-36.6C118.1,165.3,116.9,164.1,115.3,164.1z"/>
		<g>
			<path id="XMLID_294_" class="st4" d="M59,205.4h54.3c0.9,0,1.6-0.7,1.6-1.6v-37.2c0-0.9-0.7-1.6-1.6-1.6H59
				c-0.9,0-1.6,0.7-1.6,1.6v37.2C57.4,204.7,58.1,205.4,59,205.4z"/>
			<path id="XMLID_291_" class="st1" d="M57.4,165l27.5,19.3c0.7,0.5,1.7,0.5,2.4,0l27.5-19.3H57.4z"/>
			<path id="XMLID_290_" class="st3" d="M114.3,165.4l-27,19c-0.7,0.5-1.7,0.5-2.4,0l-26.6-18.7"/>
			<path id="XMLID_287_" class="st3" d="M112.9,205.4c1,0,1.9-0.8,1.9-1.9v-36.6c0-1-0.8-1.9-1.9-1.9H59.3c-1,0-1.9,0.8-1.9,1.9v16"
				/>
		</g>
		<g>
			<path id="XMLID_285_" class="st4" d="M76.7,204.2v-18c0-0.6-0.5-1.1-1.1-1.1H40.9c-0.6,0-1.1,0.5-1.1,1.1v18
				c0,0.6,0.5,1.1,1.1,1.1h34.7C76.2,205.4,76.7,204.9,76.7,204.2z"/>
			<rect id="XMLID_284_" x="39.8" y="189.4" class="st1" width="36.9" height="7.1"/>
			<path id="XMLID_283_" class="st3" d="M76.7,204.2v-18c0-0.6-0.5-1.1-1.1-1.1H40.9c-0.6,0-1.1,0.5-1.1,1.1v18
				c0,0.6,0.5,1.1,1.1,1.1h34.7C76.2,205.4,76.7,204.9,76.7,204.2z"/>
		</g>
		<g id="XMLID_183_">
			<path id="XMLID_279_" class="st4" d="M357.8,107.6L341,124.4v48.9c0,2.7,2.1,4.8,4.8,4.8h50.1c2.7,0,4.8-2.1,4.8-4.8v-60.9
				c0-2.7-2.1-4.8-4.8-4.8H357.8z"/>
			<polygon id="XMLID_278_" class="st1" points="357.8,124.4 357.8,107.6 341,124.4 			"/>
			<path id="XMLID_277_" class="st3" d="M341,124.4h15.1c0.9,0,1.7-0.8,1.7-1.7v-15.1"/>
			<path id="XMLID_205_" class="st3" d="M400.7,169.5v-57.1c0-2.7-2.1-4.8-4.8-4.8h-38.1L341,124.4v25.9"/>
			<g id="XMLID_184_">
				<rect id="XMLID_198_" x="368.1" y="143" class="st3" width="5.4" height="5.4"/>
				<rect id="XMLID_197_" x="350.9" y="127.8" class="st3" width="5.4" height="5.4"/>
				<path id="XMLID_196_" class="st3" d="M353.6,133.1L353.6,133.1c0,6.9,5.6,12.6,12.6,12.6h2"/>
				<line id="XMLID_195_" class="st3" x1="373.5" y1="145.7" x2="386.2" y2="145.7"/>
				<line id="XMLID_194_" class="st3" x1="350.8" y1="145.7" x2="367.8" y2="145.7"/>
				<circle id="XMLID_193_" class="st3" cx="387.4" cy="145.7" r="2.1"/>
				<circle id="XMLID_186_" class="st3" cx="349.6" cy="145.7" r="2.1"/>
			</g>
		</g>
		<g id="XMLID_125_">
			<path id="XMLID_182_" class="st1" d="M323.5,167H182.4V88.4c0-2.9,2.4-5.3,5.3-5.3h130.5c2.9,0,5.3,2.4,5.3,5.3V167z"/>
			<path id="XMLID_181_" class="st3" d="M182.4,150V89.8c0-3.8,3.1-6.8,6.8-6.8h12.4"/>
			<path id="XMLID_180_" class="st3" d="M211.7,83h105c3.8,0,6.8,3.1,6.8,6.8v59"/>
			<line id="XMLID_178_" class="st3" x1="204.3" y1="83" x2="209.6" y2="83"/>
			<rect id="XMLID_159_" x="190" y="91.2" class="st4" width="126" height="66.3"/>
			<rect id="XMLID_156_" x="196.3" y="154.4" class="st5" width="119.7" height="3.2"/>
			<rect id="XMLID_155_" x="292.5" y="91.2" class="st2" width="23.6" height="66.3"/>
			
				<rect id="XMLID_152_" x="290.2" y="91.2" transform="matrix(-1 -1.224647e-16 1.224647e-16 -1 582.6512 248.771)" class="st5" width="2.3" height="66.3"/>
			<rect id="XMLID_151_" x="292.5" y="139.4" class="st2" width="23.6" height="18.1"/>
			<rect id="XMLID_150_" x="292.5" y="137.7" class="st1" width="23.6" height="3.4"/>
			<rect id="XMLID_147_" x="292.5" y="98.5" class="st1" width="23.6" height="3.6"/>
			<rect id="XMLID_146_" x="292.5" y="118.2" class="st5" width="23.6" height="19.7"/>
			<rect id="XMLID_145_" x="292.5" y="118.2" class="st1" width="23.6" height="3.9"/>
			<rect id="XMLID_142_" x="231.7" y="179.7" class="st2" width="42.5" height="25.2"/>
			<rect id="XMLID_141_" x="231.7" y="179.7" class="st5" width="42.5" height="12.6"/>
			<rect id="XMLID_140_" x="231.7" y="179.7" class="st3" width="42.5" height="25.2"/>
			<path id="XMLID_138_" class="st4" d="M323.5,163.9H182.4v13.6c0,3,2.4,5.4,5.4,5.4h130.3c3,0,5.4-2.4,5.4-5.4V163.9z"/>
			<line id="XMLID_137_" class="st3" x1="210.7" y1="183" x2="308.6" y2="183"/>
			<line id="XMLID_136_" class="st3" x1="308.6" y1="163.9" x2="210.7" y2="163.9"/>
			<line id="XMLID_135_" class="st3" x1="223.4" y1="205.4" x2="283.1" y2="205.4"/>
			<rect id="XMLID_134_" x="190" y="91.2" class="st2" width="9.5" height="66.3"/>
			<rect id="XMLID_126_" x="190" y="91.2" class="st5" width="126" height="7.3"/>
			<rect x="191.9" y="102" class="st5" width="4.4" height="4.4"/>
			<rect x="192.6" y="93.1" class="st7" width="3.7" height="3.5"/>
			<rect x="202.3" y="93.1" class="st2" width="3.7" height="3.5"/>
			<rect x="207.5" y="93.1" class="st2" width="3.7" height="3.5"/>
			<rect x="216.3" y="93.1" class="st2" width="12.1" height="3.5"/>
			<rect x="230.8" y="93.1" class="st2" width="12.1" height="3.5"/>
			<rect x="252.6" y="93.1" class="st2" width="12.1" height="3.5"/>
			<rect x="267.2" y="93.1" class="st2" width="12.1" height="3.5"/>
			<rect x="284.1" y="93.1" class="st2" width="12.1" height="3.5"/>
			<rect x="191.9" y="109.9" class="st5" width="4.4" height="4.4"/>
			<rect x="191.9" y="117.7" class="st5" width="4.4" height="4.4"/>
			<rect x="191.9" y="125.5" class="st5" width="4.4" height="4.4"/>
			<rect x="191.9" y="133.3" class="st5" width="4.4" height="4.4"/>
			<rect x="216.3" y="107.9" class="st2" width="56.5" height="37.7"/>
			<path class="st1" d="M237.6,145.6c0.6,0,16.3-17.9,16.3-17.9l16.3,17.9H237.6z"/>
			<path class="st5" d="M216.3,145.6c0.7,0,19.2-21,19.2-21l19.2,21H216.3z"/>
			<circle class="st5" cx="245.8" cy="116.4" r="4.3"/>
		</g>
		<path class="st6" d="M211.4,183.9v-25.7c0-2.7-2.2-4.9-4.9-4.9h-24.2v10.7v3.1v9.4c0,3.6,2.9,6.6,6.6,6.6h21.7v0.9H211.4z"/>
		<g>
			<path id="XMLID_124_" class="st2" d="M204.9,205.3h-74.3c-1.1,0-2-0.9-2-2v-47.2c0-1.1,0.9-2,2-2h74.3c1.1,0,2,0.9,2,2v47.2
				C206.9,204.4,206,205.3,204.9,205.3z"/>
			<line id="XMLID_123_" class="st3" x1="150.9" y1="154.1" x2="154" y2="154.1"/>
			<path id="XMLID_121_" class="st3" d="M156.2,154.1h46.7c2.2,0,4,1.8,4,4v43.2c0,2.2-1.8,4-4,4h-70.2c-2.2,0-4-1.8-4-4v-43.2
				c0-2.2,1.8-4,4-4h16.4"/>
			<rect id="XMLID_120_" x="143.6" y="160.4" class="st1" width="56.4" height="38.7"/>
			<rect id="XMLID_119_" x="143.6" y="160.4" class="st3" width="56.4" height="38.7"/>
			<line id="XMLID_118_" class="st3" x1="143.6" y1="153.7" x2="143.6" y2="205.3"/>
			<line id="XMLID_117_" class="st3" x1="135.8" y1="161.2" x2="135.8" y2="166.8"/>
			<line id="XMLID_116_" class="st3" x1="135.8" y1="171.5" x2="135.8" y2="177.1"/>
			<line id="XMLID_115_" class="st3" x1="135.8" y1="181.9" x2="135.8" y2="187.5"/>
			<line id="XMLID_114_" class="st3" x1="135.8" y1="192.3" x2="135.8" y2="197.9"/>
			<polyline id="XMLID_113_" class="st3" points="150.3,171.5 150.3,165.8 155.3,165.8 			"/>
			<polyline id="XMLID_112_" class="st3" points="193.5,187.5 193.5,193.2 188.5,193.2 			"/>
			<path id="XMLID_111_" class="st3" d="M128.7,179.5h-4.3c-2.2,0-3.9,1.8-3.9,3.9v21.9"/>
		</g>
		<g id="XMLID_61_">
			
				<rect id="XMLID_110_" x="432.8" y="172.8" transform="matrix(-1.836970e-16 1 -1 -1.836970e-16 637.5383 -244.5578)" class="st4" width="16.5" height="47.3"/>
			
				<rect id="XMLID_109_" x="452.4" y="192.5" transform="matrix(-1.836970e-16 1 -1 -1.836970e-16 657.1913 -264.2108)" class="st2" width="16.5" height="8"/>
			
				<rect id="XMLID_108_" x="444.4" y="192.5" transform="matrix(-1.836970e-16 1 -1 -1.836970e-16 649.1956 -256.2151)" class="st8" width="16.5" height="8"/>
			
				<rect id="XMLID_107_" x="436.4" y="192.5" transform="matrix(-1.836970e-16 1 -1 -1.836970e-16 641.2 -248.2195)" class="st9" width="16.5" height="8"/>
			
				<rect id="XMLID_106_" x="428.5" y="192.5" transform="matrix(-1.836970e-16 1 -1 -1.836970e-16 633.2043 -240.2238)" class="st0" width="16.5" height="8"/>
			
				<rect id="XMLID_105_" x="420.5" y="192.5" transform="matrix(-1.836970e-16 1 -1 -1.836970e-16 625.2086 -232.2281)" class="st10" width="16.5" height="8"/>
			
				<rect id="XMLID_104_" x="432.8" y="172.8" transform="matrix(-1.836970e-16 1 -1 -1.836970e-16 637.5383 -244.5578)" class="st3" width="16.5" height="47.3"/>
			
				<rect id="XMLID_103_" x="425.2" y="156.6" transform="matrix(0.7071 0.7071 -0.7071 0.7071 254.4056 -253.7406)" class="st4" width="16.5" height="47.3"/>
			
				<rect id="XMLID_102_" x="439.1" y="162.3" transform="matrix(0.7071 0.7071 -0.7071 0.7071 248.6496 -267.6374)" class="st5" width="16.5" height="8"/>
			
				<rect id="XMLID_101_" x="433.5" y="168" transform="matrix(0.7071 0.7071 -0.7071 0.7071 250.9912 -261.9835)" class="st11" width="16.5" height="8"/>
			
				<rect id="XMLID_100_" x="427.8" y="173.6" transform="matrix(0.7071 0.7071 -0.7071 0.7071 253.3331 -256.3297)" class="st12" width="16.5" height="8"/>
			
				<rect id="XMLID_99_" x="422.2" y="179.3" transform="matrix(0.7071 0.7071 -0.7071 0.7071 255.675 -250.6759)" class="st13" width="16.5" height="8"/>
			
				<rect id="XMLID_98_" x="416.5" y="184.9" transform="matrix(0.7071 0.7071 -0.7071 0.7071 258.0169 -245.0221)" class="st14" width="16.5" height="8"/>
			
				<rect id="XMLID_97_" x="425.2" y="156.6" transform="matrix(0.7071 0.7071 -0.7071 0.7071 254.4056 -253.7406)" class="st3" width="16.5" height="47.3"/>
			<rect id="XMLID_96_" x="407.9" y="157.3" class="st4" width="16.5" height="47.3"/>
			<rect id="XMLID_95_" x="407.9" y="157.3" class="st1" width="16.5" height="8"/>
			<rect id="XMLID_94_" x="407.9" y="165.3" class="st15" width="16.5" height="8"/>
			<rect id="XMLID_93_" x="407.9" y="173.3" class="st16" width="16.5" height="8"/>
			<rect id="XMLID_92_" x="407.9" y="181.3" class="st17" width="16.5" height="8"/>
			<rect id="XMLID_90_" x="407.9" y="189.3" class="st18" width="16.5" height="8"/>
			<circle id="XMLID_84_" class="st3" cx="416.1" cy="200.8" r="1.2"/>
			<polyline id="XMLID_82_" class="st3" points="407.9,169.3 407.9,157.4 424.4,157.4 424.4,204.8 			"/>
			<line id="XMLID_81_" class="st3" x1="408.4" y1="165.2" x2="424.4" y2="165.2"/>
			<line id="XMLID_80_" class="st3" x1="408.4" y1="173.2" x2="424.4" y2="173.2"/>
			<line id="XMLID_79_" class="st3" x1="408.4" y1="181.2" x2="424.4" y2="181.2"/>
			<line id="XMLID_78_" class="st3" x1="408.4" y1="189.2" x2="424.4" y2="189.2"/>
			<line id="XMLID_77_" class="st3" x1="439" y1="163.7" x2="450.4" y2="175"/>
			<line id="XMLID_76_" class="st3" x1="433.1" y1="169" x2="444.4" y2="180.3"/>
			<line id="XMLID_75_" class="st3" x1="427.1" y1="174.2" x2="439.1" y2="186.3"/>
			<line id="XMLID_74_" class="st3" x1="424.7" y1="183.1" x2="433.5" y2="191.9"/>
			<line id="XMLID_73_" class="st3" x1="432.7" y1="192.8" x2="432.7" y2="204.8"/>
			<line id="XMLID_72_" class="st3" x1="440.7" y1="188.2" x2="440.7" y2="204.8"/>
			<line id="XMLID_67_" class="st3" x1="448.7" y1="188.2" x2="448.7" y2="204.8"/>
			<line id="XMLID_64_" class="st3" x1="456.7" y1="188.2" x2="456.7" y2="204.8"/>
			<line id="XMLID_63_" class="st3" x1="424.4" y1="194.1" x2="427.8" y2="197.6"/>
			<line id="XMLID_62_" class="st3" x1="408.4" y1="197.3" x2="424.4" y2="197.3"/>
		</g>
		<path class="st6" d="M323.5,176.4V167v-3.1v-11.8h-11.2c-2.3,0-4.2,1.9-4.2,4.2v27.6h0.3V183h8.4C320.6,183,323.5,180,323.5,176.4
			z"/>
		<path class="st6" d="M376,168.7h0.9v-12.4c0-2.3-1.9-4.2-4.2-4.2H341v21.1c0,2.7,2.1,4.8,4.8,4.8H376V168.7z"/>
		<g id="XMLID_52_">
			<path id="XMLID_60_" class="st4" d="M371,205.4h-56.9c-1.4,0-2.6-1.1-2.6-2.6v-47.2c0-1.4,1.1-2.6,2.6-2.6H371
				c1.4,0,2.6,1.1,2.6,2.6v47.2C373.6,204.2,372.4,205.4,371,205.4z"/>
			<polygon id="XMLID_58_" class="st5" points="373.6,188.5 359,175.1 347.4,184 331.2,170.4 311.6,185.3 311.6,193 373.6,193 			
				"/>
			<line id="XMLID_57_" class="st3" x1="311.6" y1="193" x2="350.7" y2="193"/>
			<polyline id="XMLID_56_" class="st3" points="311.6,185.3 331.2,170.4 347.4,184 350.4,181.7 			"/>
			<circle id="XMLID_55_" class="st1" cx="347" cy="163.4" r="5.4"/>
			<circle id="XMLID_54_" class="st3" cx="347" cy="163.4" r="5.4"/>
			<path id="XMLID_53_" class="st3" d="M314.8,205.4c-1.8,0-3.3-1.5-3.3-3.3v-45.8c0-1.8,1.5-3.3,3.3-3.3h55.5
				c1.8,0,3.3,1.5,3.3,3.3v12.4"/>
		</g>
		<g class="st19">
			<path class="st20" d="M354.8,171.4c-2.6,0-4.8,2.2-4.8,4.8v25.3c0,1.6,0.8,3,2,3.9h18.4c1.7,0,3.1-1.4,3.1-3.1V193v-4.5v-17.1
				H354.8z"/>
			<rect x="360.1" y="169.5" class="st20" width="8.7" height="1.8"/>
		</g>
		<path class="st6" d="M413.8,201.5v-25.3c0-2.6-2.2-4.8-4.8-4.8h-1.1v1.9v8v8v8v7.3h4.7C413.3,203.8,413.8,202.7,413.8,201.5z"/>
		<g id="XMLID_6_">
			<path id="XMLID_51_" class="st5" d="M406.3,172.3h-48.8c-2.3,0-4.1,2.2-4.1,4.9v23.3c0,2.7,1.8,4.9,4.1,4.9h48.8
				c2.3,0,4.1-2.2,4.1-4.9v-23.3C410.5,174.5,408.6,172.3,406.3,172.3z"/>
			<rect id="XMLID_50_" x="353.4" y="188.1" class="st2" width="57.1" height="11.5"/>
			<rect id="XMLID_49_" x="353.4" y="195.5" class="st5" width="57.1" height="2"/>
			<rect id="XMLID_48_" x="353.4" y="191" class="st5" width="57.1" height="2"/>
			<path id="XMLID_42_" class="st3" d="M407.2,205.4h-50.7c-1.8,0-3.2-1.4-3.2-3.2v-26.6c0-1.8,1.4-3.2,3.2-3.2h50.7
				c1.8,0,3.2,1.4,3.2,3.2v26.6C410.5,203.9,409,205.4,407.2,205.4z"/>
			<circle id="XMLID_41_" class="st2" cx="376.5" cy="188.8" r="13.8"/>
			<circle id="XMLID_40_" class="st3" cx="376.5" cy="188.8" r="10.9"/>
			<circle id="XMLID_39_" class="st4" cx="376.5" cy="188.8" r="7.9"/>
			<circle id="XMLID_38_" class="st2" cx="376.5" cy="188.8" r="5.5"/>
			<circle id="XMLID_37_" class="st5" cx="376.5" cy="188.8" r="3.2"/>
			<circle id="XMLID_36_" class="st1" cx="376.5" cy="188.8" r="2.1"/>
			<circle id="XMLID_15_" class="st3" cx="376.5" cy="188.8" r="13.8"/>
			
				<ellipse id="XMLID_14_" transform="matrix(0.8067 -0.591 0.591 0.8067 -35.5901 254.992)" class="st21" cx="372" cy="181.9" rx="3.7" ry="1.4"/>
			<circle id="XMLID_12_" class="st3" cx="361.3" cy="178" r="1.3"/>
			<circle id="XMLID_11_" class="st21" cx="388.1" cy="201.2" r="0.8"/>
			<rect id="XMLID_10_" x="394" y="176" class="st2" width="13" height="6.6"/>
			<polygon id="XMLID_9_" class="st21" points="399.1,176 394,181.1 394,182.6 397.3,182.6 404,176 			"/>
			<polygon id="XMLID_8_" class="st21" points="401.7,182.6 407,177.3 407,176 405.1,176 398.5,182.6 			"/>
			<line id="XMLID_7_" class="st3" x1="362.5" y1="170.4" x2="371.2" y2="170.4"/>
		</g>
		<g id="XMLID_2_">
			<path id="XMLID_5_" class="st1" d="M466.6,180.7c0-6.3,5.1-11.3,11.3-11.3c3.2,0,6,1.3,8.1,3.4c2.1-2.1,4.9-3.4,8.1-3.4
				c6.3,0,11.3,5.1,11.3,11.3c0,3.1-1.2,5.8-3.2,7.9l-16.2,16.1l-16.6-16.5c-0.2-0.2-0.7-0.8-0.7-0.8
				C467.4,185.5,466.6,183.2,466.6,180.7z"/>
			<path id="XMLID_4_" class="st4" d="M490.8,170.9c0.6-0.2,1.2-0.3,1.8-0.4c5.5,0.6,9.8,5.3,9.8,10.9c0,3-1.2,5.6-3.1,7.6l-13.9,15
				l-1.8-1.8l12.1-13.2c1.9-2,3.1-4.7,3.1-7.6C498.8,176.4,495.4,172.2,490.8,170.9z"/>
			<path id="XMLID_3_" class="st3" d="M466.6,180.7c0-6.3,5.1-11.3,11.3-11.3c3.2,0,6,1.3,8.1,3.4c2.1-2.1,4.9-3.4,8.1-3.4
				c6.3,0,11.3,5.1,11.3,11.3c0,3.1-1.2,5.8-3.2,7.9l-16.2,16.1l-16.6-16.5c-0.2-0.2-0.7-0.8-0.7-0.8
				C467.4,185.5,466.6,183.2,466.6,180.7z"/>
		</g>
		<line id="XMLID_1_" class="st3" x1="3" y1="205.4" x2="532.5" y2="205.4"/>
	</g>
</g>
</svg>
