<?xml version="1.0" encoding="utf-8"?>
<!-- Generator: Adobe Illustrator 22.0.1, SVG Export Plug-In . SVG Version: 6.00 Build 0)  -->
<svg version="1.1" id="Capa_1" xmlns="http://www.w3.org/2000/svg" xmlns:xlink="http://www.w3.org/1999/xlink" x="0px" y="0px"
	 viewBox="0 0 32.9 31.3" style="enable-background:new 0 0 32.9 31.3;" xml:space="preserve">
<g>
	<path id="LinkedIn" d="M32.1,18.7v11.5h-6.7V19.4c0-2.7-1-4.5-3.4-4.5c-1.8,0-2.9,1.2-3.4,2.4c-0.2,0.4-0.2,1-0.2,1.6v11.2h-6.7
		c0,0,0.1-18.2,0-20.1h6.7v2.8c0,0,0,0,0,0.1h0v-0.1c0.9-1.4,2.5-3.3,6-3.3C28.9,9.6,32.1,12.5,32.1,18.7z M4.8,0.4
		C2.5,0.4,1,1.9,1,3.9c0,1.9,1.5,3.5,3.7,3.5h0c2.3,0,3.8-1.5,3.8-3.5C8.5,1.9,7.1,0.4,4.8,0.4z M1.4,30.2h6.7V10.1H1.4V30.2z"/>
</g>
</svg>
