<?xml version="1.0" encoding="utf-8"?>
<!-- Generator: Adobe Illustrator 22.0.1, SVG Export Plug-In . SVG Version: 6.00 Build 0)  -->
<svg version="1.1" id="Capa_1" xmlns="http://www.w3.org/2000/svg" xmlns:xlink="http://www.w3.org/1999/xlink" x="0px" y="0px"
	 viewBox="0 0 31.6 28" style="enable-background:new 0 0 31.6 28;" xml:space="preserve">
<style type="text/css">
	.st0{fill:#8BC34A;}
	.st1{fill:#FAFAFA;}
</style>
<g>
	<path class="st0" d="M31.3,18c0-4.3-4.3-7.7-9.7-7.7s-9.7,3.5-9.7,7.7s4.3,7.8,9.7,7.8c0.9,0,1.7-0.1,2.5-0.3l5.2,2.2l-1.8-3.6
		C29.8,22.7,31.3,20.5,31.3,18z"/>
	<path class="st0" d="M11.9,0.6c-6.4,0-11.6,4.3-11.6,9.7c0,3.1,1.7,5.8,4.4,7.6l-1.5,3.1l4.2-1.8c0.9,0.3,1.8,0.6,2.8,0.7
		C10.1,19.2,10,18.6,10,18c0-5.3,5.2-9.7,11.6-9.7c0.6,0,1.2,0,1.7,0.1C22.3,4,17.6,0.6,11.9,0.6z"/>
</g>
<g>
	<circle class="st1" cx="8.1" cy="6.4" r="1.5"/>
	<circle class="st1" cx="15.8" cy="6.4" r="1.5"/>
	<circle class="st1" cx="18.7" cy="16.1" r="1.5"/>
	<circle class="st1" cx="24.5" cy="16.1" r="1.5"/>
</g>
</svg>
