<?xml version="1.0" encoding="utf-8"?>
<!-- Generator: Adobe Illustrator 22.0.1, SVG Export Plug-In . SVG Version: 6.00 Build 0)  -->
<svg version="1.1" id="Layer_1" xmlns="http://www.w3.org/2000/svg" xmlns:xlink="http://www.w3.org/1999/xlink" x="0px" y="0px"
	 viewBox="0 0 544.5 312.5" style="enable-background:new 0 0 544.5 312.5;" xml:space="preserve">
<style type="text/css">
	.st0{fill:#EDF6FC;}
	.st1{fill:#5FB0E5;}
</style>
<g>
	<path class="st0" d="M259.7,48.3L259.7,48.3c0,2.8-2.3,5.1-5.1,5.1h-21.2c-2.3,0-4.1,1.8-4.1,4.1l0,0c0,2.3,1.8,4.1,4.1,4.1h7.7
		c2.8,0,5.1,2.3,5.1,5.1v0.3c0,2.8-2.3,5.1-5.1,5.1h-64.2c-2.8,0-5.1-2.3-5.1-5.1v-0.3c0-2.8,2.3-5.1,5.1-5.1h23.7
		c2.3,0,4.1-1.8,4.1-4.1l0,0c0-2.3-1.8-4.1-4.1-4.1h-7.6c-2.8,0-5.1-2.3-5.1-5.1l0,0c0-2.8,2.3-5.1,5.1-5.1h61.6
		C257.4,43.2,259.7,45.5,259.7,48.3z"/>
</g>
<g id="XMLID_266_">
	<path class="st1" d="M277.4,30.8c0,0.6-0.4,1-1,1c-0.6,0-1-0.4-1-1c0-0.6,0.4-1,1-1C277,29.8,277.4,30.3,277.4,30.8z"/>
</g>
<g id="XMLID_265_">
	<path class="st1" d="M130.7,19.9c0,0.6-0.4,1-1,1c-0.6,0-1-0.4-1-1c0-0.6,0.4-1,1-1C130.3,18.9,130.7,19.3,130.7,19.9z"/>
</g>
<g id="XMLID_263_">
	<path class="st1" d="M313.2,21.7c0,1-0.8,1.8-1.8,1.8c-1,0-1.8-0.8-1.8-1.8c0-1,0.8-1.8,1.8-1.8C312.4,19.9,313.2,20.7,313.2,21.7z
		"/>
</g>
<g id="XMLID_262_">
	<path class="st1" d="M471.1,60.9c0,0.9-0.7,1.6-1.6,1.6c-0.9,0-1.6-0.7-1.6-1.6c0-0.9,0.7-1.6,1.6-1.6
		C470.4,59.3,471.1,60,471.1,60.9z"/>
</g>
<g id="XMLID_261_">
	<path class="st1" d="M345.3,40.8c0,1.1-0.9,1.9-1.9,1.9c-1.1,0-1.9-0.9-1.9-1.9c0-1.1,0.9-1.9,1.9-1.9
		C344.5,38.8,345.3,39.7,345.3,40.8z"/>
</g>
<g id="XMLID_260_">
	<path class="st1" d="M492.6,214.1c0,0.8-0.6,1.4-1.4,1.4s-1.4-0.6-1.4-1.4c0-0.8,0.6-1.4,1.4-1.4S492.6,213.4,492.6,214.1z"/>
</g>
<g id="XMLID_259_">
	<path class="st1" d="M202.3,18c0,1.1-0.9,1.9-1.9,1.9c-1.1,0-1.9-0.9-1.9-1.9c0-1.1,0.9-1.9,1.9-1.9
		C201.5,16.1,202.3,16.9,202.3,18z"/>
</g>
<g id="XMLID_258_">
	<path class="st1" d="M497.4,63.2c-1.7,0.5-2.1,0.8-2.6,2.6c-0.5-1.7-0.8-2.1-2.6-2.6c1.7-0.5,2.1-0.8,2.6-2.6
		C495.3,62.4,495.7,62.8,497.4,63.2z"/>
</g>
<g id="XMLID_257_">
	<path class="st1" d="M500.2,33.9c-1.3,0.3-1.6,0.6-1.9,1.9c-0.3-1.3-0.6-1.6-1.9-1.9c1.3-0.3,1.6-0.6,1.9-1.9
		C498.6,33.3,498.9,33.6,500.2,33.9z"/>
</g>
<g id="XMLID_256_">
	<path class="st1" d="M169.1,34.1c-1.7,0.5-2.1,0.8-2.6,2.6c-0.5-1.7-0.8-2.1-2.6-2.6c1.7-0.5,2.1-0.8,2.6-2.6
		C167,33.3,167.3,33.6,169.1,34.1z"/>
</g>
<g id="XMLID_254_">
	<path class="st1" d="M233.9,21.7c-1.6,0.4-2,0.8-2.4,2.4c-0.4-1.6-0.8-2-2.4-2.4c1.6-0.4,2-0.8,2.4-2.4
		C232,20.9,232.3,21.3,233.9,21.7z"/>
</g>
<g id="XMLID_252_">
	<path class="st1" d="M271.6,47.9c-2.7,0.7-3.3,1.3-4,4c-0.7-2.7-1.3-3.3-4-4c2.7-0.7,3.3-1.3,4-4C268.3,46.6,268.9,47.2,271.6,47.9
		z"/>
</g>
<g>
	<path class="st0" d="M486.1,51.4h-29.6c-2.8,0-5.1-2.3-5.1-5.1l0,0c0-2.8,2.3-5.1,5.1-5.1h29.6c2.8,0,5.1,2.3,5.1,5.1l0,0
		C491.2,49.1,488.9,51.4,486.1,51.4z"/>
</g>
<g id="XMLID_3_">
	<path class="st1" d="M477.4,160.8c0,0.6-0.4,1-1,1c-0.6,0-1-0.4-1-1c0-0.6,0.4-1,1-1C477,159.8,477.4,160.3,477.4,160.8z"/>
</g>
<g id="XMLID_2_">
	<path class="st1" d="M513.2,151.7c0,1-0.8,1.8-1.8,1.8c-1,0-1.8-0.8-1.8-1.8c0-1,0.8-1.8,1.8-1.8
		C512.4,149.9,513.2,150.7,513.2,151.7z"/>
</g>
<g id="XMLID_1_">
	<path class="st1" d="M460.9,113.7c-1.6,0.4-2,0.8-2.4,2.4c-0.4-1.6-0.8-2-2.4-2.4c1.6-0.4,2-0.8,2.4-2.4
		C459,112.9,459.3,113.3,460.9,113.7z"/>
</g>
<g>
	<path class="st0" d="M497.7,273L497.7,273c0,2.1-1.7,3.8-3.8,3.8h-15.6c-1.7,0-3,1.3-3,3l0,0c0,1.7,1.3,3,3,3h5.6
		c2.1,0,3.8,1.7,3.8,3.8v0.2c0,2.1-1.7,3.8-3.8,3.8h-47.2c-2.1,0-3.8-1.7-3.8-3.8v-0.2c0-2.1,1.7-3.8,3.8-3.8h17.4c1.7,0,3-1.3,3-3
		l0,0c0-1.7-1.3-3-3-3h-5.6c-2.1,0-3.8-1.7-3.8-3.8l0,0c0-2.1,1.7-3.8,3.8-3.8h45.3C496,269.2,497.7,270.9,497.7,273z"/>
</g>
<g id="XMLID_5_">
	<path class="st1" d="M36.4,82.8c0,0.6-0.4,1-1,1c-0.6,0-1-0.4-1-1c0-0.6,0.4-1,1-1C36,81.8,36.4,82.3,36.4,82.8z"/>
</g>
<g id="XMLID_4_">
	<path class="st1" d="M72.2,73.7c0,1-0.8,1.8-1.8,1.8c-1,0-1.8-0.8-1.8-1.8c0-1,0.8-1.8,1.8-1.8C71.4,71.9,72.2,72.7,72.2,73.7z"/>
</g>
<g id="XMLID_6_">
	<path class="st1" d="M97.6,87.9c-2.7,0.7-3.3,1.3-4,4c-0.7-2.7-1.3-3.3-4-4c2.7-0.7,3.3-1.3,4-4C94.3,86.6,94.9,87.2,97.6,87.9z"/>
</g>
<g id="XMLID_8_">
	<path class="st1" d="M472.2,263.7c0,1-0.8,1.8-1.8,1.8c-1,0-1.8-0.8-1.8-1.8c0-1,0.8-1.8,1.8-1.8
		C471.4,261.9,472.2,262.7,472.2,263.7z"/>
</g>
<g id="XMLID_7_">
	<path class="st1" d="M500.6,280.9c-2.7,0.7-3.3,1.3-4,4c-0.7-2.7-1.3-3.3-4-4c2.7-0.7,3.3-1.3,4-4
		C497.3,279.6,497.9,280.2,500.6,280.9z"/>
</g>
<g>
	<path class="st0" d="M74.3,97.3H52.1c-2.8,0-5.1-2.3-5.1-5.1v0c0-2.8,2.3-5.1,5.1-5.1h22.2c2.8,0,5.1,2.3,5.1,5.1v0
		C79.4,95,77.1,97.3,74.3,97.3z"/>
</g>
<g>
	<path class="st0" d="M124.9,274.7H64.1c-2.8,0-5.1-2.3-5.1-5.1v-1.4c0-2.8,2.3-5.1,5.1-5.1h60.8c2.8,0,5.1,2.3,5.1,5.1v1.4
		C130,272.4,127.7,274.7,124.9,274.7z"/>
</g>
<g id="XMLID_10_">
	<path class="st1" d="M134.4,282.8c0,0.6-0.4,1-1,1c-0.6,0-1-0.4-1-1c0-0.6,0.4-1,1-1C134,281.8,134.4,282.3,134.4,282.8z"/>
</g>
<g id="XMLID_9_">
	<path class="st1" d="M117.9,255.7c-1.6,0.4-2,0.8-2.4,2.4c-0.4-1.6-0.8-2-2.4-2.4c1.6-0.4,2-0.8,2.4-2.4
		C116,254.9,116.3,255.3,117.9,255.7z"/>
</g>
<g id="XMLID_14_">
	<path class="st1" d="M90.4,292.8c0,0.6-0.4,1-1,1c-0.6,0-1-0.4-1-1c0-0.6,0.4-1,1-1C90,291.8,90.4,292.3,90.4,292.8z"/>
</g>
<g id="XMLID_13_">
	<path class="st1" d="M85.3,180c0,1.1-0.9,1.9-1.9,1.9c-1.1,0-1.9-0.9-1.9-1.9c0-1.1,0.9-1.9,1.9-1.9
		C84.5,178.1,85.3,178.9,85.3,180z"/>
</g>
<g id="XMLID_11_">
	<path class="st1" d="M116.9,183.7c-1.6,0.4-2,0.8-2.4,2.4c-0.4-1.6-0.8-2-2.4-2.4c1.6-0.4,2-0.8,2.4-2.4
		C115,182.9,115.3,183.3,116.9,183.7z"/>
</g>
<g id="XMLID_16_">
	<path class="st1" d="M44.4,42.8c0,0.6-0.4,1-1,1c-0.6,0-1-0.4-1-1c0-0.6,0.4-1,1-1C44,41.8,44.4,42.3,44.4,42.8z"/>
</g>
<g id="XMLID_15_">
	<path class="st1" d="M337.9,95.7c-1.6,0.4-2,0.8-2.4,2.4c-0.4-1.6-0.8-2-2.4-2.4c1.6-0.4,2-0.8,2.4-2.4
		C336,94.9,336.3,95.3,337.9,95.7z"/>
</g>
<g id="XMLID_17_">
	<path class="st1" d="M296.4,262.8c0,0.6-0.4,1-1,1c-0.6,0-1-0.4-1-1c0-0.6,0.4-1,1-1C296,261.8,296.4,262.3,296.4,262.8z"/>
</g>
<g id="XMLID_12_">
	<path class="st1" d="M332.2,253.7c0,1-0.8,1.8-1.8,1.8c-1,0-1.8-0.8-1.8-1.8c0-1,0.8-1.8,1.8-1.8
		C331.4,251.9,332.2,252.7,332.2,253.7z"/>
</g>
</svg>
