<?xml version="1.0" encoding="utf-8"?>
<!-- Generator: Adobe Illustrator 22.0.1, SVG Export Plug-In . SVG Version: 6.00 Build 0)  -->
<svg version="1.1" id="Layer_1" xmlns="http://www.w3.org/2000/svg" xmlns:xlink="http://www.w3.org/1999/xlink" x="0px" y="0px"
	 viewBox="0 0 781.3 270" style="enable-background:new 0 0 781.3 270;" xml:space="preserve">
<style type="text/css">
	.st0{fill:#EDF6FC;}
	.st1{fill:#5FB0E5;}
</style>
<g>
	<path class="st0" d="M28.8,73.1L28.8,73.1c0,2.7,1.4,5,3.1,5h13c1.4,0,2.5,1.8,2.5,4l0,0c0,2.2-1.1,4-2.5,4h-4.7
		c-1.7,0-3.1,2.2-3.1,5v0.2c0,2.7,1.4,5,3.1,5l39.4-0.1c1.7,0,3.1-2.2,3.1-5V91c0-2.7-1.4-5-3.1-5H65.1c-1.4,0-2.5-1.8-2.5-4l0,0
		c0-2.2,1.1-4,2.5-4h4.7c1.7,0,3.1-2.2,3.1-5l0,0c0-2.7-1.4-5-3.1-5L32,68.1C30.2,68.1,28.8,70.4,28.8,73.1z"/>
</g>
<g>
	<path class="st0" d="M675.4,17.9L675.4,17.9c0,2.8-2.3,5.1-5.1,5.1h-21.2c-2.3,0-4.1,1.8-4.1,4.1l0,0c0,2.3,1.8,4.1,4.1,4.1h7.7
		c2.8,0,5.1,2.3,5.1,5.1v0.3c0,2.8-2.3,5.1-5.1,5.1h-64.2c-2.8,0-5.1-2.3-5.1-5.1v-0.3c0-2.8,2.3-5.1,5.1-5.1h23.7
		c2.3,0,4.1-1.8,4.1-4.1l0,0c0-2.3-1.8-4.1-4.1-4.1h-7.6c-2.8,0-5.1-2.3-5.1-5.1l0,0c0-2.8,2.3-5.1,5.1-5.1h61.6
		C673.1,12.8,675.4,15.1,675.4,17.9z"/>
</g>
<g id="XMLID_266_">
	<path class="st1" d="M428.2,8.3c0,0.6-0.4,1-1,1s-1-0.4-1-1s0.4-1,1-1C427.8,7.3,428.2,7.8,428.2,8.3z"/>
</g>
<g id="XMLID_265_">
	<path class="st1" d="M131.5,16.4c0,0.6-0.4,1-1,1s-1-0.4-1-1s0.4-1,1-1S131.5,15.8,131.5,16.4z"/>
</g>
<g id="XMLID_264_">
	<path class="st1" d="M84.1,71.3c0,0.7-0.6,1.3-1.3,1.3s-1.3-0.6-1.3-1.3c0-0.7,0.6-1.3,1.3-1.3S84.1,70.6,84.1,71.3z"/>
</g>
<g id="XMLID_263_">
	<path class="st1" d="M494.1,18.2c0,1-0.8,1.8-1.8,1.8s-1.8-0.8-1.8-1.8s0.8-1.8,1.8-1.8C493.2,16.4,494.1,17.2,494.1,18.2z"/>
</g>
<g id="XMLID_262_">
	<path class="st1" d="M717.9,58.4c0,0.9-0.7,1.6-1.6,1.6c-0.9,0-1.6-0.7-1.6-1.6c0-0.9,0.7-1.6,1.6-1.6
		C717.2,56.8,717.9,57.5,717.9,58.4z"/>
</g>
<g id="XMLID_261_">
	<path class="st1" d="M536.2,27.3c0,1.1-0.9,1.9-1.9,1.9c-1.1,0-1.9-0.9-1.9-1.9c0-1.1,0.9-1.9,1.9-1.9
		C535.3,25.3,536.2,26.2,536.2,27.3z"/>
</g>
<g id="XMLID_260_">
	<path class="st1" d="M719.5,181.6c0,0.8-0.6,1.4-1.4,1.4s-1.4-0.6-1.4-1.4c0-0.8,0.6-1.4,1.4-1.4S719.5,180.9,719.5,181.6z"/>
</g>
<g id="XMLID_259_">
	<path class="st1" d="M313.2,14.5c0,1.1-0.9,1.9-1.9,1.9c-1.1,0-1.9-0.9-1.9-1.9c0-1.1,0.9-1.9,1.9-1.9S313.2,13.4,313.2,14.5z"/>
</g>
<g id="XMLID_258_">
	<path class="st1" d="M744.3,60.7c-1.7,0.5-2.1,0.8-2.6,2.6c-0.5-1.7-0.8-2.1-2.6-2.6c1.7-0.5,2.1-0.8,2.6-2.6
		C742.2,59.9,742.5,60.3,744.3,60.7z"/>
</g>
<g id="XMLID_257_">
	<path class="st1" d="M747,31.4c-1.3,0.3-1.6,0.6-1.9,1.9c-0.3-1.3-0.6-1.6-1.9-1.9c1.3-0.3,1.6-0.6,1.9-1.9
		C745.4,30.8,745.7,31.1,747,31.4z"/>
</g>
<g id="XMLID_256_">
	<path class="st1" d="M169.9,30.6c-1.7,0.5-2.1,0.8-2.6,2.6c-0.5-1.7-0.8-2.1-2.6-2.6c1.7-0.5,2.1-0.8,2.6-2.6
		C167.8,29.8,168.2,30.1,169.9,30.6z"/>
</g>
<g id="XMLID_255_">
	<path class="st1" d="M78.5,193.6c-1.6,0.4-2,0.8-2.4,2.4c-0.4-1.6-0.8-2-2.4-2.4c1.6-0.4,2-0.8,2.4-2.4
		C76.5,192.8,76.8,193.1,78.5,193.6z"/>
</g>
<g id="XMLID_254_">
	<path class="st1" d="M344.8,18.2c-1.6,0.4-2,0.8-2.4,2.4c-0.4-1.6-0.8-2-2.4-2.4c1.6-0.4,2-0.8,2.4-2.4
		C342.8,17.4,343.1,17.8,344.8,18.2z"/>
</g>
<g id="XMLID_253_">
	<path class="st1" d="M50,58.1c-2.1,0.6-2.6,1-3.1,3.1c-0.6-2.1-1-2.6-3.1-3.1c2.1-0.6,2.6-1,3.1-3.1C47.4,57.1,47.8,57.6,50,58.1z"
		/>
</g>
<g id="XMLID_252_">
	<path class="st1" d="M422.4,25.4c-2.7,0.7-3.3,1.3-4,4c-0.7-2.7-1.3-3.3-4-4c2.7-0.7,3.3-1.3,4-4C419.2,24.1,419.7,24.7,422.4,25.4
		z"/>
</g>
<g>
	<path class="st0" d="M82.1,181.8H59.9c-2.8,0-5.1-2.3-5.1-5.1l0,0c0-2.8,2.3-5.1,5.1-5.1h22.2c2.8,0,5.1,2.3,5.1,5.1l0,0
		C87.2,179.5,84.9,181.8,82.1,181.8z"/>
</g>
<g>
	<path class="st0" d="M221,25.1h-29.6c-2.8,0-5.1-2.3-5.1-5.1l0,0c0-2.8,2.3-5.1,5.1-5.1H221c2.8,0,5.1,2.3,5.1,5.1l0,0
		C226.1,22.8,223.8,25.1,221,25.1z"/>
</g>
<g id="XMLID_2_">
	<path class="st1" d="M740.1,129.2c0,1-0.8,1.8-1.8,1.8s-1.8-0.8-1.8-1.8s0.8-1.8,1.8-1.8C739.2,127.4,740.1,128.2,740.1,129.2z"/>
</g>
<g>
	<path class="st0" d="M714.5,230.5L714.5,230.5c0,2.1-1.7,3.8-3.8,3.8h-15.6c-1.7,0-3,1.3-3,3l0,0c0,1.7,1.3,3,3,3h5.6
		c2.1,0,3.8,1.7,3.8,3.8v0.2c0,2.1-1.7,3.8-3.8,3.8h-47.2c-2.1,0-3.8-1.7-3.8-3.8V244c0-2.1,1.7-3.8,3.8-3.8H671c1.7,0,3-1.3,3-3
		l0,0c0-1.7-1.3-3-3-3h-5.6c-2.1,0-3.8-1.7-3.8-3.8l0,0c0-2.1,1.7-3.8,3.8-3.8h45.3C712.8,226.7,714.5,228.4,714.5,230.5z"/>
</g>
<g id="XMLID_8_">
	<path class="st1" d="M689.1,221.2c0,1-0.8,1.8-1.8,1.8s-1.8-0.8-1.8-1.8s0.8-1.8,1.8-1.8C688.2,219.4,689.1,220.2,689.1,221.2z"/>
</g>
<g id="XMLID_7_">
	<path class="st1" d="M717.4,238.4c-2.7,0.7-3.3,1.3-4,4c-0.7-2.7-1.3-3.3-4-4c2.7-0.7,3.3-1.3,4-4
		C714.2,237.1,714.7,237.7,717.4,238.4z"/>
</g>
<g id="XMLID_10_">
	<path class="st1" d="M312.2,250.3c0,0.6-0.4,1-1,1c-0.6,0-1-0.4-1-1s0.4-1,1-1C311.8,249.3,312.2,249.8,312.2,250.3z"/>
</g>
<g id="XMLID_9_">
	<path class="st1" d="M205.8,243.2c-1.6,0.4-2,0.8-2.4,2.4c-0.4-1.6-0.8-2-2.4-2.4c1.6-0.4,2-0.8,2.4-2.4
		C203.8,242.4,204.1,242.8,205.8,243.2z"/>
</g>
<g id="XMLID_14_">
	<path class="st1" d="M268.2,260.3c0,0.6-0.4,1-1,1c-0.6,0-1-0.4-1-1c0-0.6,0.4-1,1-1C267.8,259.3,268.2,259.8,268.2,260.3z"/>
</g>
<g id="XMLID_12_">
	<path class="st1" d="M88.9,233.6c-1.7,0.5-2.1,0.8-2.6,2.6c-0.5-1.7-0.8-2.1-2.6-2.6c1.7-0.5,2.1-0.8,2.6-2.6
		C86.8,232.8,87.2,233.1,88.9,233.6z"/>
</g>
<g id="XMLID_16_">
	<path class="st1" d="M520.2,246.3c0,0.6-0.4,1-1,1s-1-0.4-1-1s0.4-1,1-1C519.8,245.3,520.2,245.8,520.2,246.3z"/>
</g>
<g id="XMLID_15_">
	<path class="st1" d="M603.8,219.2c-1.6,0.4-2,0.8-2.4,2.4c-0.4-1.6-0.8-2-2.4-2.4c1.6-0.4,2-0.8,2.4-2.4
		C601.8,218.4,602.1,218.8,603.8,219.2z"/>
</g>
<g id="XMLID_4_">
	<path class="st1" d="M125.2,204.5c0,1.1-0.9,1.9-1.9,1.9c-1.1,0-1.9-0.9-1.9-1.9c0-1.1,0.9-1.9,1.9-1.9S125.2,203.4,125.2,204.5z"
		/>
</g>
</svg>
