<?xml version="1.0" encoding="utf-8"?>
<!-- Generator: Adobe Illustrator 22.0.1, SVG Export Plug-In . SVG Version: 6.00 Build 0)  -->
<svg version="1.1" id="Layer_1" xmlns="http://www.w3.org/2000/svg" xmlns:xlink="http://www.w3.org/1999/xlink" x="0px" y="0px"
	 viewBox="0 0 458.8 428.3" style="enable-background:new 0 0 458.8 428.3;" xml:space="preserve">
<style type="text/css">
	.st0{fill:#EDF6FC;}
	.st1{fill:#5FB0E5;}
</style>
<g>
	<path class="st0" d="M174,48.3L174,48.3c0,2.8-2.3,5.1-5.1,5.1h-21.2c-2.3,0-4.1,1.8-4.1,4.1l0,0c0,2.3,1.8,4.1,4.1,4.1h7.7
		c2.8,0,5.1,2.3,5.1,5.1v0.3c0,2.8-2.3,5.1-5.1,5.1H91.1c-2.8,0-5.1-2.3-5.1-5.1v-0.3c0-2.8,2.3-5.1,5.1-5.1h23.7
		c2.3,0,4.1-1.8,4.1-4.1l0,0c0-2.3-1.8-4.1-4.1-4.1h-7.6c-2.8,0-5.1-2.3-5.1-5.1l0,0c0-2.8,2.3-5.1,5.1-5.1h61.6
		C171.7,43.2,174,45.5,174,48.3z"/>
</g>
<g id="XMLID_266_">
	<path class="st1" d="M191.7,30.8c0,0.6-0.4,1-1,1c-0.6,0-1-0.4-1-1c0-0.6,0.4-1,1-1C191.3,29.8,191.7,30.3,191.7,30.8z"/>
</g>
<g id="XMLID_265_">
	<path class="st1" d="M45,19.9c0,0.6-0.4,1-1,1c-0.6,0-1-0.4-1-1c0-0.6,0.4-1,1-1C44.6,18.9,45,19.3,45,19.9z"/>
</g>
<g id="XMLID_263_">
	<path class="st1" d="M227.6,21.7c0,1-0.8,1.8-1.8,1.8c-1,0-1.8-0.8-1.8-1.8c0-1,0.8-1.8,1.8-1.8C226.7,19.9,227.6,20.7,227.6,21.7z
		"/>
</g>
<g id="XMLID_262_">
	<path class="st1" d="M385.4,60.9c0,0.9-0.7,1.6-1.6,1.6c-0.9,0-1.6-0.7-1.6-1.6c0-0.9,0.7-1.6,1.6-1.6
		C384.7,59.3,385.4,60,385.4,60.9z"/>
</g>
<g id="XMLID_261_">
	<path class="st1" d="M259.7,40.8c0,1.1-0.9,1.9-1.9,1.9c-1.1,0-1.9-0.9-1.9-1.9c0-1.1,0.9-1.9,1.9-1.9
		C258.8,38.8,259.7,39.7,259.7,40.8z"/>
</g>
<g id="XMLID_260_">
	<path class="st1" d="M407,214.1c0,0.8-0.6,1.4-1.4,1.4c-0.8,0-1.4-0.6-1.4-1.4c0-0.8,0.6-1.4,1.4-1.4
		C406.3,212.7,407,213.4,407,214.1z"/>
</g>
<g id="XMLID_259_">
	<path class="st1" d="M116.7,18c0,1.1-0.9,1.9-1.9,1.9c-1.1,0-1.9-0.9-1.9-1.9c0-1.1,0.9-1.9,1.9-1.9
		C115.8,16.1,116.7,16.9,116.7,18z"/>
</g>
<g id="XMLID_258_">
	<path class="st1" d="M411.8,63.2c-1.7,0.5-2.1,0.8-2.6,2.6c-0.5-1.7-0.8-2.1-2.6-2.6c1.7-0.5,2.1-0.8,2.6-2.6
		C409.7,62.4,410,62.8,411.8,63.2z"/>
</g>
<g id="XMLID_257_">
	<path class="st1" d="M414.5,33.9c-1.3,0.3-1.6,0.6-1.9,1.9c-0.3-1.3-0.6-1.6-1.9-1.9c1.3-0.3,1.6-0.6,1.9-1.9
		C412.9,33.3,413.2,33.6,414.5,33.9z"/>
</g>
<g id="XMLID_256_">
	<path class="st1" d="M83.4,34.1c-1.7,0.5-2.1,0.8-2.6,2.6c-0.5-1.7-0.8-2.1-2.6-2.6c1.7-0.5,2.1-0.8,2.6-2.6
		C81.3,33.3,81.7,33.6,83.4,34.1z"/>
</g>
<g id="XMLID_254_">
	<path class="st1" d="M148.3,21.7c-1.6,0.4-2,0.8-2.4,2.4c-0.4-1.6-0.8-2-2.4-2.4c1.6-0.4,2-0.8,2.4-2.4
		C146.3,20.9,146.6,21.3,148.3,21.7z"/>
</g>
<g id="XMLID_252_">
	<path class="st1" d="M185.9,47.9c-2.7,0.7-3.3,1.3-4,4c-0.7-2.7-1.3-3.3-4-4c2.7-0.7,3.3-1.3,4-4C182.7,46.6,183.2,47.2,185.9,47.9
		z"/>
</g>
<g>
	<path class="st0" d="M400.5,51.4h-29.6c-2.8,0-5.1-2.3-5.1-5.1l0,0c0-2.8,2.3-5.1,5.1-5.1h29.6c2.8,0,5.1,2.3,5.1,5.1l0,0
		C405.6,49.1,403.3,51.4,400.5,51.4z"/>
</g>
<g id="XMLID_3_">
	<path class="st1" d="M391.7,160.8c0,0.6-0.4,1-1,1c-0.6,0-1-0.4-1-1c0-0.6,0.4-1,1-1C391.3,159.8,391.7,160.3,391.7,160.8z"/>
</g>
<g id="XMLID_2_">
	<path class="st1" d="M427.6,151.7c0,1-0.8,1.8-1.8,1.8c-1,0-1.8-0.8-1.8-1.8c0-1,0.8-1.8,1.8-1.8
		C426.7,149.9,427.6,150.7,427.6,151.7z"/>
</g>
<g id="XMLID_1_">
	<path class="st1" d="M375.3,113.7c-1.6,0.4-2,0.8-2.4,2.4c-0.4-1.6-0.8-2-2.4-2.4c1.6-0.4,2-0.8,2.4-2.4
		C373.3,112.9,373.6,113.3,375.3,113.7z"/>
</g>
<g>
	<path class="st0" d="M412,273L412,273c0,2.1-1.7,3.8-3.8,3.8h-15.6c-1.7,0-3,1.3-3,3l0,0c0,1.7,1.3,3,3,3h5.6
		c2.1,0,3.8,1.7,3.8,3.8v0.2c0,2.1-1.7,3.8-3.8,3.8h-47.2c-2.1,0-3.8-1.7-3.8-3.8v-0.2c0-2.1,1.7-3.8,3.8-3.8h17.4c1.7,0,3-1.3,3-3
		l0,0c0-1.7-1.3-3-3-3h-5.6c-2.1,0-3.8-1.7-3.8-3.8l0,0c0-2.1,1.7-3.8,3.8-3.8h45.3C410.3,269.2,412,270.9,412,273z"/>
</g>
<g id="XMLID_5_">
	<path class="st1" d="M10.7,182.8c0,0.6-0.4,1-1,1c-0.6,0-1-0.4-1-1c0-0.6,0.4-1,1-1C10.3,181.8,10.7,182.3,10.7,182.8z"/>
</g>
<g id="XMLID_4_">
	<path class="st1" d="M46.6,173.7c0,1-0.8,1.8-1.8,1.8c-1,0-1.8-0.8-1.8-1.8c0-1,0.8-1.8,1.8-1.8C45.7,171.9,46.6,172.7,46.6,173.7z
		"/>
</g>
<g id="XMLID_6_">
	<path class="st1" d="M71.9,187.9c-2.7,0.7-3.3,1.3-4,4c-0.7-2.7-1.3-3.3-4-4c2.7-0.7,3.3-1.3,4-4C68.7,186.6,69.2,187.2,71.9,187.9
		z"/>
</g>
<g id="XMLID_8_">
	<path class="st1" d="M386.6,263.7c0,1-0.8,1.8-1.8,1.8c-1,0-1.8-0.8-1.8-1.8c0-1,0.8-1.8,1.8-1.8
		C385.7,261.9,386.6,262.7,386.6,263.7z"/>
</g>
<g id="XMLID_7_">
	<path class="st1" d="M414.9,280.9c-2.7,0.7-3.3,1.3-4,4c-0.7-2.7-1.3-3.3-4-4c2.7-0.7,3.3-1.3,4-4
		C411.7,279.6,412.2,280.2,414.9,280.9z"/>
</g>
<g>
	<path class="st0" d="M48.6,197.3H26.4c-2.8,0-5.1-2.3-5.1-5.1v0c0-2.8,2.3-5.1,5.1-5.1h22.2c2.8,0,5.1,2.3,5.1,5.1v0
		C53.7,195,51.4,197.3,48.6,197.3z"/>
</g>
<g>
	<path class="st0" d="M149.2,394.7H88.4c-2.8,0-5.1-2.3-5.1-5.1v-1.4c0-2.8,2.3-5.1,5.1-5.1h60.8c2.8,0,5.1,2.3,5.1,5.1v1.4
		C154.3,392.4,152,394.7,149.2,394.7z"/>
</g>
<g id="XMLID_10_">
	<path class="st1" d="M158.7,402.8c0,0.6-0.4,1-1,1c-0.6,0-1-0.4-1-1c0-0.6,0.4-1,1-1C158.3,401.8,158.7,402.3,158.7,402.8z"/>
</g>
<g id="XMLID_9_">
	<path class="st1" d="M142.3,375.7c-1.6,0.4-2,0.8-2.4,2.4c-0.4-1.6-0.8-2-2.4-2.4c1.6-0.4,2-0.8,2.4-2.4
		C140.3,374.9,140.6,375.3,142.3,375.7z"/>
</g>
<g id="XMLID_14_">
	<path class="st1" d="M114.7,412.8c0,0.6-0.4,1-1,1c-0.6,0-1-0.4-1-1c0-0.6,0.4-1,1-1C114.3,411.8,114.7,412.3,114.7,412.8z"/>
</g>
<g id="XMLID_13_">
	<path class="st1" d="M59.7,280c0,1.1-0.9,1.9-1.9,1.9c-1.1,0-1.9-0.9-1.9-1.9c0-1.1,0.9-1.9,1.9-1.9
		C58.8,278.1,59.7,278.9,59.7,280z"/>
</g>
<g id="XMLID_11_">
	<path class="st1" d="M91.3,283.7c-1.6,0.4-2,0.8-2.4,2.4c-0.4-1.6-0.8-2-2.4-2.4c1.6-0.4,2-0.8,2.4-2.4
		C89.3,282.9,89.6,283.3,91.3,283.7z"/>
</g>
<g id="XMLID_16_">
	<path class="st1" d="M18.7,142.8c0,0.6-0.4,1-1,1c-0.6,0-1-0.4-1-1c0-0.6,0.4-1,1-1C18.3,141.8,18.7,142.3,18.7,142.8z"/>
</g>
<g id="XMLID_15_">
	<path class="st1" d="M252.3,95.7c-1.6,0.4-2,0.8-2.4,2.4c-0.4-1.6-0.8-2-2.4-2.4c1.6-0.4,2-0.8,2.4-2.4
		C250.3,94.9,250.6,95.3,252.3,95.7z"/>
</g>
<g id="XMLID_17_">
	<path class="st1" d="M340.7,372.8c0,0.6-0.4,1-1,1c-0.6,0-1-0.4-1-1c0-0.6,0.4-1,1-1C340.3,371.8,340.7,372.3,340.7,372.8z"/>
</g>
<g id="XMLID_12_">
	<path class="st1" d="M376.6,363.7c0,1-0.8,1.8-1.8,1.8c-1,0-1.8-0.8-1.8-1.8c0-1,0.8-1.8,1.8-1.8
		C375.7,361.9,376.6,362.7,376.6,363.7z"/>
</g>
</svg>
